<svg width="29" height="29" viewBox="0 0 29 29" fill="none" xmlns="http://www.w3.org/2000/svg">
<path d="M14.3906 0C6.4488 0 0 6.44881 0 14.3906C0 22.3324 6.4488 28.7812 14.3906 28.7812C22.3324 28.7812 28.7812 22.3324 28.7812 14.3906C28.7812 6.44881 22.3324 0 14.3906 0Z" fill="#2F67F4"/>
<path d="M19.378 17.6436C17.7846 17.6436 16.5049 18.9358 16.5049 20.5167C16.5049 22.0975 17.7972 23.3898 19.378 23.3898C20.9714 23.3898 22.2511 22.0975 22.2511 20.5167C22.2511 18.9358 20.9588 17.6436 19.378 17.6436Z" fill="white"/>
<path d="M16.505 11.8847L18.7884 9.6013C20.0681 8.32158 19.1648 6.12598 17.3456 6.12598C16.8061 6.12598 16.2917 6.33926 15.9027 6.71565L10.7462 11.8847L9.30337 13.3276C8.51295 14.118 8.51295 15.4103 9.30337 16.2007L10.7462 17.6435L8.46277 19.9269C7.18304 21.2066 8.08638 23.4022 9.90559 23.4022C10.4451 23.4022 10.9595 23.189 11.3484 22.8126L16.505 17.656L17.9478 16.2132C18.7382 15.4228 18.7382 14.1305 17.9478 13.3401L16.505 11.8973V11.8847Z" fill="white"/>
<path d="M10.7462 8.87311C10.7462 7.28633 9.45988 6 7.87311 6C6.28633 6 5 7.28633 5 8.87311C5 10.4599 6.28633 11.7462 7.87311 11.7462C9.45988 11.7462 10.7462 10.4599 10.7462 8.87311Z" fill="white"/>
</svg>
