<svg version="1.1" xmlns="http://www.w3.org/2000/svg" width="192" height="192">
<path d="M0 0 C63.36 0 126.72 0 192 0 C192 63.36 192 126.72 192 192 C128.64 192 65.28 192 0 192 C0 128.64 0 65.28 0 0 Z " fill="#FEFEFF" transform="translate(0,0)"/>
<path d="M0 0 C4.88078528 1.47344461 4.88078528 1.47344461 6.3125 4 C6.75 7.4375 6.75 7.4375 6.3125 11 C4.3125 13.4375 4.3125 13.4375 2.3125 15 C3.1375 15.825 3.9625 16.65 4.8125 17.5 C7.40281283 20.63797897 8.07572578 22.99572612 7.796875 27.0390625 C6.90936516 30.63204588 4.9904544 32.5549112 2.3125 35 C-2.04057396 37.08190494 -5.89895755 37.35470685 -10.6875 37 C-13.125 36 -13.125 36 -14.6875 35 C-14.6875 34.34 -14.6875 33.68 -14.6875 33 C-15.739375 33.680625 -16.79125 34.36125 -17.875 35.0625 C-20.5378738 36.59648815 -21.40368926 37.0185094 -24.5625 36.8125 C-26.6875 36 -26.6875 36 -27.6875 35 C-27.78629565 33.189715 -27.81721514 31.37547273 -27.8125 29.5625 C-27.81636719 28.07943359 -27.81636719 28.07943359 -27.8203125 26.56640625 C-27.6875 24 -27.6875 24 -26.6875 22 C-28.0075 22 -29.3275 22 -30.6875 22 C-30.74808594 22.99902344 -30.80867188 23.99804688 -30.87109375 25.02734375 C-30.99677734 26.96287109 -30.99677734 26.96287109 -31.125 28.9375 C-31.24681641 30.86916016 -31.24681641 30.86916016 -31.37109375 32.83984375 C-31.6875 36 -31.6875 36 -32.6875 37 C-34.35367115 37.04063832 -36.02138095 37.042721 -37.6875 37 C-37.6875 35.68 -37.6875 34.36 -37.6875 33 C-38.21859375 33.30035156 -38.7496875 33.60070312 -39.296875 33.91015625 C-40.00328125 34.29042969 -40.7096875 34.67070313 -41.4375 35.0625 C-42.48164063 35.63677734 -42.48164063 35.63677734 -43.546875 36.22265625 C-46.07628898 37.14118432 -47.22297353 37.02331425 -49.6875 36 C-50.0175 35.34 -50.3475 34.68 -50.6875 34 C-51.22375 34.495 -51.76 34.99 -52.3125 35.5 C-55.36995535 37.43102443 -57.125673 37.44522837 -60.6875 37 C-61.326875 36.505 -61.96625 36.01 -62.625 35.5 C-65.70036992 33.26336733 -67.97881702 33.60961232 -71.6875 34 C-72.491875 34.495 -73.29625 34.99 -74.125 35.5 C-77.61145498 37.5408517 -80.7967516 37.84944215 -84.6875 37 C-87.06961314 35.54958016 -88.69278682 33.99471318 -90.6875 32 C-95.79934742 34.20511065 -97.93749734 35.8762196 -100.25 41 C-102.30580486 45.54018142 -103.96340646 47.92139884 -108.6875 50 C-112.91041207 50.59268941 -114.9172177 50.4425026 -118.625 48.3125 C-120.6875 46 -120.6875 46 -121.1875 43.4375 C-120.59037229 40.52650239 -119.94393758 39.87625007 -117.6875 38 C-115.27734375 36.83203125 -115.27734375 36.83203125 -112.625 35.8125 C-111.74714844 35.46832031 -110.86929688 35.12414062 -109.96484375 34.76953125 C-107.6875 34 -107.6875 34 -105.6875 34 C-106.0175 33.34 -106.3475 32.68 -106.6875 32 C-107.6775 32.495 -107.6775 32.495 -108.6875 33 C-112.73892119 33.25860135 -114.23087669 33.30441554 -117.6875 31 C-119.65843639 25.08719082 -119.153293 19.65681923 -116.6875 14 C-116.23188927 11.3364296 -115.96117548 8.69114222 -115.6875 6 C-116.285625 6.33 -116.88375 6.66 -117.5 7 C-119.6875 8 -119.6875 8 -122.6875 8 C-122.375 5.625 -122.375 5.625 -121.6875 3 C-118.00032562 0.54188375 -116.04404296 0.68881836 -111.6875 1 C-110.6975 1.66 -109.7075 2.32 -108.6875 3 C-107.63327009 8.56588049 -109.13872739 13.67609415 -110.6875 19 C-110.84932694 21.69394253 -110.7823202 24.29762418 -110.6875 27 C-109.0375 26.67 -107.3875 26.34 -105.6875 26 C-103.78608644 20.60134363 -102.46519059 15.14024491 -101.1875 9.5703125 C-99.90424877 4.21674877 -99.90424877 4.21674877 -97.6875 2 C-95.0625 2.375 -95.0625 2.375 -92.6875 3 C-91.53196424 7.18784772 -91.93398868 10.06678972 -93 14.25 C-93.28101562 15.38308594 -93.56203125 16.51617187 -93.8515625 17.68359375 C-94.12742187 18.77800781 -94.40328125 19.87242188 -94.6875 21 C-95.09037334 22.76924498 -95.48732346 24.53986309 -95.875 26.3125 C-96.143125 27.529375 -96.41125 28.74625 -96.6875 30 C-94.7075 29.34 -92.7275 28.68 -90.6875 28 C-90.605 27.13375 -90.5225 26.2675 -90.4375 25.375 C-89.28835173 20.20383278 -87.08468266 16.9314551 -82.6875 14 C-80.05859375 13.69921875 -80.05859375 13.69921875 -77.125 13.6875 C-76.15433594 13.67074219 -75.18367188 13.65398437 -74.18359375 13.63671875 C-73.35988281 13.75660156 -72.53617188 13.87648438 -71.6875 14 C-71.0275 14.99 -70.3675 15.98 -69.6875 17 C-70.925 17.0825 -72.1625 17.165 -73.4375 17.25 C-76.30848669 17.63178014 -77.67750673 17.99375421 -80.1875 19.5625 C-82.39674266 23.15251931 -81.96554297 25.82935544 -81.6875 30 C-79.3775 30.66 -77.0675 31.32 -74.6875 32 C-75.1825 31.484375 -75.6775 30.96875 -76.1875 30.4375 C-78.24771138 27.08965651 -78.17875459 24.85985753 -77.6875 21 C-76 19 -76 19 -73.6875 18 C-70.31713689 18.24074022 -69.09951979 18.58798021 -66.6875 21 C-67.0625 24.625 -67.0625 24.625 -67.6875 28 C-65.64960725 27.44198068 -65.64960725 27.44198068 -63.6875 26 C-62.76497807 23.13288112 -62.76497807 23.13288112 -62.4375 19.875 C-62.28796875 18.77929688 -62.1384375 17.68359375 -61.984375 16.5546875 C-61.88640625 15.71164063 -61.7884375 14.86859375 -61.6875 14 C-59.6960944 13.61866701 -57.69470923 13.28674418 -55.6875 13 C-54.6875 14 -54.6875 14 -54.5 17.4375 C-54.54525043 22.42409743 -55.57582066 27.15625432 -56.6875 32 C-53.46141307 30.62309279 -52.78241676 30.17225634 -51 26.9375 C-49.37025938 22.73914644 -48.98114933 18.46549496 -48.6875 14 C-45.7175 13.505 -45.7175 13.505 -42.6875 13 C-42.6875 18.61 -42.6875 24.22 -42.6875 30 C-38.0852952 26.5483464 -37.91364445 25.4761008 -36.921875 20.2265625 C-36.64902766 17.63451278 -36.98394836 15.50151693 -37.6875 13 C-36.6875 12 -36.6875 12 -34.125 11.9375 C-33.320625 11.958125 -32.51625 11.97875 -31.6875 12 C-30.6975 14.475 -30.6975 14.475 -29.6875 17 C-29.13320312 16.83242187 -28.57890625 16.66484375 -28.0078125 16.4921875 C-27.28335938 16.28851563 -26.55890625 16.08484375 -25.8125 15.875 C-25.09320313 15.66617188 -24.37390625 15.45734375 -23.6328125 15.2421875 C-22.99085937 15.16226563 -22.34890625 15.08234375 -21.6875 15 C-20.6975 15.99 -20.6975 15.99 -19.6875 17 C-19.7109375 20.0390625 -19.7109375 20.0390625 -20.0625 23.625 C-20.17335938 24.81351563 -20.28421875 26.00203125 -20.3984375 27.2265625 C-20.49382812 28.14179687 -20.58921875 29.05703125 -20.6875 30 C-17.64220246 27.10265214 -16.14002875 24.94257803 -14.6875 21 C-14.0275 20.34 -13.3675 19.68 -12.6875 19 C-11.3675 19 -10.0475 19 -8.6875 19 C-8.6875 22.3 -8.6875 25.6 -8.6875 29 C-6.29030568 29.67958603 -6.29030568 29.67958603 -3.6875 30 C-1.32101877 28.09559124 -1.32101877 28.09559124 -1.625 24.8125 C-2.73979229 20.81236298 -3.28681097 20.19829574 -6.25 17.625 C-9.14064586 14.97325049 -10.26406989 13.33338304 -10.5 9.375 C-10.21681262 6.06737135 -9.51280924 4.19827386 -7.125 1.875 C-3.6875 0 -3.6875 0 0 0 Z " fill="#5FAFFF" transform="translate(125.6875,71)"/>
<path d="M0 0 C0.66 0.66 1.32 1.32 2 2 C1.8185339 4.60491661 1.53723614 7.05681623 1.125 9.625 C1.02058594 10.33140625 0.91617188 11.0378125 0.80859375 11.765625 C0.54900874 13.51192414 0.27578567 15.25618599 0 17 C3.67840889 14.72692336 3.67840889 14.72692336 7 12 C7.23427778 9.98405418 7.41336124 7.961526 7.5625 5.9375 C7.64628906 4.83277344 7.73007813 3.72804688 7.81640625 2.58984375 C7.90728516 1.30787109 7.90728516 1.30787109 8 0 C10.31 0 12.62 0 15 0 C15.25706972 5.91260345 14.2982126 11.23918159 13 17 C15.48004667 16.59614993 15.48004667 16.59614993 18 15 C19.36825825 12.41509106 20.07000142 9.69406019 20.8125 6.875 C21.02841797 6.12089844 21.24433594 5.36679688 21.46679688 4.58984375 C21.99603184 2.73164097 22.50045042 0.86640227 23 -1 C25.4375 -0.625 25.4375 -0.625 28 0 C30.89277823 5.78555647 27.89371598 12.29630782 26 18 C26.763125 17.38125 27.52625 16.7625 28.3125 16.125 C31 14 31 14 34 12 C34.5022251 14.76223803 34.35673215 16.45674123 32.8046875 18.8203125 C28.80644773 23.62221856 28.80644773 23.62221856 25.95703125 24.95703125 C23.50595352 26.26329423 22.77770517 27.59382305 21.4375 30 C19.7427566 33.02275544 19.0025105 33.99832634 16 36 C12.00453212 36.52114798 10.47680735 36.33169207 7.125 34 C6.42375 33.34 5.7225 32.68 5 32 C5.3125 29.625 5.3125 29.625 6 27 C8.85478326 25.09681116 10.41941308 24.5380901 13.6875 23.875 C14.49574219 23.70742187 15.30398437 23.53984375 16.13671875 23.3671875 C16.75160156 23.24601562 17.36648437 23.12484375 18 23 C17.00850324 21.78057055 17.00850324 21.78057055 15.07421875 21.9375 C13.49088005 21.97896222 11.90754664 22.02062687 10.32421875 22.0625 C8 22 8 22 5.83203125 21.44140625 C3.30704755 20.83304131 2.24367178 21.80804937 0 23 C-1.32 23 -2.64 23 -4 23 C-4.33 21.68 -4.66 20.36 -5 19 C-5.66 19 -6.32 19 -7 19 C-7 19.66 -7 20.32 -7 21 C-10.64957865 23.33573034 -13.73910491 23.45652447 -18 23 C-20.4375 21.5625 -20.4375 21.5625 -22 19 C-22.93538133 14.85992088 -22.7986946 11.46969821 -20.75390625 7.70703125 C-15.51334021 0.5322912 -15.51334021 0.5322912 -10.87890625 -0.44921875 C-10.11449219 -0.52785156 -9.35007813 -0.60648437 -8.5625 -0.6875 C-7.41974609 -0.81705078 -7.41974609 -0.81705078 -6.25390625 -0.94921875 C-3.92297831 -1.00173532 -2.19690682 -0.76961704 0 0 Z " fill="#61B0FF" transform="translate(158,85)"/>
<path d="M0 0 C0.62283737 9.06574394 0.62283737 9.06574394 -1.75 12.625 C-4 14 -4 14 -8 14 C-8.875 10.9375 -8.875 10.9375 -9 7 C-6.75781144 3.10250444 -4.66487126 0 0 0 Z " fill="#F5FAFF" transform="translate(152,89)"/>
<path d="M0 0 C-2 1.33333333 -4 2.66666667 -6 4 C-6.39259107 8.23998354 -6.32490278 11.36733941 -4 15 C-6.875 15.125 -6.875 15.125 -10 15 C-12 13 -12 13 -12.4375 9.1875 C-12.338261 5.78236185 -11.97965344 4.970405 -9.9375 2 C-6.35342568 -0.44022082 -4.25018379 -0.41668469 0 0 Z " fill="#F2F8FF" transform="translate(55,88)"/>
<path d="M0 0 C0.33 0 0.66 0 1 0 C1 3.63 1 7.26 1 11 C-2.63 11 -6.26 11 -10 11 C-9.01 10.01 -8.02 9.02 -7 8 C-6.34 8 -5.68 8 -5 8 C-4.67 7.01 -4.34 6.02 -4 5 C-3.34 5 -2.68 5 -2 5 C-1.34 3.35 -0.68 1.7 0 0 Z " fill="#000000" transform="translate(191,181)"/>
<path d="M0 0 C0.99 0.99 1.98 1.98 3 3 C3 3.66 3 4.32 3 5 C3.99 5.33 4.98 5.66 6 6 C6 6.66 6 7.32 6 8 C8.475 8.99 8.475 8.99 11 10 C11 10.33 11 10.66 11 11 C7.37 11 3.74 11 0 11 C0 7.37 0 3.74 0 0 Z " fill="#000000" transform="translate(0,181)"/>
<path d="M0 0 C3.63 0 7.26 0 11 0 C11 3.63 11 7.26 11 11 C10.01 10.01 9.02 9.02 8 8 C8 7.34 8 6.68 8 6 C7.01 5.67 6.02 5.34 5 5 C5 4.34 5 3.68 5 3 C2.525 2.01 2.525 2.01 0 1 C0 0.67 0 0.34 0 0 Z " fill="#000000" transform="translate(181,0)"/>
<path d="M0 0 C3.63 0 7.26 0 11 0 C9.515 1.485 9.515 1.485 8 3 C7.34 3 6.68 3 6 3 C5.67 3.99 5.34 4.98 5 6 C4.34 6 3.68 6 3 6 C2.34 7.65 1.68 9.3 1 11 C0.67 11 0.34 11 0 11 C0 7.37 0 3.74 0 0 Z " fill="#000000" transform="translate(0,0)"/>
<path d="M0 0 C-1.875 5.875 -1.875 5.875 -3 7 C-4.66617115 7.04063832 -6.33388095 7.042721 -8 7 C-8.33 5.68 -8.66 4.36 -9 3 C-2.25 0 -2.25 0 0 0 Z " fill="#EDF6FF" transform="translate(19,110)"/>
<path d="M0 0 C1.65 0 3.3 0 5 0 C5.33 1.65 5.66 3.3 6 5 C4.02 5.99 4.02 5.99 2 7 C0.4375 5.75 0.4375 5.75 -1 4 C-0.6875 1.8125 -0.6875 1.8125 0 0 Z " fill="#E7F3FF" transform="translate(122,76)"/>
<path d="M0 0 C0.33 0.99 0.66 1.98 1 3 C-2.13498292 4.85776765 -4.37471432 5.20140476 -8 5 C-8 4.01 -8 3.02 -8 2 C-6.865625 1.855625 -5.73125 1.71125 -4.5625 1.5625 C-1.19222799 1.38828522 -1.19222799 1.38828522 0 0 Z " fill="#D8EBFF" transform="translate(176,105)"/>
<path d="M0 0 C-2.91726476 1.94484317 -5.86835873 3.43417937 -9 5 C-9.99 5.66 -10.98 6.32 -12 7 C-9.14032181 0.62071789 -7.11769183 -0.40288822 0 0 Z " fill="#DCEDFF" transform="translate(55,88)"/>
</svg>
