<svg width="744" height="693" viewBox="0 0 744 693" fill="none" xmlns="http://www.w3.org/2000/svg">
<g clip-path="url(#clip0_18509_13859)">
<rect width="744" height="693" fill="white"/>
<g style="mix-blend-mode:luminosity" filter="url(#filter0_d_18509_13859)">
<path d="M690.347 1.2558C667.242 -22.0199 638.97 -30.7943 627.207 -18.3315C615.437 -5.87929 624.634 23.0919 647.739 46.3675C670.844 69.6432 699.117 78.4176 710.879 65.9548C722.642 53.4921 713.452 24.5315 690.347 1.2558Z" fill="url(#paint0_linear_18509_13859)"/>
<path opacity="0.7" d="M690.347 1.2558C667.242 -22.0199 638.97 -30.7943 627.207 -18.3315C615.437 -5.87929 624.634 23.0919 647.739 46.3675C670.844 69.6432 699.117 78.4176 710.879 65.9548C722.642 53.4921 713.452 24.5315 690.347 1.2558ZM647.964 45.9998C640.05 38.0345 633.498 29.0815 629.005 20.1075C620.902 3.92489 620.351 -10.2717 627.533 -17.8797C639.158 -30.1848 667.228 -21.4314 690.115 1.61308C698.03 9.58881 704.581 18.5313 709.075 27.5053C717.178 43.6879 717.728 57.8845 710.546 65.4925C698.928 77.7976 670.852 69.0548 647.964 45.9998Z" fill="url(#paint1_linear_18509_13859)"/>
<path d="M677.671 14.5172L675.649 8.18076L681.824 10.1143L683.846 16.4297L677.671 14.5172ZM653.965 31.1412L655.994 37.4671L662.162 39.4006L660.147 33.0747L653.965 31.1412ZM705.951 61.1106C695.609 72.0602 670.576 64.2421 650.145 43.6565C629.715 23.0814 621.511 -2.57966 631.86 -13.5292C642.202 -24.4788 667.242 -16.6502 687.673 3.93543C708.096 24.5105 716.3 50.1611 705.951 61.1106ZM702.588 57.7165C711.995 47.7652 704.538 24.4475 685.97 5.74284C667.402 -12.9618 644.637 -20.0863 635.23 -10.1351C625.823 -0.183775 633.288 23.1444 651.856 41.8596C670.424 60.5642 693.181 67.6782 702.588 57.7165ZM695.123 47.1347C694.935 46.893 691.753 43.7931 690.267 42.3535C693.333 38.4549 691.173 32.0449 686.049 26.8854C678.345 19.1198 673.243 18.8361 668.286 18.8571C664.872 18.8046 662.154 19.6767 659.089 16.5768C657.473 14.948 657.32 13.3298 658.11 12.4891C658.98 11.5644 662.046 12.3315 666.199 15.505C666.358 15.4104 666.568 15.2318 666.807 14.9796C667.641 14.0969 668.866 12.3105 669.677 10.1563C666.88 7.3401 657.183 -2.43253 655.929 -3.56742C655.929 -3.56742 652.117 -0.299381 651.87 -0.267857C651.841 -0.236332 653.95 1.99141 655.081 3.24188C654.24 2.90562 652.428 2.60087 650.522 3.16832C648.152 0.898543 644.514 -2.48509 644.463 -2.43255C644.427 -2.39051 642.934 -1.05596 642.18 -0.257338C641.898 0.0474 641.717 0.26806 641.76 0.320601C641.919 0.478224 644.724 3.42052 647.036 5.63775C644.746 8.73768 646.674 15.8202 652.552 21.7363C659.176 28.4091 664.082 29.1236 669.315 29.3863C673.7 29.628 676.939 28.6613 678.882 30.6158C681.034 32.7805 680.512 34.3462 680.02 34.8611C679.172 35.7543 677.055 35.5336 673.794 32.5388C673.714 32.4547 673.076 33.0117 672.352 33.7893C671.098 35.1133 669.569 37.0783 670.076 37.5932C671.808 39.3376 681.737 50.2977 681.991 50.2661C683.767 50.0665 685.339 48.6374 686.078 47.8493C686.368 47.5445 686.528 47.3343 686.528 47.3343L684.136 44.5287C684.948 44.7809 686.122 44.7809 687.253 44.4551C688.68 45.8422 692.92 50.056 693.21 50.2872C693.268 50.3397 693.384 50.2556 693.529 50.098C694.145 49.436 695.319 47.3764 695.123 47.1347Z" fill="url(#paint2_linear_18509_13859)"/>
<path d="M677.911 14.0551L675.889 7.71862L682.063 9.65213L684.085 15.9676L677.911 14.0551ZM654.204 30.6686L656.233 36.9945L662.401 38.928L660.386 32.6021L654.204 30.6686ZM706.19 60.638C695.848 71.5875 670.815 63.7694 650.385 43.1838C629.954 22.6088 621.75 -3.05232 632.099 -14.0019C642.441 -24.9514 667.481 -17.1228 687.912 3.46277C708.336 24.0484 716.54 49.6884 706.19 60.638ZM702.827 57.2543C712.235 47.303 704.777 23.9853 686.209 5.2807C667.641 -13.4239 644.877 -20.5485 635.469 -10.5972C626.062 -0.645913 633.527 22.6823 652.095 41.3974C670.663 60.0915 693.42 67.2056 702.827 57.2543ZM695.363 46.6621C695.174 46.4204 691.992 43.3205 690.507 41.8808C693.572 37.9823 691.413 31.5723 686.289 26.4127C678.585 18.6472 673.482 18.3634 668.525 18.3844C665.112 18.3319 662.394 19.2041 659.328 16.1042C657.712 14.4754 657.56 12.8571 658.35 12.0165C659.219 11.0918 662.285 11.8588 666.438 15.0323C666.597 14.9378 666.807 14.7591 667.047 14.5069C667.88 13.6242 669.105 11.8378 669.917 9.68365C667.119 6.86745 657.422 -2.90519 656.168 -4.04008C656.168 -4.04008 652.356 -0.772038 652.11 -0.740513C652.081 -0.708988 654.19 1.51878 655.32 2.76926C654.479 2.433 652.668 2.12825 650.762 2.69569C648.392 0.425919 644.753 -2.95774 644.703 -2.9052C644.666 -2.86317 643.173 -1.52862 642.42 -0.729994C642.137 -0.425256 641.956 -0.204575 641.999 -0.162542C642.159 -0.00491875 644.964 2.93738 647.275 5.15461C644.985 8.25453 646.913 15.3266 652.791 21.2532C659.415 27.9259 664.322 28.6405 669.554 28.9032C673.939 29.1449 677.179 28.1781 679.121 30.1326C681.273 32.2973 680.752 33.863 680.259 34.3779C679.411 35.2711 677.295 35.0505 674.033 32.0556C673.953 31.9716 673.316 32.5285 672.591 33.3061C671.337 34.6302 669.808 36.5952 670.315 37.1101C672.047 38.8545 681.976 49.8145 682.23 49.783C684.006 49.5833 685.578 48.1542 686.318 47.3661C686.608 47.0613 686.767 46.8512 686.767 46.8512L684.375 44.0455C685.187 44.2977 686.361 44.2977 687.492 43.972C688.92 45.359 693.159 49.5728 693.449 49.804C693.507 49.8565 693.623 49.7725 693.768 49.6149C694.384 48.9633 695.566 46.9037 695.363 46.6621Z" fill="url(#paint3_linear_18509_13859)"/>
<path opacity="0.7" d="M695.363 46.6619C695.174 46.4203 691.993 43.3204 690.507 41.8807C693.573 37.9822 691.413 31.5722 686.289 26.4126C678.585 18.6471 673.483 18.3633 668.525 18.3843C665.112 18.3318 662.394 19.204 659.328 16.104C657.712 14.4753 657.56 12.857 658.35 12.0164C659.219 11.0916 662.285 11.8587 666.438 15.0322C666.597 14.9376 666.808 14.759 667.047 14.5068C667.88 13.6241 669.105 11.8377 669.917 9.68355C667.119 6.86735 657.422 -2.90529 656.168 -4.04018C656.168 -4.04018 652.356 -0.772139 652.11 -0.740614C652.081 -0.70909 654.19 1.51868 655.32 2.76916C654.48 2.43289 652.668 2.12815 650.762 2.69559C648.392 0.425818 644.753 -2.95785 644.703 -2.9053C644.667 -2.86327 643.174 -1.52872 642.42 -0.730096C642.137 -0.425358 641.956 -0.204676 641.999 -0.162643C642.159 -0.00502001 644.964 2.93728 647.276 5.15451C644.985 8.25443 646.913 15.3265 652.791 21.2531C659.415 27.9258 664.322 28.6404 669.554 28.9031C673.939 29.1448 677.179 28.178 679.121 30.1325C681.274 32.2972 680.752 33.8629 680.259 34.3778C679.411 35.271 677.295 35.0504 674.033 32.0555C673.954 31.9715 673.316 32.5284 672.591 33.306C671.337 34.6301 669.808 36.5951 670.315 37.11C672.048 38.8544 681.977 49.8144 682.23 49.7829C684.006 49.5832 685.579 48.1541 686.318 47.366C686.608 47.0612 686.767 46.8511 686.767 46.8511L684.376 44.0454C685.187 44.2976 686.361 44.2976 687.492 43.9718C688.92 45.3589 693.159 49.5727 693.449 49.8039C693.507 49.8564 693.623 49.7724 693.768 49.6148C694.384 48.9632 695.566 46.9036 695.363 46.6619ZM693.5 49.4887C693.181 49.1944 691.688 47.7233 690.362 46.4202C689.282 45.3589 688.202 44.2871 687.608 43.7091L687.535 43.6356L687.448 43.6566C686.398 43.9613 685.238 43.9823 684.419 43.7301L684.238 44.2871L686.427 46.8511C686.361 46.9246 686.282 47.0087 686.195 47.1033C685.448 47.8914 683.955 49.2365 682.266 49.4466C681.788 49.0788 678.186 45.1698 675.273 42.0068C673.149 39.7055 671.134 37.5198 670.446 36.8262C670.373 36.532 671.127 35.229 672.722 33.5372C673.367 32.8542 673.823 32.4548 673.99 32.3603C677.367 35.4392 679.505 35.5443 680.389 34.609C680.795 34.1782 681.274 33.0538 680.513 31.5406C680.237 30.9837 679.81 30.4163 679.252 29.8488C677.838 28.4302 675.794 28.4827 673.214 28.5668C672.127 28.5983 670.888 28.6404 669.576 28.5668C664.329 28.3041 659.459 27.558 652.929 20.9799C650.979 19.0148 649.356 16.7976 648.24 14.5699C646.348 10.7869 646.036 7.25617 647.435 5.36469L647.638 5.09146L647.406 4.8708C646.08 3.59931 644.377 1.88645 642.333 -0.236208L642.318 -0.246727C642.369 -0.309776 642.449 -0.393832 642.55 -0.498914C643.159 -1.13991 644.253 -2.14869 644.667 -2.51647C644.688 -2.53749 644.703 -2.54802 644.717 -2.56903C645.297 -2.09616 648.355 0.741044 650.646 2.93726L650.718 3.01083L650.805 2.98982C652.755 2.41187 654.523 2.76916 655.262 3.06339L655.451 2.50645C654.98 1.99155 654.342 1.29801 653.755 0.667515C653.306 0.184137 652.813 -0.351781 652.516 -0.677535C653.24 -1.20295 654.806 -2.51649 656.161 -3.6829C657.226 -2.68462 661.749 1.8339 669.627 9.7676C668.822 11.8062 667.677 13.435 666.916 14.2441C666.742 14.4333 666.576 14.5804 666.445 14.6749C662.669 11.8167 659.299 10.6188 658.219 11.7537C657.538 12.4682 657.48 13.6557 658.067 14.8221C658.328 15.3475 658.705 15.8519 659.198 16.3457C661.734 18.8992 663.996 18.8152 666.619 18.7206C667.228 18.6996 667.866 18.6681 668.518 18.6891C674.012 18.6681 678.795 19.2355 686.166 26.6648C687.898 28.4092 689.326 30.3427 690.282 32.2552C692.152 35.9856 692.181 39.3167 690.362 41.6285L690.152 41.9017L690.384 42.1329C693 44.6654 694.776 46.4097 695.145 46.809C695.015 47.2714 694.196 48.7531 693.631 49.352C693.573 49.4361 693.529 49.4676 693.5 49.4887ZM654.204 30.6684L656.233 36.9944L662.401 38.9279L660.386 32.602L654.204 30.6684ZM662.024 38.4866L656.386 36.7212L654.588 31.1098L660.234 32.8752L662.024 38.4866ZM684.078 15.978L682.056 9.66254L675.881 7.72904L677.903 14.0655L684.078 15.978ZM676.266 8.15984L681.911 9.92525L683.701 15.5261L678.063 13.7713L676.266 8.15984ZM687.912 3.46267C667.482 -17.1124 642.449 -24.9515 632.099 -14.002C621.757 -3.05242 629.961 22.6087 650.385 43.1837C670.815 63.7588 695.848 71.5874 706.19 60.6379C716.54 49.6883 708.336 24.0483 687.912 3.46267ZM650.508 42.9315C643.456 35.828 637.607 27.8418 633.6 19.845C626.417 5.5118 625.903 -7.04554 632.223 -13.7393C642.5 -24.6153 667.424 -16.7761 687.782 3.72538C694.834 10.8289 700.682 18.8152 704.69 26.8119C711.872 41.1451 712.38 53.6919 706.06 60.3857C695.79 71.2722 670.866 63.4331 650.508 42.9315ZM701.798 26.1394C698.131 18.8152 692.783 11.512 686.332 5.00738C667.692 -13.7708 644.811 -20.8953 635.339 -10.86C629.382 -4.55507 629.816 7.17208 636.499 20.5175C640.166 27.8417 645.514 35.145 651.965 41.6495C670.605 60.4277 693.478 67.5418 702.951 57.5064C708.908 51.2015 708.473 39.4743 701.798 26.1394ZM652.088 41.3868C633.52 22.6822 626.055 -0.646025 635.462 -10.6078C644.869 -20.5591 667.627 -13.4345 686.202 5.27008C704.77 23.9747 712.228 47.2924 702.82 57.2437C693.42 67.2055 670.663 60.0915 652.088 41.3868Z" fill="url(#paint4_linear_18509_13859)"/>
<path d="M704.603 80.4769C704.611 80.4663 704.618 80.4664 704.625 80.4558C705.031 80.0986 705.422 79.7308 705.799 79.3315C705.828 79.2999 705.85 79.2789 705.879 79.2474C706.046 79.0688 706.19 78.8691 706.35 78.6905C706.553 78.4488 706.763 78.2176 706.951 77.9654C706.966 77.9444 706.98 77.9339 706.995 77.9128C707.133 77.7237 707.256 77.5241 707.386 77.3349C707.567 77.0722 707.756 76.8095 707.93 76.5363C707.944 76.5153 707.966 76.4837 707.981 76.4627C708.097 76.2736 708.191 76.0634 708.299 75.8743C708.459 75.58 708.626 75.2963 708.771 74.9916C708.785 74.96 708.807 74.9285 708.829 74.8865C709.046 74.4346 709.242 73.9618 709.423 73.4889L714.511 60.1119C714.315 60.6268 714.097 61.1207 713.858 61.6146C713.713 61.9194 713.547 62.2031 713.387 62.4973C713.264 62.718 713.155 62.9492 713.018 63.1593C712.851 63.4326 712.662 63.6952 712.474 63.9579C712.329 64.1681 712.191 64.3888 712.039 64.5884C711.851 64.8406 711.641 65.0718 711.438 65.3135C711.256 65.5237 711.083 65.7549 710.887 65.965C710.51 66.3643 710.119 66.7321 709.713 67.0894C709.64 67.1525 709.561 67.205 709.488 67.268C709.126 67.5728 708.756 67.867 708.365 68.1402C708.002 68.3924 707.633 68.6341 707.256 68.8548C707.176 68.8968 707.104 68.9388 707.024 68.9914C706.611 69.2226 706.19 69.4538 705.756 69.6534C705.734 69.6639 705.705 69.6744 705.683 69.6849C705.277 69.8741 704.864 70.0422 704.437 70.1998C704.313 70.2419 704.19 70.2944 704.067 70.3364C703.61 70.4941 703.147 70.6517 702.668 70.7883C702.661 70.7883 702.654 70.7883 702.646 70.7883C702.161 70.9249 701.668 71.03 701.161 71.1351C701.001 71.1666 700.835 71.1981 700.675 71.2191C700.334 71.2822 699.994 71.3347 699.646 71.3767C699.371 71.4188 699.095 71.4398 698.813 71.4713C698.508 71.5028 698.204 71.5344 697.899 71.5554C697.617 71.5764 697.327 71.5869 697.037 71.5974C696.696 71.6079 696.348 71.6184 696 71.6184C695.805 71.6184 695.616 71.6184 695.421 71.6184C694.986 71.6079 694.551 71.5974 694.109 71.5659C693.964 71.5554 693.819 71.5554 693.674 71.5449C693.087 71.5028 692.5 71.4503 691.898 71.3767C691.761 71.3557 691.63 71.3347 691.493 71.3242C691.058 71.2717 690.616 71.2086 690.174 71.1351C689.376 71.009 688.572 70.8618 687.753 70.6832C687.717 70.6727 687.68 70.6622 687.644 70.6622C686.861 70.4835 686.064 70.2839 685.26 70.0632C685.006 69.9897 684.752 69.9161 684.491 69.8425C683.875 69.6639 683.252 69.4748 682.629 69.2646C682.368 69.1805 682.107 69.0965 681.846 69.0019C681.049 68.7287 680.252 68.4344 679.447 68.1192C679.382 68.0982 679.317 68.0667 679.252 68.0457C678.288 67.6674 677.309 67.247 676.331 66.8057C676.084 66.6901 675.831 66.5745 675.584 66.4589C674.678 66.0386 673.765 65.5972 672.845 65.1244C672.758 65.0823 672.664 65.0403 672.577 64.9878C672.403 64.8932 672.229 64.7986 672.055 64.704C671.518 64.4203 670.982 64.1366 670.439 63.8318C670.178 63.6847 669.917 63.5271 669.649 63.38C669.228 63.1383 668.815 62.8966 668.395 62.6549C667.424 62.077 666.46 61.4885 665.489 60.858C665.278 60.7214 665.061 60.5743 664.851 60.4377C664.184 59.9963 663.51 59.5445 662.843 59.0821C662.532 58.872 662.22 58.6513 661.916 58.4306C661.386 58.0523 660.85 57.6635 660.321 57.2747C660.002 57.033 659.683 56.8018 659.364 56.5602C658.857 56.1713 658.35 55.7825 657.842 55.3832C657.531 55.1415 657.226 54.8999 656.915 54.6477C656.4 54.2274 655.886 53.7965 655.364 53.3657C655.081 53.1345 654.806 52.9033 654.523 52.6616C653.958 52.1782 653.392 51.6739 652.827 51.1695C652.617 50.9803 652.4 50.8017 652.189 50.6125C651.414 49.919 650.646 49.2044 649.885 48.4688C649.167 47.7858 648.45 47.0818 647.739 46.3672C647.522 46.1465 647.305 45.9153 647.087 45.6947C646.536 45.1272 645.986 44.5598 645.449 43.9923C645.225 43.7506 645 43.509 644.775 43.2673C644.253 42.6998 643.739 42.1324 643.232 41.5544C643.043 41.3443 642.847 41.1236 642.659 40.9134C641.963 40.1148 641.289 39.3162 640.622 38.5176C640.521 38.3915 640.419 38.2654 640.318 38.1393C639.716 37.3932 639.122 36.6471 638.542 35.901C638.376 35.6909 638.209 35.4702 638.05 35.26C637.332 34.3143 636.636 33.3686 635.962 32.4228C635.709 32.0655 635.462 31.7082 635.216 31.351C635.035 31.0883 634.846 30.815 634.665 30.5523C634.39 30.1425 634.121 29.7327 633.853 29.3334C633.694 29.0917 633.534 28.85 633.375 28.6083C633.266 28.4402 633.165 28.2721 633.056 28.1039C632.679 27.5155 632.317 26.927 631.962 26.3386C631.802 26.0758 631.65 25.8131 631.498 25.5609C631.201 25.0565 630.911 24.5627 630.628 24.0583C630.476 23.785 630.324 23.5224 630.179 23.2597C629.867 22.6922 629.555 22.1143 629.258 21.5468C629.15 21.3366 629.034 21.1265 628.925 20.9163C628.534 20.1492 628.149 19.3821 627.794 18.615C627.729 18.4784 627.664 18.3313 627.599 18.1947C627.309 17.5642 627.026 16.9442 626.758 16.3137C626.649 16.0615 626.548 15.8198 626.446 15.5676C626.222 15.0317 626.004 14.5063 625.801 13.9704C625.707 13.7287 625.606 13.4765 625.519 13.2348C625.279 12.6043 625.055 11.9843 624.845 11.3643C624.801 11.2383 624.758 11.1121 624.714 10.9966C624.468 10.261 624.236 9.5254 624.018 8.78982C623.96 8.59017 623.91 8.3905 623.852 8.19085C623.7 7.65493 623.562 7.12953 623.424 6.59361C623.366 6.35192 623.308 6.11023 623.25 5.86854C623.127 5.35364 623.018 4.83875 622.917 4.33435C622.873 4.12419 622.83 3.92454 622.794 3.71437C622.663 3.02083 622.547 2.32729 622.453 1.64425C622.446 1.57069 622.438 1.49714 622.424 1.41307C622.344 0.803594 622.279 0.204634 622.221 -0.383826C622.199 -0.59399 622.192 -0.80416 622.178 -1.01432C622.141 -1.47669 622.12 -1.94956 622.105 -2.40142C622.098 -2.61158 622.091 -2.83224 622.091 -3.0424C622.083 -3.5468 622.091 -4.05121 622.105 -4.5451C622.112 -4.68171 622.105 -4.8183 622.112 -4.9549C622.141 -5.57489 622.192 -6.18439 622.257 -6.78336C622.272 -6.93047 622.301 -7.07758 622.315 -7.2352C622.373 -7.68705 622.438 -8.12839 622.518 -8.56973C622.554 -8.75888 622.591 -8.95856 622.634 -9.1477C622.721 -9.55752 622.815 -9.94631 622.917 -10.3456C622.96 -10.5138 623.004 -10.6924 623.054 -10.85C623.214 -11.3965 623.381 -11.9324 623.584 -12.4473L618.496 0.929701C618.3 1.4446 618.126 1.98051 617.967 2.52694C617.916 2.69507 617.88 2.86321 617.829 3.03134C617.728 3.42015 617.633 3.81944 617.546 4.22926C617.51 4.41841 617.467 4.60755 617.43 4.8072C617.351 5.24855 617.285 5.68991 617.228 6.14177C617.206 6.28888 617.184 6.43599 617.17 6.59361C617.104 7.19258 617.054 7.80205 617.025 8.42203C617.017 8.55864 617.017 8.69526 617.017 8.83187C617.003 9.32575 616.996 9.81963 617.003 10.3345C617.003 10.5447 617.01 10.7654 617.017 10.9756C617.032 11.4379 617.054 11.9002 617.09 12.3626C617.104 12.5728 617.119 12.7829 617.133 12.9931C617.184 13.5816 617.249 14.1805 617.329 14.79C617.336 14.8636 617.343 14.9476 617.358 15.0212C617.452 15.7042 617.568 16.3978 617.699 17.0913C617.735 17.291 617.778 17.5012 617.822 17.7113C617.923 18.2157 618.032 18.7306 618.155 19.2455C618.213 19.4872 618.271 19.7289 618.329 19.9706C618.46 20.496 618.605 21.0319 618.757 21.5573C618.815 21.757 618.865 21.9566 618.923 22.1668C619.141 22.8919 619.366 23.6274 619.619 24.3735C619.663 24.4996 619.706 24.6257 619.75 24.7413C619.96 25.3613 620.184 25.9918 620.424 26.6117C620.518 26.8534 620.612 27.0951 620.706 27.3473C620.916 27.8727 621.127 28.4087 621.351 28.9446C621.453 29.1968 621.562 29.4385 621.663 29.6907C621.931 30.3212 622.214 30.9411 622.511 31.5716C622.576 31.7082 622.634 31.8449 622.699 31.992C623.062 32.7591 623.439 33.5262 623.837 34.2933C623.946 34.5034 624.055 34.7136 624.163 34.9133C624.461 35.4912 624.772 36.0586 625.084 36.6366C625.149 36.7627 625.214 36.8888 625.287 37.0044C625.366 37.1515 625.453 37.2881 625.533 37.4352C625.816 37.9396 626.106 38.444 626.403 38.9379C626.555 39.2006 626.707 39.4528 626.867 39.7155C627.222 40.3039 627.591 40.8924 627.961 41.4809C628.048 41.6175 628.128 41.7541 628.215 41.8907C628.236 41.9222 628.258 41.9537 628.273 41.9853C628.425 42.227 628.592 42.4686 628.751 42.7103C629.019 43.1202 629.28 43.53 629.555 43.9293C629.737 44.2025 629.925 44.4652 630.114 44.7384C630.324 45.0431 630.534 45.3584 630.751 45.6631C630.788 45.7157 630.824 45.7577 630.86 45.8103C631.534 46.756 632.23 47.7017 632.947 48.6475C633.02 48.742 633.078 48.8366 633.15 48.9207C633.244 49.0468 633.346 49.1624 633.44 49.2885C634.02 50.0346 634.607 50.7807 635.216 51.5267C635.296 51.6213 635.361 51.7159 635.44 51.8105C635.462 51.842 635.491 51.8735 635.513 51.8945C636.172 52.7037 636.854 53.5023 637.549 54.2904C637.607 54.364 637.665 54.427 637.723 54.5006C637.854 54.6477 637.992 54.7948 638.115 54.9419C638.622 55.5199 639.137 56.0873 639.659 56.6548C639.782 56.7914 639.905 56.928 640.028 57.0646C640.13 57.1696 640.231 57.2747 640.333 57.3798C640.869 57.9578 641.42 58.5252 641.978 59.0926C642.108 59.2292 642.239 59.3659 642.369 59.5025C642.456 59.5865 642.536 59.6706 642.623 59.7652C643.318 60.4692 644.021 61.1628 644.732 61.8353C644.746 61.8458 644.753 61.8563 644.768 61.8668C645.529 62.6024 646.297 63.3065 647.073 64.0105C647.094 64.0315 647.109 64.042 647.131 64.063C647.326 64.2417 647.515 64.3993 647.71 64.5674C648.276 65.0718 648.841 65.5762 649.406 66.0596C649.457 66.1016 649.501 66.1436 649.551 66.1857C649.783 66.3853 650.015 66.564 650.247 66.7531C650.762 67.184 651.276 67.6148 651.798 68.0351C651.885 68.1087 651.972 68.1823 652.059 68.2453C652.284 68.424 652.501 68.5921 652.726 68.7602C653.233 69.1595 653.74 69.5588 654.248 69.9476C654.378 70.0527 654.509 70.1578 654.639 70.2524C654.828 70.389 655.016 70.5256 655.204 70.6622C655.733 71.051 656.27 71.4398 656.799 71.8181C656.98 71.9442 657.154 72.0808 657.335 72.2069C657.466 72.3015 657.596 72.3855 657.726 72.4696C658.393 72.932 659.067 73.3838 659.734 73.8252C659.901 73.9303 660.067 74.0563 660.241 74.1614C660.285 74.1929 660.336 74.214 660.379 74.2455C661.35 74.876 662.314 75.4644 663.285 76.0424C663.372 76.0949 663.452 76.1475 663.539 76.2C663.872 76.3997 664.213 76.5783 664.546 76.778C664.807 76.9251 665.068 77.0827 665.329 77.2193C665.873 77.524 666.409 77.8078 666.945 78.0915C667.119 78.1861 667.293 78.2806 667.467 78.3752C667.489 78.3857 667.511 78.3962 667.532 78.4067C667.598 78.4383 667.663 78.4698 667.735 78.5013C668.656 78.9742 669.569 79.4155 670.475 79.8359C670.721 79.9515 670.975 80.067 671.221 80.1826C672.2 80.624 673.178 81.0443 674.142 81.4226C674.149 81.4226 674.157 81.4331 674.171 81.4331C674.229 81.4541 674.28 81.4751 674.338 81.4962C675.142 81.8114 675.947 82.1056 676.737 82.3788C676.998 82.4734 677.258 82.5575 677.519 82.6415C678.143 82.8517 678.766 83.0409 679.382 83.2195C679.636 83.2931 679.889 83.3666 680.143 83.4402C680.947 83.6609 681.745 83.8605 682.527 84.0392C682.564 84.0497 682.6 84.0602 682.636 84.0602C683.455 84.2388 684.26 84.3859 685.057 84.512C685.137 84.5225 685.223 84.5435 685.31 84.554C685.673 84.6066 686.021 84.6486 686.376 84.7012C686.514 84.7222 686.651 84.7432 686.782 84.7537C687.383 84.8273 687.97 84.8798 688.557 84.9218C688.702 84.9323 688.847 84.9323 688.992 84.9428C689.434 84.9639 689.869 84.9849 690.304 84.9954C690.5 84.9954 690.688 84.9954 690.884 84.9954C691.065 84.9954 691.246 85.0059 691.427 84.9954C691.594 84.9954 691.761 84.9744 691.927 84.9744C692.217 84.9639 692.5 84.9533 692.79 84.9323C693.101 84.9113 693.399 84.8798 693.703 84.8483C693.986 84.8168 694.261 84.7852 694.537 84.7537C694.66 84.7327 694.79 84.7327 694.913 84.7117C695.138 84.6801 695.348 84.6276 695.573 84.5961C695.732 84.5646 695.899 84.5435 696.058 84.512C696.559 84.4069 697.051 84.3019 697.537 84.1652C697.544 84.1652 697.551 84.1652 697.559 84.1547C698.037 84.0181 698.501 83.871 698.957 83.7134C699.081 83.6714 699.204 83.6188 699.32 83.5768C699.458 83.5242 699.595 83.4822 699.726 83.4297C700.008 83.3141 700.291 83.188 700.566 83.0619C700.588 83.0514 700.61 83.0409 700.632 83.0303C700.943 82.8832 701.255 82.7256 701.559 82.568C701.675 82.5049 701.791 82.4314 701.907 82.3684C701.987 82.3263 702.059 82.2843 702.139 82.2317C702.487 82.0321 702.82 81.8219 703.154 81.5907C703.19 81.5697 703.219 81.5382 703.248 81.5172C703.632 81.2439 704.009 80.9497 704.371 80.645C704.466 80.5714 704.538 80.5294 704.603 80.4769Z" fill="url(#paint5_linear_18509_13859)"/>
<path opacity="0.7" d="M701.581 71.02L630.476 23.7436C628.715 20.5911 627.207 17.4597 625.982 14.3913L707.567 68.6346C705.785 69.738 703.777 70.5261 701.581 71.02ZM715.866 54.0387L622.431 -8.08583C622.12 -6.15232 622.033 -4.0822 622.134 -1.91751L714.663 59.5976C715.272 57.8847 715.67 56.0143 715.866 54.0387ZM712.713 63.6012C713.141 62.9497 713.518 62.2562 713.858 61.5416L622.351 0.699054C622.475 1.72886 622.627 2.76916 622.83 3.841L712.713 63.6012ZM706.763 22.409L637.549 -23.6064C633.418 -22.8919 629.882 -21.1686 627.2 -18.3313C627.099 -18.2263 627.004 -18.1001 626.91 -17.9845L714.424 40.1994C712.909 34.525 710.322 28.4932 706.763 22.409Z" fill="url(#paint6_linear_18509_13859)"/>
</g>
<g opacity="0.5">
<path d="M71.7355 -15.9959C71.7355 -16.0116 71.7355 -16.0272 71.7113 -16.0272C71.6871 -16.0742 71.6628 -16.1211 71.6386 -16.168C71.6144 -16.215 71.5903 -16.2619 71.5661 -16.3088C71.5418 -16.3558 71.4933 -16.387 71.4691 -16.434C71.4691 -16.434 71.4691 -16.434 71.4691 -16.4496C71.4691 -16.4496 71.4691 -16.4496 71.4691 -16.4653C71.4449 -16.4966 71.4208 -16.5279 71.3723 -16.5591C71.3239 -16.5904 71.2997 -16.6374 71.2513 -16.6687C71.2029 -16.7 71.1545 -16.7312 71.1061 -16.7625C71.0819 -16.7782 71.0576 -16.7938 71.0334 -16.8095L58.469 -24.5693C58.6385 -24.4755 58.7596 -24.3503 58.8807 -24.2251C58.8807 -24.2251 58.8807 -24.2251 58.8807 -24.2095C59.0017 -24.0687 59.0985 -23.9279 59.1469 -23.7558L67.4505 -2.02506L80.0149 5.73478L71.7355 -15.9959Z" fill="url(#paint7_linear_18509_13859)"/>
<path d="M10.7291 58.6777L-34.5415 76.4503C-34.9772 76.6224 -35.3888 76.7632 -35.8004 76.8727C-35.8246 76.8727 -35.8245 76.8884 -35.8487 76.8884C-36.236 76.9979 -36.6234 77.0761 -36.9866 77.1387C-38.3907 77.3577 -39.5042 77.2169 -40.2305 76.7789L-27.6661 84.5387C-26.964 84.9768 -25.8263 85.1176 -24.4222 84.8986C-24.2043 84.8673 -23.9864 84.8204 -23.7443 84.7734C-23.599 84.7421 -23.4297 84.6952 -23.2602 84.6482C-23.236 84.6482 -23.2359 84.6326 -23.2117 84.6326C-23.1875 84.6326 -23.1875 84.6326 -23.1633 84.617C-23.018 84.57 -22.8486 84.5231 -22.7033 84.4762C-22.558 84.4292 -22.437 84.3823 -22.2918 84.3354C-22.1707 84.2884 -22.0496 84.2415 -21.9286 84.1946L23.3418 66.422L10.7291 58.6777Z" fill="url(#paint8_linear_18509_13859)"/>
<path d="M120.976 7.65841C120.976 7.61148 120.976 7.56455 121 7.51761C121 7.43939 121 7.3768 121 7.31422C121 7.25164 121 7.18907 120.976 7.12649C120.976 7.0952 120.951 7.06388 120.951 7.04824C120.951 7.03259 120.951 7.03261 120.951 7.01696C120.951 7.00132 120.951 6.97002 120.927 6.95437C120.903 6.90744 120.903 6.8449 120.879 6.79796C120.855 6.75103 120.83 6.70405 120.806 6.65712C120.782 6.61018 120.758 6.56327 120.734 6.53198C120.734 6.51633 120.709 6.50069 120.709 6.48504V6.46938C120.685 6.45374 120.685 6.42248 120.661 6.40684C120.637 6.3599 120.588 6.3286 120.564 6.29731C120.516 6.26602 120.492 6.21908 120.443 6.18779C120.395 6.1565 120.346 6.1252 120.298 6.07826C120.274 6.06262 120.249 6.04697 120.225 6.03133L107.661 -1.72852C107.855 -1.60336 108.024 -1.46255 108.145 -1.29046V-1.27482C108.266 -1.11838 108.339 -0.930619 108.387 -0.742881C108.387 -0.727236 108.387 -0.727253 108.387 -0.711608C108.436 -0.52387 108.436 -0.320487 108.411 -0.101459C108.411 -0.085814 108.411 -0.0701711 108.411 -0.0545262C108.387 0.148857 108.314 0.367891 108.242 0.586919C108.218 0.618209 108.218 0.649495 108.218 0.680785C108.169 0.805944 108.072 0.946763 108 1.08757C107.927 1.21273 107.879 1.33789 107.782 1.47869C107.685 1.60385 107.564 1.74464 107.467 1.88545C107.37 2.02625 107.274 2.1514 107.128 2.29221C106.886 2.54252 106.62 2.79286 106.329 3.04318C106.329 3.05882 106.305 3.0588 106.305 3.07445C105.99 3.34041 105.627 3.60637 105.24 3.87233L65.4407 30.3122L78.0051 38.0721L117.804 11.6322C117.829 11.6166 117.829 11.6165 117.853 11.6009C117.95 11.5383 118.047 11.4758 118.143 11.4132C118.24 11.3506 118.313 11.288 118.41 11.2254C118.506 11.1472 118.603 11.0846 118.7 11.0064C118.773 10.9595 118.821 10.9126 118.894 10.85C118.894 10.8343 118.918 10.8343 118.918 10.8187C118.942 10.803 118.966 10.7874 118.966 10.7717C119.063 10.6779 119.184 10.584 119.281 10.4901C119.426 10.365 119.547 10.2398 119.669 10.1147C119.693 10.099 119.693 10.0834 119.717 10.0677C119.838 9.92693 119.935 9.80177 120.056 9.67661C120.177 9.53581 120.298 9.41063 120.371 9.26983C120.467 9.14467 120.516 9.01951 120.588 8.87871C120.661 8.76919 120.734 8.64403 120.782 8.53452C120.782 8.51887 120.806 8.48757 120.806 8.47193C120.83 8.44064 120.83 8.40935 120.83 8.37806C120.855 8.28419 120.903 8.20599 120.927 8.11213C120.951 8.00261 120.976 7.90874 121 7.81487C121 7.78358 121 7.76791 121 7.73662C120.976 7.67404 120.976 7.65841 120.976 7.65841Z" fill="url(#paint9_linear_18509_13859)"/>
<path d="M65.4168 30.2656L53.8451 58.7862C53.7483 59.0209 53.6029 59.2399 53.4577 59.4589C53.4093 59.5371 53.3851 59.6154 53.3367 59.6936C53.143 59.9752 52.901 60.2568 52.6347 60.5384L52.6104 60.5541C52.3441 60.8357 52.0536 61.1017 51.7147 61.352C51.3758 61.618 51.0369 61.8682 50.6738 62.1029C50.3106 62.3376 49.9232 62.5566 49.5116 62.76C49.1243 62.9634 48.7127 63.1511 48.3012 63.3076C48.3012 63.3076 48.3013 63.3076 48.2771 63.3076C47.8656 63.464 47.454 63.6205 47.0424 63.73C46.6309 63.8552 46.2193 63.9334 45.8078 64.0116C45.0573 64.1367 44.331 64.1524 43.6774 64.0429L10.7534 58.6454L23.3178 66.4053L56.2418 71.8028C56.8954 71.9123 57.5975 71.881 58.3721 71.7715C58.59 71.7402 58.808 71.6932 59.0258 71.6463C59.2195 71.5994 59.4131 71.5524 59.6068 71.5055C59.7521 71.4586 59.8973 71.4116 60.0426 71.3647C60.1878 71.3178 60.3088 71.2708 60.4541 71.2239C60.5751 71.177 60.6962 71.13 60.8173 71.0831C60.8173 71.0831 60.8415 71.0831 60.8415 71.0674C60.8415 71.0674 60.8414 71.0674 60.8656 71.0674C60.9624 71.0362 61.0594 70.9892 61.1562 70.9423C61.2531 70.8954 61.374 70.8484 61.4708 70.8015C61.5676 70.7545 61.6887 70.7076 61.7855 70.6607C61.8824 70.6137 61.9792 70.5668 62.076 70.5199C62.1729 70.4729 62.2698 70.4103 62.3667 70.3634C62.4635 70.3165 62.5603 70.2539 62.6572 70.207C62.754 70.1601 62.8508 70.0975 62.9476 70.0505C63.0445 69.988 63.1413 69.941 63.2139 69.8784L63.2381 69.8628C63.3108 69.8159 63.4075 69.7533 63.4802 69.7063C63.577 69.6438 63.6496 69.5812 63.7464 69.5186C63.8433 69.456 63.916 69.3935 64.0128 69.3309C64.1097 69.2683 64.1823 69.1901 64.2791 69.1275C64.2791 69.1275 64.2791 69.1275 64.2791 69.1118C64.2791 69.1118 64.2791 69.1118 64.2791 69.0962C64.3759 69.0336 64.4485 68.9554 64.5211 68.8928C64.618 68.7989 64.7148 68.7207 64.8116 68.6268C64.9327 68.5173 65.0295 68.4078 65.1506 68.2983L65.1748 68.2827C65.1748 68.2827 65.1748 68.267 65.1991 68.267C65.4653 68.001 65.6832 67.7194 65.8768 67.4378C65.9252 67.3596 65.9737 67.2814 66.0221 67.2032C66.1431 67.0154 66.2642 66.812 66.361 66.6243C66.3852 66.593 66.3853 66.5617 66.4095 66.5304L77.9812 38.0098L65.4168 30.2656Z" fill="url(#paint10_linear_18509_13859)"/>
<path d="M105.603 -2.16618L67.4988 -2.00975L59.195 -23.7405C58.7593 -24.8513 57.1859 -25.1954 55.2491 -24.8982C53.3124 -24.6009 51.0609 -23.6466 49.2453 -22.176L14.1182 6.4385L-30.8134 19.4394C-35.4614 20.7848 -39.0442 24.6178 -37.3496 26.4327L-20.9361 43.9705L-40.4 73.7271C-42.0219 76.2147 -40.1821 77.6696 -36.9623 77.169C-36.2119 77.0438 -35.3887 76.8248 -34.493 76.4806L10.7774 58.708L43.7015 64.1055C44.3551 64.215 45.0572 64.1837 45.8319 64.0742C49.0759 63.5579 52.9251 61.1956 53.8935 58.8176L65.4652 30.2969L105.265 3.8571C109.307 1.11925 109.525 -2.18183 105.603 -2.16618Z" fill="url(#paint11_linear_18509_13859)"/>
<path opacity="0.7" d="M105.603 -2.16619L67.4988 -2.00975L59.1951 -23.7405C58.7593 -24.8513 57.1859 -25.1954 55.2491 -24.8982C53.3124 -24.6009 51.0609 -23.6466 49.2453 -22.176L14.1182 6.4385L-30.8134 19.4394C-35.4614 20.7848 -39.0442 24.6178 -37.3496 26.4326L-20.9361 43.9705L-40.4 73.7271C-42.0219 76.2147 -40.1821 77.6696 -36.9623 77.169C-36.2119 77.0438 -35.3887 76.8248 -34.493 76.4806L10.7774 58.708L43.7015 64.1055C44.3551 64.215 45.0572 64.1837 45.8319 64.0742C49.0759 63.5579 52.9251 61.1956 53.8935 58.8176L65.4652 30.2969L105.265 3.8571C109.307 1.11925 109.525 -2.18183 105.603 -2.16619ZM104.659 3.49725L64.7147 30.0309L53.0945 58.6767C52.223 60.7888 48.7368 63.0729 45.5897 63.5736C45.2266 63.6361 44.8635 63.6674 44.5487 63.6674C44.3067 63.6674 44.0646 63.6518 43.8467 63.6205L10.6081 58.1761L-34.9287 76.0582C-35.7276 76.3711 -36.4782 76.5901 -37.1803 76.6996C-37.5434 76.7622 -37.8823 76.7935 -38.2212 76.7935C-38.7538 76.7935 -39.5042 76.6996 -39.9157 76.2929C-40.4241 75.7922 -40.3516 74.9318 -39.7222 73.9461L-20.0889 43.9393L-36.6961 26.1823C-37.0834 25.7599 -37.1075 25.1185 -36.7444 24.3675C-35.8971 22.584 -33.2584 20.7223 -30.4986 19.9244L14.6024 6.87655L49.8505 -21.8318C51.4483 -23.1303 53.5302 -24.0847 55.4185 -24.3819C55.8058 -24.4445 56.169 -24.4758 56.5079 -24.4758C57.5489 -24.4758 58.2026 -24.1785 58.4205 -23.5997L66.8694 -1.49347L105.579 -1.6499C106.523 -1.6499 107.153 -1.43088 107.419 -0.992821C108.049 -0.101063 107.298 1.74502 104.659 3.49725Z" fill="url(#paint12_linear_18509_13859)"/>
</g>
</g>
<defs>
<filter id="filter0_d_18509_13859" x="567" y="-70" width="199" height="209" filterUnits="userSpaceOnUse" color-interpolation-filters="sRGB">
<feFlood flood-opacity="0" result="BackgroundImageFix"/>
<feColorMatrix in="SourceAlpha" type="matrix" values="0 0 0 0 0 0 0 0 0 0 0 0 0 0 0 0 0 0 127 0" result="hardAlpha"/>
<feOffset dy="4"/>
<feGaussianBlur stdDeviation="25"/>
<feColorMatrix type="matrix" values="0 0 0 0 0.0666666 0 0 0 0 0.0941176 0 0 0 0 0.286275 0 0 0 0.5 0"/>
<feBlend mode="normal" in2="BackgroundImageFix" result="effect1_dropShadow_18509_13859"/>
<feBlend mode="normal" in="SourceGraphic" in2="effect1_dropShadow_18509_13859" result="shape"/>
</filter>
<linearGradient id="paint0_linear_18509_13859" x1="704.394" y1="9.87213" x2="630.195" y2="23.7865" gradientUnits="userSpaceOnUse">
<stop offset="0.0317" stop-color="#FCE878"/>
<stop offset="0.0527" stop-color="#FCE676"/>
<stop offset="0.6976" stop-color="#FEB432"/>
<stop offset="1" stop-color="#FFA018"/>
</linearGradient>
<linearGradient id="paint1_linear_18509_13859" x1="612.325" y1="25.5415" x2="709.176" y2="24.134" gradientUnits="userSpaceOnUse">
<stop stop-color="#FFE6B9" stop-opacity="0"/>
<stop offset="0.3821" stop-color="#FFF3DE" stop-opacity="0.4239"/>
<stop offset="0.7037" stop-color="#FFFCF6" stop-opacity="0.7807"/>
<stop offset="0.9014" stop-color="white"/>
</linearGradient>
<linearGradient id="paint2_linear_18509_13859" x1="699.062" y1="19.7803" x2="632.793" y2="23.9738" gradientUnits="userSpaceOnUse">
<stop offset="0.0431" stop-color="#FFA018"/>
<stop offset="0.9874" stop-color="#D36B18"/>
</linearGradient>
<linearGradient id="paint3_linear_18509_13859" x1="618.8" y1="62.1295" x2="700.643" y2="32.1209" gradientUnits="userSpaceOnUse">
<stop stop-color="#FFB817"/>
<stop offset="0.9893" stop-color="#FFFFBC"/>
</linearGradient>
<linearGradient id="paint4_linear_18509_13859" x1="638.077" y1="24.7227" x2="707.892" y2="23.2277" gradientUnits="userSpaceOnUse">
<stop stop-color="#FFE6B9" stop-opacity="0"/>
<stop offset="0.3821" stop-color="#FFF3DE" stop-opacity="0.4239"/>
<stop offset="0.7037" stop-color="#FFFCF6" stop-opacity="0.7807"/>
<stop offset="0.9014" stop-color="white"/>
</linearGradient>
<linearGradient id="paint5_linear_18509_13859" x1="706.419" y1="81.2562" x2="603.074" y2="42.9971" gradientUnits="userSpaceOnUse">
<stop stop-color="#FFC826"/>
<stop offset="0.0945" stop-color="#FFA018"/>
<stop offset="0.2186" stop-color="#F8771E"/>
<stop offset="0.3662" stop-color="#EC6D1A"/>
<stop offset="0.6301" stop-color="#CD510E"/>
<stop offset="0.721" stop-color="#C14609"/>
<stop offset="0.7796" stop-color="#C64A0B"/>
<stop offset="0.8451" stop-color="#D35610"/>
<stop offset="0.9137" stop-color="#E96A18"/>
<stop offset="0.9495" stop-color="#F8771E"/>
<stop offset="0.9701" stop-color="#F87A1E"/>
<stop offset="0.9825" stop-color="#FA821C"/>
<stop offset="0.9927" stop-color="#FC901A"/>
<stop offset="1" stop-color="#FFA018"/>
</linearGradient>
<linearGradient id="paint6_linear_18509_13859" x1="629.396" y1="24.9" x2="725.51" y2="23.5394" gradientUnits="userSpaceOnUse">
<stop stop-color="#FFE6B9" stop-opacity="0"/>
<stop offset="0.9014" stop-color="white"/>
</linearGradient>
<linearGradient id="paint7_linear_18509_13859" x1="76.8486" y1="-16.4548" x2="67.0892" y2="5.24962" gradientUnits="userSpaceOnUse">
<stop offset="0.0394" stop-color="#FFC826"/>
<stop offset="0.1112" stop-color="#FFA018"/>
<stop offset="0.4264" stop-color="#F8771E"/>
<stop offset="0.5129" stop-color="#EC6D1A"/>
<stop offset="0.6677" stop-color="#CD510E"/>
<stop offset="0.721" stop-color="#C14609"/>
</linearGradient>
<linearGradient id="paint8_linear_18509_13859" x1="-59.805" y1="98.189" x2="15.8013" y2="4.44501" gradientUnits="userSpaceOnUse">
<stop offset="0.2285" stop-color="#FFC826"/>
<stop offset="0.294" stop-color="#FFA018"/>
<stop offset="0.4264" stop-color="#F8771E"/>
<stop offset="0.5129" stop-color="#EC6D1A"/>
<stop offset="0.6677" stop-color="#CD510E"/>
<stop offset="0.721" stop-color="#C14609"/>
</linearGradient>
<linearGradient id="paint9_linear_18509_13859" x1="130.054" y1="-8.11475" x2="94.6947" y2="55.6313" gradientUnits="userSpaceOnUse">
<stop offset="0.0394" stop-color="#FFC826"/>
<stop offset="0.2586" stop-color="#FFA018"/>
<stop offset="0.3314" stop-color="#F8771E"/>
<stop offset="0.4458" stop-color="#EC6D1A"/>
<stop offset="0.6505" stop-color="#CD510E"/>
<stop offset="0.721" stop-color="#C14609"/>
<stop offset="0.8348" stop-color="#C3480A"/>
<stop offset="0.8863" stop-color="#CA4E0D"/>
<stop offset="0.9252" stop-color="#D75A11"/>
<stop offset="0.9577" stop-color="#E96A18"/>
<stop offset="0.977" stop-color="#F8771E"/>
<stop offset="0.9864" stop-color="#F87A1E"/>
<stop offset="0.992" stop-color="#FA821C"/>
<stop offset="0.9967" stop-color="#FC901A"/>
<stop offset="1" stop-color="#FFA018"/>
</linearGradient>
<linearGradient id="paint10_linear_18509_13859" x1="97.809" y1="23.1865" x2="58.0493" y2="87.4819" gradientUnits="userSpaceOnUse">
<stop offset="0.0394" stop-color="#FFC826"/>
<stop offset="0.1112" stop-color="#FFA018"/>
<stop offset="0.272" stop-color="#F8771E"/>
<stop offset="0.3282" stop-color="#EF6F1B"/>
<stop offset="0.567" stop-color="#CE510E"/>
<stop offset="0.6973" stop-color="#C14609"/>
<stop offset="0.7136" stop-color="#C64E0A"/>
<stop offset="0.7382" stop-color="#D4620E"/>
<stop offset="0.768" stop-color="#EC8413"/>
<stop offset="0.7888" stop-color="#FFA018"/>
<stop offset="0.7904" stop-color="#FE9E18"/>
<stop offset="0.8278" stop-color="#E87F12"/>
<stop offset="0.8666" stop-color="#D7660E"/>
<stop offset="0.907" stop-color="#CB540B"/>
<stop offset="0.95" stop-color="#C3490A"/>
<stop offset="1" stop-color="#C14609"/>
</linearGradient>
<linearGradient id="paint11_linear_18509_13859" x1="-13.8739" y1="9.71703" x2="34.0386" y2="76.7956" gradientUnits="userSpaceOnUse">
<stop offset="0.0317" stop-color="#FCE878"/>
<stop offset="0.0527" stop-color="#FCE676"/>
<stop offset="0.6976" stop-color="#FEB432"/>
<stop offset="1" stop-color="#FFA018"/>
</linearGradient>
<linearGradient id="paint12_linear_18509_13859" x1="67.3673" y1="58.943" x2="21.4788" y2="-10.9285" gradientUnits="userSpaceOnUse">
<stop stop-color="#FFE6B9" stop-opacity="0"/>
<stop offset="0.3821" stop-color="#FFF3DE" stop-opacity="0.4239"/>
<stop offset="0.7037" stop-color="#FFFCF6" stop-opacity="0.7807"/>
<stop offset="0.9014" stop-color="white"/>
</linearGradient>
<clipPath id="clip0_18509_13859">
<rect width="744" height="693" fill="white"/>
</clipPath>
</defs>
</svg>
