<svg width="149" height="45" viewBox="0 0 149 45" fill="none" xmlns="http://www.w3.org/2000/svg">
<path d="M147.675 39.067C147.675 41.362 145.784 43.2211 143.446 43.2211H5.05896C2.72179 43.2211 0.824707 41.362 0.824707 39.067V5.93888C0.824707 3.64487 2.72179 1.7793 5.05896 1.7793H143.445C145.784 1.7793 147.674 3.64487 147.674 5.93888L147.675 39.067Z" fill="black"/>
<path d="M143 1.82988C145.546 1.82988 147.619 3.85807 147.619 6.35057V38.6508C147.619 41.1433 145.546 43.1715 143 43.1715H5.5C2.9535 43.1715 0.881375 41.1433 0.881375 38.6508V6.35057C0.881375 3.85807 2.9535 1.82988 5.5 1.82988H143ZM143 0.967196H5.5C2.47637 0.967196 0 3.39106 0 6.35057V38.6508C0 41.6103 2.47637 44.0342 5.5 44.0342H143C146.024 44.0342 148.5 41.6103 148.5 38.6508V6.35057C148.5 3.39106 146.024 0.967196 143 0.967196Z" fill="white"/>
<path d="M33.1405 22.2645C33.1086 18.7943 36.0434 17.1061 36.1776 17.0275C34.5155 14.6556 31.9393 14.3315 31.034 14.3057C28.8703 14.0828 26.7715 15.5729 25.6693 15.5729C24.5451 15.5729 22.8478 14.3272 21.0185 14.3638C18.6645 14.3994 16.4623 15.7334 15.2545 17.8049C12.7619 22.0287 14.6209 28.2357 17.009 31.6498C18.2036 33.3219 19.5995 35.1889 21.4266 35.1232C23.2141 35.0511 23.8818 34.0078 26.0389 34.0078C28.1762 34.0078 28.8032 35.1232 30.6666 35.0812C32.585 35.0511 33.7928 33.4016 34.9456 31.7144C36.3261 29.798 36.8805 27.9106 36.9025 27.8137C36.8574 27.7986 33.1768 26.4237 33.1405 22.2645Z" fill="white"/>
<path d="M29.6205 12.0597C30.5819 10.8829 31.2397 9.28193 31.0571 7.65723C29.6656 7.71752 27.9254 8.59932 26.9233 9.75028C26.0367 10.7645 25.2447 12.4269 25.4493 13.9902C27.0124 14.1044 28.6173 13.2183 29.6205 12.0597Z" fill="white"/>
<path d="M60.1725 27.5383H57.6744L56.306 23.3296H51.5496L50.2461 27.5383H47.814L52.5264 13.21H55.437L60.1725 27.5383ZM55.8935 21.5639L54.656 17.8224C54.5251 17.4402 54.2798 16.5401 53.9179 15.1232H53.8739C53.7298 15.7326 53.4977 16.6327 53.1787 17.8224L51.9632 21.5639H55.8935V21.5639Z" fill="white"/>
<path d="M72.2911 22.2461C72.2911 24.0032 71.806 25.3921 70.8358 26.4117C69.9668 27.3194 68.8877 27.7726 67.5996 27.7726C66.2092 27.7726 65.2104 27.2838 64.6021 26.3062H64.5581V31.7488H62.2129V20.6084C62.2129 19.5038 62.1832 18.37 62.126 17.2072H64.1885L64.3194 18.8448H64.3634C65.1455 17.611 66.3324 16.9951 67.9252 16.9951C69.1704 16.9951 70.2099 17.4764 71.0415 18.44C71.8753 19.4047 72.2911 20.673 72.2911 22.2461ZM69.9019 22.33C69.9019 21.3244 69.6709 20.4954 69.2067 19.8429C68.6996 19.1625 68.0187 18.8222 67.1651 18.8222C66.5865 18.8222 66.0607 19.0117 65.591 19.3853C65.1202 19.7622 64.8122 20.2542 64.6681 20.8636C64.5955 21.1479 64.5592 21.3804 64.5592 21.5634V23.2861C64.5592 24.0376 64.7946 24.6718 65.2654 25.1897C65.7362 25.7076 66.3478 25.966 67.1002 25.966C67.9835 25.966 68.671 25.6322 69.1627 24.9668C69.6555 24.3004 69.9019 23.4218 69.9019 22.33Z" fill="white"/>
<path d="M84.4311 22.2461C84.4311 24.0032 83.946 25.3921 82.9747 26.4117C82.1068 27.3194 81.0277 27.7726 79.7396 27.7726C78.3492 27.7726 77.3504 27.2838 76.7432 26.3062H76.6992V31.7488H74.354V20.6084C74.354 19.5038 74.3243 18.37 74.2671 17.2072H76.3296L76.4605 18.8448H76.5045C77.2855 17.611 78.4724 16.9951 80.0663 16.9951C81.3104 16.9951 82.3499 17.4764 83.1837 18.44C84.0142 19.4047 84.4311 20.673 84.4311 22.2461ZM82.0419 22.33C82.0419 21.3244 81.8098 20.4954 81.3456 19.8429C80.8385 19.1625 80.1598 18.8222 79.3051 18.8222C78.7254 18.8222 78.2007 19.0117 77.7299 19.3853C77.2591 19.7622 76.9522 20.2542 76.8081 20.8636C76.7366 21.1479 76.6992 21.3804 76.6992 21.5634V23.2861C76.6992 24.0376 76.9346 24.6718 77.4032 25.1897C77.874 25.7065 78.4856 25.966 79.2402 25.966C80.1235 25.966 80.811 25.6322 81.3027 24.9668C81.7955 24.3004 82.0419 23.4218 82.0419 22.33Z" fill="white"/>
<path d="M98.0054 23.5202C98.0054 24.739 97.5731 25.7306 96.7052 26.4961C95.7515 27.3327 94.4238 27.7504 92.7177 27.7504C91.1425 27.7504 89.8797 27.4533 88.9238 26.8579L89.4672 24.9446C90.4968 25.554 91.6265 25.8598 92.8574 25.8598C93.7407 25.8598 94.4282 25.6638 94.9221 25.2741C95.4138 24.8843 95.6591 24.3611 95.6591 23.7086C95.6591 23.1272 95.4567 22.6373 95.0508 22.24C94.6471 21.8427 93.9728 21.4734 93.0312 21.1321C90.4682 20.1965 89.1878 18.8259 89.1878 17.0235C89.1878 15.8457 89.6366 14.8799 90.5353 14.1284C91.4307 13.3758 92.6253 13 94.1191 13C95.4512 13 96.5578 13.2272 97.4411 13.6805L96.8548 15.5517C96.0298 15.1124 95.097 14.8928 94.0531 14.8928C93.2281 14.8928 92.5835 15.092 92.1215 15.4882C91.731 15.8424 91.5352 16.2742 91.5352 16.7856C91.5352 17.3519 91.7585 17.8203 92.2073 18.1885C92.5978 18.5287 93.3073 18.8969 94.3369 19.2942C95.5964 19.7906 96.5215 20.3709 97.1166 21.0363C97.7095 21.6995 98.0054 22.5296 98.0054 23.5202Z" fill="white"/>
<path d="M105.759 18.9308H103.174V23.947C103.174 25.2229 103.63 25.8603 104.543 25.8603C104.962 25.8603 105.31 25.8247 105.585 25.7537L105.649 27.4968C105.187 27.6659 104.579 27.7509 103.826 27.7509C102.899 27.7509 102.176 27.4742 101.653 26.9219C101.133 26.3685 100.871 25.4404 100.871 24.1365V18.9286H99.3311V17.206H100.871V15.3142L103.174 14.6338V17.206H105.759V18.9308Z" fill="white"/>
<path d="M117.422 22.287C117.422 23.8751 116.958 25.1789 116.032 26.1985C115.06 27.2483 113.771 27.7716 112.164 27.7716C110.615 27.7716 109.382 27.2687 108.462 26.2631C107.543 25.2575 107.083 23.9881 107.083 22.4582C107.083 20.8571 107.556 19.5458 108.505 18.5261C109.452 17.5055 110.731 16.9951 112.338 16.9951C113.887 16.9951 115.133 17.4979 116.073 18.5046C116.973 19.4812 117.422 20.7419 117.422 22.287ZM114.989 22.3613C114.989 21.4084 114.781 20.5912 114.36 19.9097C113.868 19.0849 113.165 18.6737 112.254 18.6737C111.311 18.6737 110.595 19.086 110.104 19.9097C109.682 20.5923 109.474 21.4224 109.474 22.4043C109.474 23.3572 109.682 24.1744 110.104 24.8548C110.611 25.6796 111.319 26.0909 112.233 26.0909C113.129 26.0909 113.832 25.671 114.339 24.8333C114.771 24.1389 114.989 23.313 114.989 22.3613Z" fill="white"/>
<path d="M125.046 19.226C124.814 19.184 124.566 19.1625 124.307 19.1625C123.482 19.1625 122.844 19.4672 122.395 20.0776C122.004 20.616 121.809 21.2964 121.809 22.1179V27.539H119.464L119.486 20.4609C119.486 19.2701 119.457 18.1859 119.398 17.2083H121.441L121.527 19.1851H121.592C121.839 18.5057 122.23 17.9587 122.764 17.5485C123.287 17.1792 123.851 16.9951 124.46 16.9951C124.676 16.9951 124.872 17.0102 125.046 17.0371V19.226Z" fill="white"/>
<path d="M135.534 21.8841C135.534 22.2954 135.507 22.6421 135.448 22.9253H128.413C128.44 23.946 128.78 24.7266 129.434 25.2649C130.026 25.7462 130.793 25.9874 131.735 25.9874C132.776 25.9874 133.727 25.8248 134.582 25.4985L134.949 27.092C133.95 27.5184 132.771 27.7305 131.41 27.7305C129.773 27.7305 128.489 27.2589 127.554 26.3168C126.621 25.3747 126.153 24.1096 126.153 22.5226C126.153 20.9647 126.588 19.6673 127.458 18.6326C128.369 17.5279 129.6 16.9756 131.148 16.9756C132.67 16.9756 133.821 17.5279 134.604 18.6326C135.223 19.5101 135.534 20.5954 135.534 21.8841ZM133.298 21.2887C133.313 20.6083 133.16 20.0204 132.842 19.5241C132.437 18.8856 131.813 18.5669 130.974 18.5669C130.207 18.5669 129.583 18.8781 129.107 19.5025C128.716 19.9989 128.484 20.5943 128.413 21.2877H133.298V21.2887Z" fill="white"/>
</svg>
