<svg width="16" height="17" viewBox="0 0 16 17" fill="none" xmlns="http://www.w3.org/2000/svg">
<path d="M8.19533 4.17761C8.32035 4.05263 8.48989 3.98242 8.66667 3.98242C8.84344 3.98242 9.01298 4.05263 9.138 4.17761L13.138 8.17761C13.263 8.30263 13.3332 8.47217 13.3332 8.64895C13.3332 8.82572 13.263 8.99526 13.138 9.12028L9.138 13.1203C9.01226 13.2417 8.84386 13.3089 8.66906 13.3074C8.49427 13.3059 8.32706 13.2358 8.20345 13.1122C8.07985 12.9886 8.00974 12.8213 8.00822 12.6465C8.0067 12.4717 8.07389 12.3033 8.19533 12.1776L11.0573 9.31561H3.33333C3.15652 9.31561 2.98695 9.24538 2.86193 9.12035C2.7369 8.99533 2.66667 8.82576 2.66667 8.64895C2.66667 8.47214 2.7369 8.30257 2.86193 8.17754C2.98695 8.05252 3.15652 7.98228 3.33333 7.98228H11.0573L8.19533 5.12028C8.07035 4.99526 8.00014 4.82572 8.00014 4.64895C8.00014 4.47217 8.07035 4.30263 8.19533 4.17761Z" fill="white"/>
</svg>
