<svg width="150" height="88" viewBox="0 0 150 88" fill="none" xmlns="http://www.w3.org/2000/svg">
<g opacity="0.8">
<path d="M123.861 1.18509C118.499 3.46138 114.114 6.29346 111.351 9.00923C109.969 10.3689 109.019 11.6735 108.542 12.8387C108.064 14.0041 108.085 14.9573 108.501 15.6988C108.917 16.4402 109.768 17.0412 111.117 17.431C112.466 17.8207 114.232 17.9724 116.315 17.8607C120.475 17.6375 125.739 16.3725 131.101 14.0962C136.462 11.82 140.848 8.98786 143.61 6.27209C144.993 4.91243 145.942 3.60784 146.42 2.44267C146.898 1.27719 146.877 0.323969 146.461 -0.417492C146.045 -1.15896 145.195 -1.75985 143.845 -2.14969C142.496 -2.53942 140.73 -2.69106 138.647 -2.57933C134.487 -2.35614 129.223 -1.0912 123.861 1.18509Z" fill="#61399F" stroke="#61399F" stroke-width="1.40059"/>
<path d="M110.486 18.9553L107.774 15.8822L111.819 17.9616L110.486 18.9553Z" fill="#0E9AA7"/>
<path d="M123.585 0.717449C118.19 3.00835 113.583 5.54759 110.496 7.79334C108.95 8.91854 107.808 9.95447 107.135 10.8336C106.798 11.2733 106.594 11.6541 106.507 11.9703C106.42 12.2829 106.453 12.5008 106.54 12.6566C106.628 12.8125 106.805 12.9698 107.141 13.1026C107.482 13.2369 107.952 13.3317 108.557 13.3714C109.768 13.4509 111.41 13.3046 113.38 12.9365C117.314 12.2019 122.45 10.6049 127.845 8.314C133.241 6.0231 137.848 3.48385 140.935 1.2381C142.481 0.112907 143.624 -0.923035 144.297 -1.80208C144.633 -2.2419 144.837 -2.62264 144.925 -2.93881C145.012 -3.25145 144.978 -3.46931 144.891 -3.6252C144.803 -3.78108 144.627 -3.93832 144.29 -4.07117C143.949 -4.20551 143.479 -4.30021 142.874 -4.33996C141.664 -4.4194 140.021 -4.27313 138.05 -3.90505C134.117 -3.1704 128.981 -1.57345 123.585 0.717449Z" fill="#7ACECE" stroke="#61399F" stroke-width="0.976997"/>
<path d="M5.92309 59.0741C8.68257 60.1977 11.8304 58.8715 12.954 56.112C14.0775 53.3525 12.7513 50.2047 9.99187 49.0811C7.23239 47.9576 4.08456 49.2838 2.961 52.0432C1.83744 54.8027 3.16361 57.9505 5.92309 59.0741Z" fill="#FCBC69" stroke="#41246E" stroke-width="1.07617"/>
<path d="M81.5584 32.1825C79.4446 22.1415 72.5143 19.1827 68.5774 19.0693L66.4599 23.7446C74.8329 26.1455 75.0944 29.2548 78.4215 39.1089C81.0839 46.9923 89.3179 51.0923 93.1022 52.1569L95.5067 46.8466C91.248 46.2162 83.5013 41.4093 81.5584 32.1825Z" fill="#269797" stroke="#41246E" stroke-width="0.708241"/>
<path d="M25.1525 14.2168C29.7632 11.7133 33.2421 8.23196 35.1566 4.65876C37.0738 1.07969 37.3874 -2.50994 35.8487 -5.34332C34.31 -8.1767 31.1282 -9.86843 27.0825 -10.2093C23.0432 -10.5495 18.2286 -9.52704 13.6187 -7.02352C9.008 -4.51999 5.52915 -1.03866 3.61463 2.53454C1.69738 6.11362 1.38378 9.70322 2.92252 12.5366C4.46127 15.37 7.64298 17.0618 11.6887 17.4026C15.728 17.7428 20.5426 16.7204 25.1525 14.2168Z" fill="white" stroke="#61399F" stroke-width="1.33817"/>
<path d="M27.0779 17.7277C31.7179 15.208 35.2279 11.7001 37.1634 8.08736C39.1008 4.47054 39.4364 0.805665 37.8546 -2.10685C36.2738 -5.01937 33.0172 -6.73349 28.9285 -7.07789C24.8444 -7.42189 19.9904 -6.38798 15.3504 -3.86831C10.7104 -1.34864 7.20046 2.1593 5.26492 5.77201C3.32755 9.3888 2.99201 13.0537 4.57372 15.9663C6.15452 18.8787 9.41121 20.5928 13.4999 20.9372C17.584 21.2813 22.438 20.2473 27.0779 17.7277Z" fill="#FD8E6E" stroke="#61399F" stroke-width="0.933449"/>
<path d="M173.697 69.9878L174.177 66.2738L167.043 66.958L123.804 72.1314C121.907 75.6283 122.828 77.1925 124.265 77.3779L138.956 75.6975C139.826 75.598 140.616 76.2129 140.732 77.0806L141.775 84.8365L141.779 84.863C141.847 85.3778 142.024 85.8875 142.391 86.2552C144.478 88.3462 146.995 86.1843 147.969 84.8275C149.706 82.412 153.351 77.1213 154.591 75.7302C156.726 73.333 157.407 73.5838 158.998 73.1449L172.003 71.6574C172.885 71.5567 173.584 70.8678 173.697 69.9878Z" fill="#E4A553" stroke="#61399F" stroke-width="1.11246"/>
<path d="M142.384 86.2552C143.507 87.4013 144.587 87.1394 145.173 86.9354L145.128 83.5575L145.379 70.4225L123.664 71.9532C121.833 76.2114 122.911 77.2618 124.255 77.3284L138.959 75.6926C139.827 75.596 140.614 76.2105 140.73 77.0763L141.773 84.8369L141.777 84.8658C141.846 85.3792 142.021 85.8853 142.384 86.2552Z" fill="#AE7123" stroke="#61399F" stroke-width="1.11246"/>
<path d="M170.011 68.0733C172.702 67.7787 174.645 65.2338 172.846 64.3594L164.533 60.3169C163.722 59.9228 163.62 59.0759 164.28 58.2248L170.891 49.7049C172.349 47.8257 169.984 46.6256 167.423 47.9446L155.553 54.0554C154.421 54.6388 153.129 54.7721 152.337 54.3872L143.984 50.3258C142.186 49.4513 138.748 51.2691 138.966 52.9786L139.98 60.8935C140.078 61.658 139.371 62.5847 138.228 63.1888L126.396 69.4445C123.84 70.7955 124.135 73.0956 126.826 72.801L139.285 71.4371C140.488 71.3053 141.369 71.7337 141.467 72.4982L142.481 80.4132C142.699 82.1226 146.32 81.7263 147.765 79.8348L154.451 71.0768C155.096 70.231 156.348 69.569 157.552 69.4373L170.011 68.0733Z" fill="white" stroke="#61399F" stroke-width="1.11246"/>
<path d="M170.088 67.7319C172.357 67.5225 174.037 65.3521 172.494 64.6239L163.648 60.4503C163.28 60.276 162.798 60.2033 162.261 60.2405L152.553 60.9108L141.796 61.9675C141.172 62.0289 140.512 62.2314 139.915 62.545L126.376 69.6656C124.277 70.7689 124.519 72.6568 126.726 72.4101L139.564 70.9754C140.811 70.8361 141.731 71.2695 141.855 72.0534L143.226 80.7523C143.402 81.8658 145.772 81.5998 146.736 80.3585L154.18 70.7692C154.863 69.8903 156.168 69.2061 157.419 69.0709L168.184 67.9077L170.088 67.7319Z" fill="#F9C37E"/>
</g>
</svg>
