<svg width="439" height="375" viewBox="0 0 439 375" fill="none" xmlns="http://www.w3.org/2000/svg">
<path fill-rule="evenodd" clip-rule="evenodd" d="M227.268 22.8859C282.104 21.0384 342.244 -2.83911 385.394 31.0581C430.895 66.8024 439.13 131.348 438.998 189.217C438.868 246.931 431.241 312.572 384.678 346.66C340.657 378.887 280.661 355.408 227.268 344.219C188.158 336.024 151.997 321.011 124.389 292.117C97.4845 263.958 86.0398 227.555 79.1683 189.217C70.1297 138.787 45.3799 79.6261 79.4467 41.3655C113.779 2.80719 175.675 24.624 227.268 22.8859Z" fill="#007BFF" fill-opacity="0.1"/>
<path fill-rule="evenodd" clip-rule="evenodd" d="M160.746 1.38789C211.472 5.3778 252.736 35.7448 290.818 69.4561C332.38 106.248 379.733 144.119 384.428 199.395C389.383 257.732 361.801 318.273 314.938 353.43C272.043 385.61 213.938 374.145 160.746 367.201C116.614 361.44 68.439 353.736 42.1977 317.823C17.963 284.658 43.2123 240.142 38.1289 199.395C31.4789 146.092 -19.8471 92.9263 8.44129 47.2452C37.4408 0.415647 105.794 -2.93447 160.746 1.38789Z" fill="#007BFF" fill-opacity="0.1"/>
</svg>
