<svg width="1440" height="836" viewBox="0 0 1440 836" fill="none" xmlns="http://www.w3.org/2000/svg">
<rect width="1440" height="836" fill="white"/>
<g style="mix-blend-mode:luminosity" filter="url(#filter0_d_19723_13953)">
<path d="M1437.91 67.8632C1429.55 92.3002 1393.31 86.9231 1356.98 55.8417C1320.65 24.7602 1297.97 -20.2377 1306.34 -44.6869C1314.71 -69.1239 1350.94 -63.7344 1387.27 -32.653C1423.61 -1.57161 1446.28 43.4263 1437.91 67.8632Z" fill="url(#paint0_linear_19723_13953)"/>
<path opacity="0.7" d="M1387.27 -32.6413C1350.94 -63.7227 1314.71 -69.1121 1306.34 -44.6752C1297.97 -20.2383 1320.65 24.772 1356.98 55.8534C1393.31 86.9348 1429.55 92.3119 1437.91 67.875C1446.28 43.4257 1423.61 -1.57219 1387.27 -32.6413ZM1437.31 67.5304C1433.59 78.3954 1424.02 83.6495 1410.35 82.3452C1394.92 80.8686 1375.59 71.0373 1357.29 55.3981C1321.26 24.5751 1298.69 -20.1644 1306.95 -44.343C1310.68 -55.2079 1320.25 -60.462 1333.92 -59.1454C1349.35 -57.6689 1368.69 -47.8375 1386.99 -32.1983C1423.01 -1.37532 1445.58 43.3642 1437.31 67.5304Z" fill="url(#paint1_linear_19723_13953)"/>
<path d="M1365.74 29.8179L1370.7 39.637L1362.78 38.4311L1357.81 28.6121L1365.74 29.8179ZM1386.11 -5.38556L1381.15 -15.2046L1373.22 -16.4105L1378.19 -6.57911L1386.11 -5.38556ZM1430.21 61.4407C1422.86 82.9246 1390.74 78.0642 1358.62 50.5881C1326.5 23.1119 1306.35 -16.7304 1313.71 -38.2142C1321.06 -59.6981 1353.18 -54.8131 1385.29 -27.337C1417.43 0.13921 1437.56 39.9569 1430.21 61.4407ZM1384.09 -23.7932C1354.89 -48.7716 1325.7 -53.2135 1319.01 -33.6861C1312.32 -14.1587 1330.65 22.066 1359.84 47.0443C1389.04 72.0227 1418.23 76.44 1424.91 56.9126C1431.6 37.3852 1413.3 1.17281 1384.09 -23.7932ZM1393.01 11.2011C1380.9 0.840584 1374.91 2.00952 1369.2 3.64603C1365.24 4.65501 1362.48 6.98057 1357.64 2.84622C1355.1 0.668308 1354.25 -1.96486 1354.81 -3.60138C1355.43 -5.41015 1359.29 -5.12716 1365.39 -1.2266C1365.53 -1.43578 1365.7 -1.7926 1365.86 -2.29709C1366.45 -4.03204 1367.12 -7.37889 1367.15 -11.2179C1362.76 -14.9831 1347.51 -28.026 1345.59 -29.5026C1345.59 -29.5026 1342.56 -22.8704 1342.28 -22.735C1342.26 -22.6735 1345.63 -19.6589 1347.45 -17.9609C1346.34 -18.2439 1344.13 -18.1577 1342.16 -16.6196C1338.49 -19.622 1332.88 -24.0393 1332.84 -23.9286C1332.81 -23.8424 1331.65 -21.1477 1331.12 -19.5851C1330.92 -18.9944 1330.81 -18.5638 1330.88 -18.5022C1331.13 -18.2931 1335.59 -14.331 1339.18 -11.4025C1337.82 -5.52091 1343 5.56554 1352.24 13.4774C1362.67 22.3859 1368.62 21.9799 1374.76 20.7248C1379.92 19.7158 1383.24 17.058 1386.3 19.6789C1389.68 22.5705 1389.73 25.3267 1389.38 26.348C1388.78 28.1076 1386.25 28.4275 1381.24 24.5023C1381.11 24.3916 1380.61 25.5236 1380.1 27.0371C1379.21 29.6333 1378.25 33.3862 1379.06 34.063C1381.77 36.3886 1397.79 51.3387 1398.06 51.2033C1400.03 50.3051 1401.24 47.4258 1401.77 45.8877C1401.97 45.2848 1402.07 44.891 1402.07 44.891L1398.14 41.0151C1399.18 41.1751 1400.53 40.7936 1401.69 39.8831C1403.92 41.7165 1410.55 47.315 1410.99 47.6227C1411.08 47.6842 1411.18 47.5242 1411.28 47.2166C1411.72 45.9369 1412.22 42.1471 1411.88 41.8026C1411.57 41.4581 1406.61 37.3606 1404.3 35.4534C1406.23 27.9968 1401.07 18.0793 1393.01 11.2011Z" fill="url(#paint2_linear_19723_13953)"/>
<path d="M1366.67 29.1519L1371.63 38.971L1363.71 37.7651L1358.73 27.9461L1366.67 29.1519ZM1387.04 -6.05156L1382.08 -15.8706L1374.14 -17.0765L1379.12 -7.24511L1387.04 -6.05156ZM1431.14 60.7747C1423.78 82.2586 1391.67 77.3983 1359.55 49.9221C1327.43 22.4459 1307.28 -17.3964 1314.63 -38.8802C1321.99 -60.3641 1354.11 -55.4791 1386.22 -28.003C1418.36 -0.539097 1438.49 39.2909 1431.14 60.7747ZM1385.02 -24.4715C1355.82 -49.4499 1326.62 -53.8918 1319.93 -34.3644C1313.24 -14.837 1331.57 21.3877 1360.76 46.366C1389.97 71.3444 1419.16 75.7617 1425.84 56.2343C1432.53 36.7069 1414.22 0.506786 1385.02 -24.4715ZM1393.94 10.5227C1381.82 0.162258 1375.84 1.3312 1370.12 2.96771C1366.16 3.97669 1363.41 6.30225 1358.57 2.1679C1356.03 -0.0100136 1355.18 -2.64319 1355.74 -4.2797C1356.35 -6.08847 1360.21 -5.80548 1366.31 -1.90492C1366.45 -2.1141 1366.63 -2.47092 1366.79 -2.97541C1367.38 -4.71036 1368.04 -8.05722 1368.08 -11.8963C1363.68 -15.6615 1348.44 -28.7043 1346.52 -30.1809C1346.52 -30.1809 1343.49 -23.5487 1343.21 -23.4134C1343.19 -23.3518 1346.56 -20.3372 1348.37 -18.6392C1347.27 -18.9222 1345.05 -18.836 1343.09 -17.298C1339.42 -20.3003 1333.8 -24.7176 1333.77 -24.6069C1333.74 -24.5208 1332.58 -21.8261 1332.05 -20.2634C1331.85 -19.6728 1331.74 -19.2421 1331.81 -19.1806C1332.06 -18.9714 1336.52 -15.0093 1340.11 -12.0808C1338.75 -6.19921 1343.93 4.88721 1353.17 12.7991C1363.6 21.7076 1369.55 21.3016 1375.69 20.0465C1380.85 19.0375 1384.17 16.3797 1387.22 19.0006C1390.61 21.8922 1390.66 24.6484 1390.31 25.6697C1389.71 27.4293 1387.17 27.7492 1382.16 23.824C1382.04 23.7133 1381.54 24.8453 1381.02 26.3587C1380.13 28.955 1379.18 32.7079 1379.98 33.3847C1382.7 35.7103 1398.71 50.6603 1398.99 50.525C1400.96 49.6268 1402.17 46.7475 1402.7 45.2094C1402.9 44.6065 1403 44.2127 1403 44.2127L1399.06 40.3368C1400.1 40.4967 1401.46 40.1153 1402.62 39.2048C1404.85 41.0381 1411.48 46.6367 1411.92 46.9443C1412.01 47.0059 1412.11 46.8459 1412.21 46.5383C1412.64 45.2463 1413.15 41.4688 1412.81 41.1243C1412.49 40.7797 1407.53 36.6823 1405.23 34.7751C1407.16 27.3185 1402 17.4133 1393.94 10.5227Z" fill="url(#paint3_linear_19723_13953)"/>
<path opacity="0.7" d="M1393.94 10.5233C1381.82 0.162849 1375.84 1.33179 1370.12 2.9683C1366.16 3.97728 1363.41 6.30283 1358.57 2.16849C1356.03 -0.00942612 1355.18 -2.6426 1355.74 -4.27911C1356.35 -6.08789 1360.21 -5.80489 1366.31 -1.90433C1366.45 -2.11351 1366.63 -2.47034 1366.79 -2.97483C1367.38 -4.70977 1368.04 -8.05663 1368.08 -11.8957C1363.68 -15.6609 1348.44 -28.7037 1346.52 -30.1803C1346.52 -30.1803 1343.49 -23.5481 1343.21 -23.4128C1343.19 -23.3512 1346.56 -20.3366 1348.37 -18.6386C1347.27 -18.9216 1345.05 -18.8355 1343.09 -17.2974C1339.42 -20.2997 1333.8 -24.7171 1333.77 -24.6063C1333.74 -24.5202 1332.58 -21.8255 1332.05 -20.2628C1331.85 -19.6722 1331.74 -19.2415 1331.81 -19.18C1332.06 -18.9708 1336.52 -15.0087 1340.1 -12.0802C1338.75 -6.19862 1343.93 4.88781 1353.17 12.7997C1363.6 21.7082 1369.55 21.3021 1375.69 20.0471C1380.85 19.0381 1384.17 16.3803 1387.22 19.0012C1390.61 21.8928 1390.66 24.649 1390.31 25.6703C1389.7 27.4298 1387.17 27.7498 1382.16 23.8246C1382.04 23.7139 1381.54 24.8459 1381.02 26.3593C1380.13 28.9556 1379.18 32.7085 1379.98 33.3853C1382.7 35.7108 1398.71 50.6609 1398.99 50.5256C1400.96 49.6273 1402.17 46.7481 1402.7 45.21C1402.9 44.6071 1403 44.2133 1403 44.2133L1399.06 40.3374C1400.1 40.4973 1401.46 40.1159 1402.62 39.2053C1404.85 41.0387 1411.48 46.6373 1411.92 46.9449C1412.01 47.0064 1412.11 46.8465 1412.21 46.5389C1412.64 45.2592 1413.15 41.4694 1412.81 41.1249C1412.49 40.7803 1407.53 36.6829 1405.23 34.7757C1407.16 27.3191 1402 17.4139 1393.94 10.5233ZM1412.56 41.3709C1412.71 41.7647 1412.32 45.1361 1411.87 46.4281C1411.87 46.4281 1411.87 46.4281 1411.87 46.4405C1411.1 45.8252 1409.04 44.0903 1407.18 42.5276C1405.49 41.1125 1403.81 39.6975 1402.88 38.9346L1402.65 38.7378L1402.41 38.9223C1401.42 39.6852 1400.25 40.0913 1399.28 39.9928L1398 39.8083L1402.58 44.3364C1402.53 44.5086 1402.46 44.7793 1402.35 45.1115C1401.93 46.3174 1400.81 49.1598 1399.01 50.1195C1398 49.3566 1392.45 44.2748 1387.96 40.1405C1384.54 37.0028 1381.32 34.0497 1380.23 33.1146C1379.81 32.7454 1380.12 30.1738 1381.39 26.4824C1381.75 25.4242 1382.05 24.6982 1382.24 24.3414C1384.59 26.1379 1386.55 27.1222 1388.05 27.2576C1389.35 27.3806 1390.31 26.8392 1390.67 25.781C1391.1 24.5383 1390.91 21.6467 1387.47 18.7182C1386.66 18.0168 1385.77 17.6354 1384.77 17.5369C1383.25 17.3893 1381.65 17.9184 1379.78 18.5213C1378.55 18.9274 1377.15 19.3826 1375.62 19.6902C1373.08 20.2193 1370.9 20.5146 1368.48 20.2809C1363.88 19.8379 1359.1 17.377 1353.44 12.529C1343.85 4.32181 1339.25 -6.58007 1340.49 -11.9941L1340.54 -12.2156L1340.37 -12.3632C1338.31 -14.0367 1335.64 -16.3253 1332.41 -19.1554L1332.2 -19.3399C1332.22 -19.4507 1332.27 -19.6845 1332.44 -20.1397C1332.85 -21.3579 1333.65 -23.2528 1333.99 -24.0772C1335.06 -23.2774 1339.53 -19.746 1342.89 -17.0021L1343.12 -16.8052L1343.36 -16.9898C1345.24 -18.4786 1347.2 -18.4171 1347.76 -18.3556C1347.97 -18.331 1348.16 -18.3064 1348.32 -18.2571L1348.67 -18.8847C1347.91 -19.5984 1346.88 -20.5458 1345.93 -21.4071C1345.03 -22.2315 1344.1 -23.0805 1343.73 -23.4374C1344.08 -24.0034 1344.84 -25.5045 1346.69 -29.5774C1348.67 -27.9778 1355.74 -21.9731 1367.73 -11.7111C1367.68 -7.92128 1367.02 -4.69747 1366.46 -3.07327C1366.36 -2.77795 1366.28 -2.56879 1366.2 -2.40882C1363.09 -4.35295 1360.4 -5.48497 1358.38 -5.66954C1356.25 -5.87872 1355.6 -4.94356 1355.4 -4.37755C1354.83 -2.70412 1355.51 0.0520973 1358.35 2.4761C1360.1 3.97726 1361.68 4.74015 1363.33 4.90011C1365.01 5.06007 1366.5 4.55558 1368.08 4.01418C1368.77 3.78039 1369.48 3.53431 1370.24 3.34974C1372.62 2.67299 1374.97 2.08237 1377.8 2.35307C1382.43 2.79603 1387.47 5.49073 1393.71 10.8186C1402.07 17.9676 1406.67 27.7867 1404.9 34.7019L1404.84 34.9233L1405.01 35.071C1409.45 38.7255 1412.34 41.1495 1412.56 41.3709ZM1358.73 27.9466L1363.71 37.7657L1371.63 38.9715L1366.67 29.1525L1358.73 27.9466ZM1363.96 37.4335L1359.4 28.4142L1366.41 29.4847L1370.96 38.4917L1363.96 37.4335ZM1386.23 -28.0147C1354.11 -55.4909 1322 -60.3758 1314.65 -38.892C1307.29 -17.4081 1327.44 22.4342 1359.56 49.9103C1391.68 77.3865 1423.79 82.2468 1431.15 60.763C1438.49 39.2915 1418.36 -0.538525 1386.23 -28.0147ZM1430.79 60.6522C1427.53 70.176 1419.1 74.7902 1407.04 73.6336C1393.31 72.317 1376.09 63.5684 1359.81 49.6396C1327.79 22.2496 1307.69 -17.4081 1315.01 -38.7689C1318.27 -48.2927 1326.7 -52.8946 1338.74 -51.738C1352.48 -50.4214 1369.7 -41.6728 1386 -27.7317C1417.99 -0.341637 1438.09 39.3038 1430.79 60.6522ZM1385.27 -24.7417C1370.35 -37.5015 1354.55 -45.5241 1341.91 -46.73C1330.6 -47.8128 1322.67 -43.457 1319.58 -34.4623C1312.86 -14.7995 1331.22 21.5975 1360.53 46.6619C1375.44 59.4218 1391.23 67.4321 1403.87 68.6379C1415.2 69.7207 1423.13 65.3649 1426.21 56.3703C1432.93 36.7075 1414.57 0.322803 1385.27 -24.7417ZM1425.85 56.2472C1419.16 75.7746 1389.97 71.3573 1360.78 46.3789C1331.57 21.4006 1313.26 -14.8242 1319.95 -34.3516C1326.64 -53.879 1355.83 -49.437 1385.03 -24.4587C1414.22 0.50737 1432.53 36.7075 1425.85 56.2472ZM1387.04 -6.05098L1382.08 -15.87L1374.14 -17.0759L1379.12 -7.24452L1387.04 -6.05098ZM1381.82 -15.5255L1386.38 -6.51856L1379.38 -7.57675L1374.82 -16.596L1381.82 -15.5255Z" fill="url(#paint4_linear_19723_13953)"/>
<path d="M1410.15 93.7025C1410.33 93.6533 1410.49 93.5917 1410.65 93.5302C1411.03 93.4072 1411.39 93.2718 1411.76 93.1365C1411.96 93.0627 1412.14 92.9765 1412.34 92.8904C1412.67 92.755 1413 92.6074 1413.31 92.4597C1413.51 92.3613 1413.7 92.2628 1413.88 92.1644C1414.2 92.0044 1414.5 91.8445 1414.79 91.6599C1414.96 91.5492 1415.15 91.4507 1415.33 91.34C1415.64 91.1431 1415.94 90.9339 1416.24 90.7248C1416.39 90.6263 1416.54 90.5279 1416.68 90.4171C1417.12 90.0972 1417.54 89.765 1417.94 89.4082C1417.94 89.4082 1417.94 89.4082 1417.96 89.4082L1431.56 77.5835C1431.15 77.9403 1430.72 78.2725 1430.28 78.5924C1430.15 78.6909 1430 78.7893 1429.85 78.8877C1429.55 79.0969 1429.23 79.3061 1428.92 79.503C1428.74 79.6137 1428.56 79.7121 1428.38 79.8229C1428.08 79.9951 1427.78 80.1674 1427.48 80.3274C1427.29 80.4258 1427.09 80.5243 1426.9 80.6227C1426.59 80.7704 1426.26 80.918 1425.94 81.0533C1425.75 81.1395 1425.55 81.2133 1425.35 81.2995C1424.99 81.4471 1424.61 81.5701 1424.23 81.6932C1424.07 81.7547 1423.91 81.8162 1423.73 81.8655C1423.18 82.0377 1422.63 82.1977 1422.05 82.333C1421.99 82.3453 1421.93 82.3577 1421.88 82.3699C1421.38 82.493 1420.86 82.5914 1420.34 82.6899C1419.71 82.8006 1419.08 82.8867 1418.45 82.9606C1418.38 82.9729 1418.32 82.9852 1418.24 82.9852C1417.53 83.059 1416.8 83.1082 1416.06 83.1451C1415.84 83.1575 1415.6 83.1574 1415.36 83.1574C1414.85 83.1698 1414.34 83.1821 1413.8 83.1697C1413.51 83.1697 1413.21 83.1451 1412.91 83.1328C1412.42 83.1082 1411.94 83.0959 1411.44 83.059C1411.09 83.0344 1410.74 82.9975 1410.38 82.9729C1410.01 82.936 1409.65 82.899 1409.29 82.8621C1408.91 82.8129 1408.52 82.7637 1408.13 82.7022C1407.76 82.653 1407.4 82.5914 1407.02 82.5299C1406.63 82.4684 1406.23 82.3945 1405.84 82.3207C1405.47 82.2469 1405.08 82.1731 1404.69 82.0992C1404.29 82.0131 1403.89 81.927 1403.49 81.8286C1403.1 81.7424 1402.71 81.644 1402.32 81.5455C1401.9 81.4348 1401.47 81.3241 1401.04 81.2133C1400.68 81.1149 1400.32 81.0164 1399.94 80.9057C1399.5 80.7827 1399.06 80.6473 1398.63 80.4996C1398.25 80.3889 1397.89 80.2659 1397.51 80.1428C1397.06 79.9952 1396.61 79.8352 1396.16 79.6752C1395.78 79.5399 1395.42 79.4169 1395.04 79.2815C1394.58 79.1092 1394.12 78.9247 1393.65 78.7524C1393.28 78.6047 1392.91 78.4694 1392.54 78.3217C1392.11 78.1495 1391.68 77.9649 1391.26 77.7926C1390.81 77.6081 1390.36 77.4112 1389.91 77.2143C1389.48 77.0298 1389.05 76.8329 1388.63 76.636C1388.16 76.4268 1387.71 76.2176 1387.25 75.9962C1386.82 75.787 1386.39 75.5778 1385.95 75.3563C1385.48 75.1225 1385.02 74.9011 1384.56 74.6673C1384.12 74.4458 1383.68 74.212 1383.24 73.9782C1382.78 73.7321 1382.31 73.486 1381.84 73.2399C1381.51 73.0554 1381.17 72.8708 1380.85 72.6862C1380.11 72.2802 1379.37 71.8495 1378.63 71.4188C1378.27 71.2097 1377.9 70.9882 1377.54 70.7667C1376.8 70.3237 1376.06 69.8685 1375.32 69.4009C1374.98 69.1917 1374.66 68.9825 1374.32 68.7734C1373.28 68.1089 1372.23 67.4199 1371.18 66.7062C1371.15 66.6939 1371.14 66.6816 1371.11 66.6693C1370.05 65.9433 1368.97 65.1927 1367.89 64.4175C1367.39 64.0607 1366.89 63.6793 1366.38 63.3101C1365.99 63.0271 1365.6 62.7441 1365.21 62.4488C1364.66 62.0304 1364.11 61.6121 1363.56 61.1814C1363.19 60.8984 1362.83 60.6277 1362.47 60.3324C1361.87 59.8525 1361.25 59.3603 1360.65 58.8682C1360.34 58.6221 1360.03 58.376 1359.72 58.1176C1358.81 57.367 1357.9 56.5918 1356.97 55.8166C1355.75 54.783 1354.55 53.7248 1353.37 52.6543C1352.98 52.2975 1352.6 51.9407 1352.21 51.5838C1351.42 50.8579 1350.63 50.1319 1349.86 49.3936C1349.41 48.963 1348.98 48.5323 1348.52 48.1016C1347.82 47.4249 1347.13 46.7481 1346.44 46.0591C1345.98 45.6038 1345.53 45.1362 1345.08 44.6687C1344.43 43.9919 1343.76 43.3151 1343.12 42.6384C1342.67 42.1585 1342.23 41.6909 1341.78 41.2111C1341.14 40.522 1340.51 39.8206 1339.88 39.1193C1339.45 38.6517 1339.04 38.1841 1338.63 37.7165C1337.98 36.9783 1337.35 36.24 1336.71 35.5017C1336.33 35.0588 1335.95 34.6158 1335.58 34.1728C1334.87 33.3238 1334.18 32.4625 1333.49 31.6135C1333.21 31.2689 1332.94 30.9367 1332.66 30.5922C1331.71 29.3986 1330.78 28.1928 1329.87 26.9869C1329.64 26.6916 1329.43 26.384 1329.21 26.0887C1328.55 25.2028 1327.89 24.3168 1327.26 23.4309C1326.95 22.9879 1326.64 22.5327 1326.32 22.0897C1325.8 21.3391 1325.28 20.6009 1324.77 19.8503C1324.43 19.3581 1324.12 18.8659 1323.79 18.3737C1323.33 17.6724 1322.87 16.9587 1322.42 16.2573C1322.09 15.7405 1321.76 15.2237 1321.45 14.7069C1321.02 14.0179 1320.6 13.3288 1320.18 12.6521C1319.81 12.0245 1319.43 11.3847 1319.06 10.7572C1318.82 10.3511 1318.58 9.94505 1318.36 9.55131C1317.93 8.80073 1317.52 8.06246 1317.12 7.31188C1316.94 6.97966 1316.75 6.65973 1316.58 6.32751C1316 5.25701 1315.45 4.1865 1314.91 3.1283C1314.85 3.00526 1314.8 2.88223 1314.74 2.75918C1314.26 1.81173 1313.81 0.864269 1313.36 -0.0708809C1313.22 -0.366192 1313.08 -0.673801 1312.94 -0.969112C1312.61 -1.70739 1312.27 -2.44567 1311.94 -3.18394C1311.79 -3.54078 1311.63 -3.89761 1311.48 -4.24214C1311.18 -4.95581 1310.89 -5.65717 1310.6 -6.35853C1310.46 -6.69076 1310.34 -7.02298 1310.2 -7.3429C1309.85 -8.24114 1309.51 -9.12707 1309.2 -10.013C1309.16 -10.1237 1309.11 -10.2468 1309.07 -10.3698C1308.71 -11.3788 1308.38 -12.3755 1308.07 -13.3599C1307.97 -13.6552 1307.89 -13.9505 1307.81 -14.2335C1307.59 -14.9348 1307.38 -15.6362 1307.19 -16.3253C1307.09 -16.6698 1307.01 -17.0266 1306.9 -17.3711C1306.73 -18.0233 1306.57 -18.6631 1306.42 -19.303C1306.34 -19.6352 1306.25 -19.9797 1306.18 -20.3119C1306.04 -20.9026 1305.93 -21.4932 1305.81 -22.0715C1305.73 -22.4899 1305.64 -22.9082 1305.56 -23.3266C1305.45 -23.9172 1305.36 -24.5078 1305.28 -25.0861C1305.21 -25.4676 1305.15 -25.8613 1305.1 -26.2428C1305.01 -26.8826 1304.95 -27.5101 1304.89 -28.1377C1304.85 -28.4453 1304.81 -28.7652 1304.79 -29.0728C1304.71 -30.008 1304.65 -30.9308 1304.62 -31.8291V-31.8414C1304.6 -32.6781 1304.6 -33.4902 1304.62 -34.3023C1304.62 -34.4746 1304.64 -34.6468 1304.64 -34.8191C1304.66 -35.6066 1304.71 -36.3818 1304.79 -37.1447C1304.8 -37.2677 1304.81 -37.403 1304.83 -37.5261C1304.9 -38.2275 1304.99 -38.9042 1305.1 -39.581C1305.13 -39.704 1305.14 -39.8271 1305.16 -39.9501C1305.29 -40.6761 1305.44 -41.3897 1305.61 -42.0911C1305.65 -42.2388 1305.69 -42.3987 1305.73 -42.5464C1305.92 -43.26 1306.12 -43.9614 1306.34 -44.6504C1307.73 -48.711 1309.89 -51.9348 1312.68 -54.3711L1299.07 -42.5464C1296.28 -40.1101 1294.13 -36.8862 1292.74 -32.8257C1292.5 -32.149 1292.3 -31.4353 1292.12 -30.7216C1292.08 -30.574 1292.05 -30.414 1292.01 -30.2664C1291.83 -29.565 1291.68 -28.8514 1291.56 -28.1131C1291.53 -27.99 1291.52 -27.867 1291.49 -27.7439C1291.38 -27.0672 1291.29 -26.3781 1291.22 -25.6891C1291.21 -25.566 1291.19 -25.4307 1291.18 -25.3076C1291.11 -24.5447 1291.07 -23.7695 1291.03 -22.982C1291.03 -22.8098 1291.02 -22.6375 1291.02 -22.4653C1290.99 -21.6531 1290.99 -20.841 1291.02 -20.0043V-19.992C1291.04 -19.0815 1291.11 -18.1709 1291.18 -17.2358C1291.21 -16.9282 1291.24 -16.6206 1291.28 -16.313C1291.34 -15.6731 1291.41 -15.0456 1291.49 -14.3934C1291.54 -14.012 1291.61 -13.6306 1291.67 -13.2491C1291.76 -12.6585 1291.85 -12.0679 1291.96 -11.4773C1292.03 -11.0589 1292.12 -10.6405 1292.21 -10.2345C1292.3 -9.81612 1292.36 -9.39777 1292.46 -8.97942C1292.5 -8.80716 1292.55 -8.63489 1292.58 -8.46263C1292.66 -8.13041 1292.74 -7.79816 1292.82 -7.46594C1292.97 -6.8261 1293.14 -6.17397 1293.31 -5.52183C1293.4 -5.1773 1293.5 -4.83276 1293.6 -4.48823C1293.8 -3.79917 1294 -3.09781 1294.21 -2.39645C1294.3 -2.10114 1294.39 -1.80583 1294.49 -1.51052C1294.8 -0.538452 1295.13 0.433598 1295.48 1.41796C1295.49 1.44257 1295.49 1.45488 1295.5 1.47949C1295.54 1.59023 1295.59 1.71329 1295.63 1.83634C1295.94 2.72227 1296.28 3.6082 1296.63 4.50643C1296.76 4.83866 1296.89 5.17088 1297.03 5.4908C1297.32 6.19217 1297.61 6.89353 1297.91 7.6072C1298.06 7.96403 1298.21 8.32086 1298.37 8.67769C1298.7 9.41597 1299.04 10.1542 1299.38 10.9048C1299.51 11.2001 1299.64 11.4954 1299.79 11.7908C1299.84 11.9015 1299.89 11.9999 1299.93 12.0984C1300.31 12.9351 1300.73 13.7595 1301.15 14.5962C1301.22 14.7192 1301.28 14.8546 1301.34 14.9776C1301.88 16.0358 1302.43 17.1063 1303.01 18.1768C1303.18 18.4968 1303.37 18.829 1303.55 19.1489C1303.96 19.8995 1304.37 20.6378 1304.8 21.3884C1305.03 21.7944 1305.26 22.2004 1305.5 22.5942C1305.75 23.0126 1305.98 23.4309 1306.23 23.8493C1306.35 24.0584 1306.49 24.2676 1306.62 24.4891C1307.03 25.1782 1307.46 25.8672 1307.88 26.5563C1308.21 27.0731 1308.52 27.5899 1308.85 28.0944C1309.3 28.808 1309.76 29.5094 1310.24 30.2107C1310.56 30.7029 1310.88 31.1951 1311.21 31.6873C1311.73 32.4379 1312.25 33.1885 1312.77 33.939C1313.08 34.382 1313.38 34.825 1313.7 35.2679C1314.33 36.1539 1314.99 37.0521 1315.65 37.938C1315.85 38.2087 1316.05 38.4917 1316.25 38.7624C1316.26 38.787 1316.29 38.8117 1316.3 38.8363C1317.22 40.0421 1318.14 41.248 1319.09 42.4538C1319.36 42.786 1319.63 43.1183 1319.91 43.4505C1320.6 44.3118 1321.3 45.1731 1322.01 46.0345C1322.39 46.4774 1322.77 46.9204 1323.14 47.3634C1323.77 48.1016 1324.41 48.8399 1325.06 49.5782C1325.47 50.0458 1325.9 50.5256 1326.32 50.9932C1326.95 51.6946 1327.59 52.3959 1328.23 53.085C1328.67 53.5649 1329.12 54.0324 1329.56 54.5C1330.21 55.1891 1330.86 55.8658 1331.52 56.5426C1331.97 57.0102 1332.43 57.4654 1332.89 57.9207C1333.58 58.6098 1334.27 59.2865 1334.97 59.9756C1335.41 60.4062 1335.85 60.8369 1336.3 61.2675C1337.07 62.0058 1337.86 62.7318 1338.65 63.4578C1339.04 63.8146 1339.42 64.1714 1339.8 64.5283C1340.98 65.5988 1342.18 66.657 1343.4 67.6906C1344.31 68.478 1345.24 69.2409 1346.16 69.9915C1346.47 70.2499 1346.77 70.4837 1347.08 70.7298C1347.7 71.222 1348.3 71.7142 1348.91 72.194C1349.29 72.4893 1349.65 72.7724 1350.03 73.0554C1350.57 73.4737 1351.12 73.8921 1351.66 74.2981C1352.04 74.5934 1352.45 74.8764 1352.83 75.1718C1353.23 75.4671 1353.64 75.7624 1354.02 76.0577C1354.12 76.1315 1354.22 76.193 1354.32 76.2669C1355.4 77.0421 1356.48 77.7926 1357.54 78.5186C1357.56 78.5309 1357.57 78.5432 1357.59 78.5432C1358.65 79.2569 1359.7 79.9459 1360.75 80.6104C1361.09 80.8196 1361.42 81.0287 1361.75 81.2379C1362.49 81.7055 1363.23 82.1608 1363.97 82.6037C1364.34 82.8252 1364.7 83.0344 1365.06 83.2559C1365.8 83.6865 1366.55 84.1172 1367.29 84.5233C1367.52 84.6463 1367.74 84.7816 1367.97 84.9047C1368.07 84.9662 1368.18 85.0154 1368.28 85.0647C1368.75 85.3231 1369.22 85.5691 1369.68 85.8029C1370.12 86.0367 1370.56 86.2705 1371 86.492C1371.46 86.7258 1371.93 86.9473 1372.38 87.1811C1372.82 87.3902 1373.26 87.6117 1373.68 87.8209C1374.13 88.0424 1374.6 88.2392 1375.05 88.4484C1375.49 88.6453 1375.91 88.8422 1376.35 89.039C1376.8 89.2359 1377.24 89.4205 1377.69 89.6051C1378.04 89.7527 1378.38 89.9004 1378.73 90.048C1378.82 90.0849 1378.89 90.1095 1378.98 90.1465C1379.36 90.2941 1379.72 90.4295 1380.1 90.5771C1380.56 90.7617 1381.04 90.9339 1381.5 91.1062C1381.87 91.2416 1382.25 91.3769 1382.63 91.5C1383.08 91.6599 1383.53 91.8199 1383.98 91.9675C1384.36 92.0906 1384.72 92.2013 1385.09 92.3244C1385.53 92.4597 1385.97 92.5951 1386.41 92.7181C1386.79 92.8289 1387.15 92.9273 1387.51 93.0257C1387.79 93.0996 1388.06 93.1857 1388.33 93.2472C1388.48 93.2841 1388.63 93.321 1388.78 93.358C1389.17 93.4564 1389.57 93.5425 1389.96 93.641C1390.36 93.7394 1390.76 93.8255 1391.16 93.9117C1391.55 93.9978 1391.92 94.0593 1392.31 94.1331C1392.71 94.207 1393.1 94.2808 1393.49 94.3423C1393.86 94.4038 1394.24 94.4654 1394.6 94.5146C1394.99 94.5638 1395.37 94.6253 1395.76 94.6745C1396.12 94.7238 1396.48 94.7607 1396.85 94.7853C1397.06 94.8099 1397.28 94.8345 1397.5 94.8591C1397.64 94.8714 1397.76 94.8714 1397.9 94.8837C1398.39 94.9206 1398.88 94.9453 1399.36 94.9576C1399.67 94.9699 1399.95 94.9822 1400.24 94.9945C1400.77 95.0068 1401.29 94.9945 1401.81 94.9822C1402.03 94.9822 1402.27 94.9822 1402.5 94.9699C1403.24 94.933 1403.96 94.8837 1404.68 94.8099C1404.74 94.7976 1404.8 94.7853 1404.88 94.7853C1405.52 94.7115 1406.15 94.6253 1406.77 94.5146C1406.82 94.5023 1406.87 94.5023 1406.92 94.49C1407.4 94.4038 1407.86 94.3054 1408.32 94.1947C1408.38 94.1824 1408.44 94.1701 1408.5 94.1578C1409.05 94.0224 1409.6 93.8747 1410.15 93.7025Z" fill="url(#paint5_linear_19723_13953)"/>
<path opacity="0.7" d="M1369.51 65.5491C1365.36 62.6575 1361.18 59.4337 1356.99 55.8408C1353.22 52.617 1349.61 49.2332 1346.16 45.751L1314.12 -55.5158C1318.27 -58.5182 1323.62 -59.9824 1329.81 -59.9824L1369.51 65.5491ZM1363.35 -49.5235C1361.92 -50.311 1360.51 -51.0493 1359.11 -51.7629L1401.18 81.2252C1402.47 81.5697 1403.75 81.8896 1405 82.148L1363.35 -49.5235ZM1383.05 73.8793C1386.87 75.8973 1390.61 77.5953 1394.22 78.9611L1351.81 -55.0729C1348.12 -56.5617 1344.57 -57.7061 1341.16 -58.5182L1383.05 73.8793ZM1394.43 -26.1817C1392.11 -28.3965 1389.73 -30.5498 1387.27 -32.6539C1385.27 -34.3642 1383.27 -35.9885 1381.27 -37.5511L1419.36 82.8248C1422.57 82.3695 1425.49 81.4344 1428.03 80.0193L1394.43 -26.1817Z" fill="url(#paint6_linear_19723_13953)"/>
</g>
<g style="mix-blend-mode:luminosity" filter="url(#filter1_d_19723_13953)">
<path d="M825.84 146.364C783.365 119.302 731.389 109.101 709.765 123.59C688.127 138.068 705.035 171.751 747.511 198.812C789.986 225.874 841.962 236.075 863.586 221.586C885.211 207.096 868.316 173.425 825.84 146.364Z" fill="url(#paint7_linear_19723_13953)"/>
<path opacity="0.7" d="M825.84 146.364C783.365 119.302 731.389 109.101 709.765 123.59C688.127 138.068 705.035 171.751 747.511 198.812C789.986 225.874 841.962 236.075 863.586 221.586C885.211 207.096 868.316 173.425 825.84 146.364ZM747.924 198.385C733.374 189.124 721.33 178.715 713.069 168.281C698.173 149.467 697.161 132.961 710.364 124.116C731.735 109.809 783.338 119.986 825.414 146.779C839.964 156.052 852.008 166.449 860.269 176.882C875.165 195.697 876.177 212.203 862.973 221.048C841.616 235.354 790 225.19 747.924 198.385Z" fill="url(#paint8_linear_19723_13953)"/>
<path d="M802.537 161.782L798.82 154.415L810.172 156.663L813.889 164.006L802.537 161.782ZM758.956 181.11L762.686 188.465L774.025 190.713L770.321 183.358L758.956 181.11ZM854.526 215.954C835.513 228.684 789.493 219.595 751.934 195.661C714.375 171.739 699.292 141.905 718.318 129.174C737.331 116.444 783.365 125.546 820.924 149.479C858.47 173.401 873.552 203.223 854.526 215.954ZM848.344 212.008C865.638 200.438 851.928 173.328 817.793 151.581C783.658 129.834 741.808 121.551 724.514 133.12C707.22 144.69 720.943 171.813 755.078 193.572C789.214 215.319 831.05 223.59 848.344 212.008ZM834.621 199.705C834.274 199.424 828.425 195.82 825.694 194.146C831.33 189.613 827.359 182.161 817.94 176.162C803.776 167.133 794.397 166.804 785.283 166.828C779.008 166.767 774.011 167.781 768.375 164.177C765.404 162.283 765.125 160.402 766.577 159.424C768.176 158.349 773.812 159.241 781.446 162.931C781.739 162.821 782.126 162.613 782.565 162.32C784.097 161.294 786.349 159.217 787.841 156.712C782.698 153.438 764.871 142.076 762.566 140.756C762.566 140.756 755.558 144.556 755.105 144.592C755.052 144.629 758.929 147.219 761.008 148.673C759.462 148.282 756.131 147.928 752.627 148.588C748.27 145.949 741.582 142.015 741.488 142.076C741.422 142.125 738.677 143.676 737.291 144.605C736.772 144.959 736.439 145.216 736.519 145.277C736.812 145.46 741.968 148.881 746.218 151.459C742.008 155.063 745.552 163.297 756.358 170.176C768.535 177.934 777.555 178.764 787.175 179.07C795.236 179.351 801.192 178.227 804.762 180.499C808.72 183.016 807.76 184.836 806.854 185.435C805.295 186.473 801.405 186.217 795.409 182.735C795.263 182.637 794.09 183.285 792.758 184.189C790.453 185.728 787.642 188.013 788.574 188.611C791.759 190.64 810.012 203.382 810.478 203.346C813.743 203.113 816.634 201.452 817.993 200.536C818.526 200.181 818.819 199.937 818.819 199.937L814.422 196.675C815.914 196.968 818.073 196.968 820.151 196.589C822.776 198.202 830.57 203.101 831.103 203.37C831.21 203.431 831.423 203.333 831.69 203.15C832.822 202.38 834.98 199.986 834.621 199.705Z" fill="url(#paint9_linear_19723_13953)"/>
<path d="M802.977 161.244L799.26 153.877L810.612 156.125L814.329 163.467L802.977 161.244ZM759.395 180.559L763.126 187.914L774.465 190.162L770.761 182.807L759.395 180.559ZM854.966 215.403C835.953 228.133 789.933 219.044 752.374 195.11C714.815 171.189 699.732 141.354 718.758 128.623C737.771 115.893 783.804 124.995 821.364 148.929C858.91 172.862 873.992 202.673 854.966 215.403ZM848.784 211.469C866.078 199.899 852.368 172.789 818.233 151.042C784.098 129.295 742.248 121.012 724.954 132.582C707.66 144.152 721.383 171.274 755.518 193.033C789.654 214.768 831.49 223.039 848.784 211.469ZM835.061 199.154C834.714 198.873 828.865 195.269 826.134 193.595C831.77 189.063 827.799 181.61 818.379 175.611C804.216 166.583 794.836 166.253 785.723 166.277C779.448 166.216 774.451 167.23 768.815 163.626C765.844 161.732 765.564 159.851 767.017 158.874C768.615 157.798 774.251 158.69 781.886 162.38C782.179 162.27 782.565 162.062 783.005 161.769C784.537 160.743 786.789 158.666 788.281 156.161C783.138 152.887 765.311 141.525 763.006 140.205C763.006 140.205 755.998 144.005 755.545 144.042C755.492 144.078 759.369 146.668 761.447 148.122C759.902 147.731 756.571 147.377 753.067 148.037C748.71 145.398 742.021 141.464 741.928 141.525C741.862 141.574 739.117 143.125 737.731 144.054C737.212 144.408 736.878 144.665 736.958 144.714C737.252 144.897 742.408 148.318 746.658 150.896C742.448 154.5 745.992 162.722 756.797 169.613C768.975 177.371 777.995 178.201 787.615 178.507C795.676 178.788 801.631 177.664 805.202 179.936C809.159 182.453 808.2 184.273 807.294 184.872C805.735 185.91 801.845 185.654 795.849 182.172C795.702 182.074 794.53 182.722 793.198 183.626C790.893 185.165 788.081 187.45 789.014 188.048C792.198 190.077 810.452 202.819 810.918 202.783C814.182 202.55 817.074 200.889 818.433 199.973C818.966 199.618 819.259 199.374 819.259 199.374L814.862 196.112C816.354 196.405 818.513 196.405 820.591 196.026C823.216 197.639 831.01 202.538 831.543 202.807C831.65 202.868 831.863 202.77 832.129 202.587C833.262 201.83 835.434 199.435 835.061 199.154Z" fill="url(#paint10_linear_19723_13953)"/>
<path opacity="0.7" d="M835.061 199.156C834.714 198.875 828.865 195.27 826.134 193.597C831.77 189.064 827.799 181.611 818.379 175.613C804.216 166.584 794.837 166.254 785.723 166.279C779.448 166.218 774.451 167.232 768.815 163.628C765.844 161.734 765.564 159.852 767.017 158.875C768.616 157.8 774.251 158.692 781.886 162.381C782.179 162.271 782.565 162.064 783.005 161.771C784.537 160.744 786.789 158.667 788.281 156.163C783.138 152.889 765.311 141.526 763.006 140.207C763.006 140.207 755.998 144.007 755.545 144.043C755.492 144.08 759.369 146.67 761.447 148.124C759.902 147.733 756.571 147.379 753.067 148.038C748.71 145.399 742.022 141.465 741.928 141.526C741.862 141.575 739.117 143.127 737.731 144.055C737.212 144.41 736.879 144.666 736.959 144.715C737.252 144.898 742.408 148.319 746.658 150.897C742.448 154.501 745.992 162.723 756.797 169.614C768.975 177.372 777.995 178.203 787.615 178.508C795.676 178.789 801.632 177.665 805.202 179.938C809.159 182.454 808.2 184.275 807.294 184.873C805.735 185.912 801.845 185.655 795.849 182.173C795.703 182.076 794.53 182.723 793.198 183.627C790.893 185.167 788.081 187.451 789.014 188.05C792.198 190.078 810.452 202.821 810.918 202.784C814.183 202.552 817.074 200.89 818.433 199.974C818.966 199.62 819.259 199.375 819.259 199.375L814.862 196.113C816.354 196.407 818.513 196.407 820.591 196.028C823.216 197.641 831.01 202.54 831.543 202.809C831.65 202.87 831.863 202.772 832.129 202.589C833.262 201.831 835.434 199.437 835.061 199.156ZM831.637 202.442C831.05 202.1 828.306 200.389 825.867 198.875C823.882 197.641 821.897 196.394 820.804 195.722L820.671 195.637L820.511 195.661C818.579 196.016 816.448 196.04 814.942 195.747L814.609 196.394L818.633 199.375C818.513 199.461 818.366 199.559 818.206 199.669C816.834 200.585 814.089 202.149 810.985 202.393C810.105 201.966 803.484 197.421 798.128 193.743C794.224 191.068 790.52 188.526 789.254 187.72C789.121 187.378 790.506 185.863 793.438 183.896C794.623 183.102 795.463 182.638 795.769 182.528C801.978 186.107 805.909 186.23 807.534 185.142C808.28 184.641 809.159 183.334 807.761 181.575C807.254 180.927 806.468 180.268 805.442 179.608C802.844 177.958 799.087 178.02 794.344 178.117C792.345 178.154 790.067 178.203 787.655 178.117C778.009 177.812 769.055 176.944 757.051 169.296C753.467 167.012 750.482 164.434 748.43 161.844C744.953 157.446 744.38 153.341 746.951 151.141L747.324 150.824L746.898 150.567C744.46 149.089 741.329 147.098 737.571 144.63L737.545 144.617C737.638 144.544 737.785 144.446 737.971 144.324C739.09 143.579 741.102 142.406 741.862 141.978C741.902 141.954 741.928 141.942 741.955 141.917C743.021 142.467 748.643 145.766 752.854 148.319L752.987 148.405L753.147 148.38C756.731 147.708 759.982 148.124 761.341 148.466L761.687 147.818C760.821 147.22 759.649 146.413 758.57 145.68C757.743 145.118 756.837 144.495 756.291 144.117C757.624 143.506 760.501 141.978 762.993 140.622C764.952 141.783 773.266 147.036 787.748 156.261C786.269 158.631 784.164 160.524 782.765 161.465C782.446 161.685 782.139 161.856 781.899 161.966C774.958 158.643 768.762 157.25 766.777 158.57C765.525 159.4 765.418 160.781 766.497 162.137C766.977 162.748 767.67 163.334 768.576 163.909C773.239 166.877 777.396 166.78 782.219 166.67C783.338 166.645 784.511 166.609 785.71 166.633C795.809 166.609 804.603 167.268 818.153 175.906C821.337 177.934 823.962 180.182 825.721 182.406C829.158 186.743 829.212 190.616 825.867 193.303L825.481 193.621L825.907 193.89C830.717 196.834 833.981 198.862 834.661 199.327C834.421 199.864 832.916 201.587 831.876 202.283C831.77 202.381 831.69 202.418 831.637 202.442ZM759.396 180.561L763.126 187.916L774.465 190.164L770.761 182.809L759.396 180.561ZM773.772 189.65L763.406 187.598L760.102 181.074L770.481 183.126L773.772 189.65ZM814.316 163.481L810.598 156.138L799.247 153.89L802.964 161.257L814.316 163.481ZM799.953 154.391L810.332 156.444L813.623 162.956L803.257 160.915L799.953 154.391ZM821.364 148.93C783.805 125.009 737.785 115.894 718.758 128.625C699.746 141.355 714.828 171.19 752.374 195.112C789.933 219.033 835.953 228.135 854.966 215.405C873.992 202.674 858.91 172.864 821.364 148.93ZM752.601 194.818C739.637 186.559 728.884 177.274 721.516 167.977C708.313 151.313 707.367 136.713 718.985 128.93C737.878 116.285 783.698 125.4 821.124 149.236C834.088 157.494 844.84 166.78 852.208 176.077C865.412 192.741 866.345 207.329 854.726 215.111C835.847 227.768 790.027 218.654 752.601 194.818ZM846.892 175.295C840.15 166.78 830.317 158.289 818.459 150.726C784.191 128.894 742.128 120.61 724.714 132.278C713.762 139.608 714.561 153.243 726.846 168.759C733.588 177.274 743.421 185.765 755.279 193.328C789.547 215.16 831.597 223.431 849.011 211.764C859.963 204.433 859.163 190.799 846.892 175.295ZM755.505 193.022C721.37 171.276 707.647 144.153 724.941 132.571C742.235 121.001 784.071 129.285 818.22 151.031C852.355 172.778 866.065 199.889 848.771 211.458C831.49 223.04 789.654 214.769 755.505 193.022Z" fill="url(#paint11_linear_19723_13953)"/>
<path d="M852.048 238.469C852.062 238.457 852.075 238.457 852.088 238.445C852.834 238.03 853.554 237.602 854.247 237.138C854.3 237.101 854.34 237.077 854.393 237.04C854.7 236.832 854.966 236.6 855.259 236.392C855.632 236.111 856.019 235.843 856.365 235.549C856.392 235.525 856.418 235.513 856.445 235.488C856.698 235.268 856.925 235.036 857.165 234.816C857.498 234.511 857.844 234.206 858.164 233.888C858.191 233.863 858.23 233.827 858.257 233.802C858.47 233.582 858.644 233.338 858.843 233.118C859.136 232.776 859.443 232.446 859.709 232.092C859.736 232.055 859.776 232.019 859.816 231.97C860.216 231.444 860.575 230.895 860.909 230.345L870.262 214.792C869.902 215.391 869.502 215.965 869.063 216.539C868.796 216.894 868.49 217.223 868.197 217.566C867.97 217.822 867.77 218.091 867.517 218.335C867.211 218.653 866.864 218.958 866.518 219.264C866.251 219.508 865.998 219.765 865.718 219.997C865.372 220.29 864.986 220.559 864.613 220.84C864.279 221.084 863.96 221.353 863.6 221.597C862.907 222.062 862.188 222.489 861.441 222.905C861.308 222.978 861.162 223.039 861.028 223.112C860.362 223.467 859.683 223.809 858.963 224.126C858.297 224.419 857.618 224.7 856.925 224.957C856.778 225.006 856.645 225.055 856.498 225.116C855.739 225.385 854.966 225.653 854.167 225.886C854.127 225.898 854.074 225.91 854.034 225.922C853.287 226.142 852.528 226.338 851.742 226.521C851.515 226.57 851.289 226.631 851.062 226.68C850.223 226.863 849.37 227.046 848.491 227.205C848.478 227.205 848.464 227.205 848.451 227.205C847.558 227.364 846.652 227.486 845.72 227.608C845.426 227.645 845.12 227.682 844.827 227.706C844.201 227.779 843.574 227.84 842.935 227.889C842.429 227.938 841.922 227.962 841.403 227.999C840.843 228.036 840.284 228.072 839.724 228.097C839.204 228.121 838.671 228.134 838.138 228.146C837.512 228.158 836.873 228.17 836.233 228.17C835.873 228.17 835.527 228.17 835.167 228.17C834.368 228.158 833.568 228.146 832.756 228.109C832.489 228.097 832.223 228.097 831.956 228.085C830.877 228.036 829.798 227.975 828.692 227.889C828.439 227.865 828.199 227.84 827.946 227.828C827.146 227.767 826.334 227.694 825.521 227.608C824.055 227.462 822.576 227.291 821.071 227.083C821.004 227.071 820.938 227.058 820.871 227.058C819.432 226.851 817.966 226.619 816.487 226.362C816.021 226.277 815.555 226.191 815.075 226.105C813.943 225.898 812.797 225.678 811.651 225.434C811.171 225.336 810.692 225.238 810.212 225.128C808.746 224.81 807.281 224.468 805.802 224.102C805.682 224.077 805.562 224.041 805.442 224.016C803.67 223.576 801.871 223.088 800.073 222.575C799.62 222.44 799.153 222.306 798.7 222.171C797.035 221.683 795.356 221.17 793.664 220.62C793.504 220.571 793.331 220.522 793.171 220.461C792.851 220.351 792.532 220.241 792.212 220.131C791.226 219.801 790.24 219.471 789.241 219.117C788.761 218.946 788.281 218.763 787.788 218.592C787.016 218.311 786.256 218.03 785.483 217.749C783.698 217.077 781.926 216.393 780.141 215.66C779.754 215.501 779.354 215.33 778.968 215.171C777.742 214.658 776.503 214.133 775.277 213.595C774.704 213.351 774.132 213.094 773.572 212.837C772.599 212.398 771.613 211.946 770.641 211.494C770.055 211.213 769.468 210.944 768.882 210.663C767.949 210.211 767.017 209.759 766.084 209.294C765.511 209.013 764.952 208.732 764.379 208.439C763.433 207.951 762.487 207.45 761.527 206.949C761.008 206.68 760.501 206.411 759.982 206.13C758.943 205.568 757.903 204.982 756.864 204.395C756.478 204.175 756.078 203.968 755.692 203.748C754.266 202.941 752.854 202.111 751.455 201.255C750.136 200.461 748.817 199.643 747.511 198.812C747.111 198.555 746.711 198.287 746.312 198.03C745.299 197.37 744.287 196.711 743.301 196.051C742.888 195.77 742.475 195.489 742.062 195.208C741.102 194.548 740.156 193.888 739.224 193.216C738.877 192.972 738.517 192.716 738.171 192.471C736.892 191.543 735.653 190.614 734.427 189.686C734.241 189.539 734.054 189.392 733.867 189.246C732.762 188.378 731.669 187.511 730.603 186.644C730.297 186.399 729.99 186.143 729.697 185.898C728.378 184.799 727.099 183.699 725.86 182.6C725.394 182.184 724.941 181.769 724.488 181.353C724.154 181.048 723.808 180.73 723.475 180.425C722.969 179.948 722.476 179.472 721.983 179.008C721.69 178.727 721.396 178.446 721.103 178.165C720.904 177.969 720.717 177.774 720.517 177.578C719.824 176.894 719.158 176.21 718.505 175.526C718.212 175.22 717.932 174.915 717.653 174.622C717.106 174.035 716.573 173.461 716.054 172.875C715.774 172.557 715.494 172.252 715.228 171.946C714.655 171.286 714.082 170.614 713.536 169.955C713.336 169.71 713.123 169.466 712.923 169.222C712.203 168.33 711.497 167.438 710.844 166.546C710.724 166.387 710.604 166.216 710.484 166.057C709.951 165.324 709.432 164.603 708.939 163.87C708.739 163.577 708.552 163.296 708.366 163.003C707.953 162.38 707.553 161.769 707.18 161.146C707.007 160.865 706.82 160.572 706.661 160.291C706.221 159.558 705.808 158.837 705.421 158.116C705.341 157.969 705.262 157.823 705.182 157.688C704.729 156.833 704.302 155.978 703.903 155.123C703.796 154.891 703.703 154.659 703.596 154.426C703.316 153.803 703.063 153.193 702.81 152.569C702.703 152.288 702.597 152.007 702.49 151.726C702.264 151.128 702.064 150.529 701.877 149.943C701.797 149.698 701.717 149.466 701.651 149.222C701.411 148.416 701.198 147.609 701.025 146.815C701.011 146.73 700.998 146.644 700.971 146.546C700.825 145.838 700.705 145.141 700.598 144.457C700.558 144.213 700.545 143.968 700.518 143.724C700.452 143.187 700.412 142.637 700.385 142.111C700.372 141.867 700.358 141.611 700.358 141.366C700.345 140.78 700.358 140.193 700.385 139.619C700.398 139.46 700.385 139.301 700.398 139.143C700.452 138.422 700.545 137.713 700.665 137.017C700.692 136.846 700.745 136.675 700.771 136.491C700.878 135.966 700.998 135.453 701.145 134.94C701.211 134.72 701.278 134.488 701.358 134.268C701.518 133.791 701.691 133.339 701.877 132.875C701.957 132.68 702.037 132.472 702.13 132.289C702.424 131.653 702.73 131.03 703.103 130.432L693.75 145.984C693.39 146.583 693.07 147.206 692.777 147.841C692.684 148.037 692.617 148.232 692.524 148.428C692.338 148.88 692.164 149.344 692.005 149.821C691.938 150.04 691.858 150.26 691.791 150.492C691.645 151.006 691.525 151.519 691.418 152.044C691.378 152.215 691.338 152.386 691.312 152.569C691.192 153.266 691.098 153.974 691.045 154.695C691.032 154.854 691.032 155.013 691.032 155.172C691.005 155.746 690.992 156.32 691.005 156.919C691.005 157.163 691.019 157.42 691.032 157.664C691.059 158.202 691.098 158.739 691.165 159.277C691.192 159.521 691.218 159.765 691.245 160.01C691.338 160.694 691.458 161.39 691.605 162.099C691.618 162.184 691.631 162.282 691.658 162.368C691.831 163.162 692.044 163.968 692.284 164.775C692.351 165.007 692.431 165.251 692.511 165.495C692.697 166.082 692.897 166.68 693.124 167.279C693.23 167.56 693.337 167.841 693.443 168.122C693.683 168.733 693.95 169.356 694.23 169.967C694.336 170.199 694.429 170.431 694.536 170.675C694.936 171.518 695.349 172.374 695.815 173.241C695.895 173.388 695.975 173.534 696.055 173.669C696.441 174.39 696.854 175.123 697.294 175.843C697.467 176.124 697.64 176.405 697.814 176.699C698.2 177.309 698.586 177.933 698.999 178.556C699.186 178.849 699.386 179.13 699.572 179.423C700.065 180.156 700.585 180.877 701.131 181.61C701.251 181.769 701.358 181.928 701.478 182.099C702.144 182.991 702.837 183.882 703.569 184.774C703.769 185.019 703.969 185.263 704.169 185.495C704.715 186.167 705.288 186.827 705.861 187.499C705.981 187.645 706.101 187.792 706.234 187.926C706.381 188.097 706.541 188.256 706.687 188.427C707.207 189.014 707.74 189.6 708.286 190.174C708.566 190.48 708.846 190.773 709.139 191.078C709.792 191.763 710.471 192.447 711.151 193.131C711.31 193.29 711.457 193.449 711.617 193.607C711.657 193.644 711.697 193.681 711.724 193.717C712.003 193.998 712.31 194.279 712.603 194.56C713.096 195.037 713.576 195.513 714.082 195.978C714.415 196.295 714.761 196.601 715.108 196.918C715.494 197.273 715.881 197.639 716.28 197.993C716.347 198.054 716.413 198.103 716.48 198.164C717.719 199.264 718.998 200.364 720.317 201.463C720.451 201.573 720.557 201.683 720.69 201.781C720.864 201.927 721.05 202.062 721.223 202.208C722.289 203.076 723.368 203.943 724.488 204.811C724.634 204.921 724.754 205.031 724.901 205.141C724.941 205.177 724.994 205.214 725.034 205.238C726.246 206.179 727.499 207.108 728.778 208.024C728.884 208.109 728.991 208.183 729.098 208.268C729.337 208.439 729.591 208.61 729.817 208.781C730.75 209.453 731.696 210.113 732.655 210.773C732.881 210.932 733.108 211.09 733.334 211.249C733.521 211.371 733.708 211.494 733.894 211.616C734.88 212.288 735.893 212.947 736.919 213.607C737.158 213.766 737.398 213.925 737.638 214.084C737.798 214.181 737.944 214.279 738.104 214.389C739.383 215.208 740.676 216.014 741.982 216.796C742.008 216.808 742.022 216.82 742.048 216.833C743.447 217.688 744.859 218.506 746.285 219.325C746.325 219.349 746.352 219.362 746.392 219.386C746.751 219.594 747.098 219.777 747.458 219.972C748.497 220.559 749.536 221.145 750.575 221.707C750.669 221.756 750.749 221.805 750.842 221.854C751.268 222.086 751.694 222.294 752.121 222.514C753.067 223.014 754.013 223.515 754.972 224.004C755.132 224.09 755.292 224.175 755.452 224.248C755.865 224.456 756.265 224.652 756.678 224.847C757.61 225.311 758.543 225.776 759.476 226.228C759.715 226.35 759.955 226.472 760.195 226.582C760.541 226.741 760.888 226.9 761.234 227.058C762.207 227.51 763.193 227.963 764.165 228.402C764.499 228.549 764.818 228.708 765.151 228.854C765.391 228.964 765.631 229.062 765.871 229.16C767.097 229.697 768.336 230.223 769.562 230.736C769.868 230.858 770.174 231.005 770.494 231.127C770.574 231.163 770.667 231.188 770.747 231.225C772.533 231.958 774.305 232.642 776.09 233.314C776.25 233.375 776.397 233.436 776.556 233.497C777.169 233.729 777.796 233.937 778.408 234.169C778.888 234.34 779.368 234.523 779.847 234.682C780.847 235.036 781.833 235.366 782.819 235.696C783.138 235.806 783.458 235.916 783.778 236.026C783.818 236.038 783.858 236.05 783.898 236.063C784.018 236.099 784.138 236.136 784.271 236.173C785.963 236.722 787.642 237.235 789.307 237.724C789.76 237.859 790.227 237.993 790.68 238.127C792.478 238.64 794.277 239.129 796.049 239.569C796.062 239.569 796.076 239.581 796.102 239.581C796.209 239.606 796.302 239.63 796.409 239.654C797.888 240.021 799.367 240.363 800.819 240.681C801.299 240.791 801.778 240.888 802.258 240.986C803.404 241.231 804.549 241.45 805.682 241.658C806.148 241.744 806.615 241.829 807.081 241.915C808.56 242.171 810.025 242.403 811.464 242.611C811.531 242.623 811.598 242.636 811.664 242.636C813.17 242.843 814.649 243.014 816.114 243.161C816.261 243.173 816.421 243.198 816.581 243.21C817.247 243.271 817.886 243.32 818.539 243.381C818.792 243.405 819.046 243.43 819.285 243.442C820.391 243.527 821.471 243.588 822.55 243.637C822.816 243.65 823.083 243.65 823.349 243.662C824.162 243.686 824.961 243.711 825.761 243.723C826.12 243.723 826.467 243.723 826.827 243.723C827.16 243.723 827.493 243.735 827.826 243.723C828.132 243.723 828.439 243.698 828.745 243.698C829.278 243.686 829.798 243.674 830.331 243.65C830.904 243.625 831.45 243.588 832.01 243.552C832.529 243.515 833.035 243.479 833.542 243.442C833.768 243.417 834.008 243.417 834.235 243.393C834.648 243.356 835.034 243.295 835.447 243.259C835.74 243.222 836.047 243.197 836.34 243.161C837.259 243.039 838.165 242.917 839.058 242.758C839.071 242.758 839.084 242.758 839.098 242.745C839.977 242.587 840.83 242.416 841.669 242.232C841.896 242.183 842.122 242.122 842.335 242.074C842.589 242.012 842.842 241.964 843.081 241.902C843.601 241.768 844.121 241.621 844.627 241.475C844.667 241.463 844.707 241.45 844.747 241.438C845.32 241.267 845.893 241.084 846.452 240.901C846.666 240.827 846.879 240.742 847.092 240.669C847.238 240.62 847.372 240.571 847.518 240.51C848.158 240.278 848.771 240.033 849.384 239.764C849.45 239.74 849.503 239.703 849.557 239.679C850.263 239.361 850.956 239.019 851.622 238.665C851.795 238.579 851.928 238.53 852.048 238.469Z" fill="url(#paint12_linear_19723_13953)"/>
<path opacity="0.7" d="M846.492 227.474L715.774 172.508C712.536 168.843 709.765 165.202 707.513 161.635L857.498 224.701C854.22 225.983 850.529 226.9 846.492 227.474ZM872.753 207.731L700.985 135.502C700.412 137.75 700.252 140.157 700.438 142.674L870.542 214.194C871.661 212.202 872.393 210.028 872.753 207.731ZM866.957 218.849C867.744 218.091 868.436 217.285 869.063 216.454L700.838 145.716C701.065 146.913 701.344 148.122 701.717 149.369L866.957 218.849ZM856.019 170.957L728.778 117.457C721.183 118.288 714.681 120.291 709.752 123.59C709.565 123.712 709.392 123.859 709.219 123.993L870.102 191.641C867.317 185.043 862.561 178.03 856.019 170.957Z" fill="url(#paint13_linear_19723_13953)"/>
</g>
<defs>
<filter id="filter0_d_19723_13953" x="1241" y="-106" width="248.652" height="255" filterUnits="userSpaceOnUse" color-interpolation-filters="sRGB">
<feFlood flood-opacity="0" result="BackgroundImageFix"/>
<feColorMatrix in="SourceAlpha" type="matrix" values="0 0 0 0 0 0 0 0 0 0 0 0 0 0 0 0 0 0 127 0" result="hardAlpha"/>
<feOffset dy="4"/>
<feGaussianBlur stdDeviation="25"/>
<feColorMatrix type="matrix" values="0 0 0 0 0.0666666 0 0 0 0 0.0941176 0 0 0 0 0.286275 0 0 0 0.5 0"/>
<feBlend mode="normal" in2="BackgroundImageFix" result="effect1_dropShadow_19723_13953"/>
<feBlend mode="normal" in="SourceGraphic" in2="effect1_dropShadow_19723_13953" result="shape"/>
</filter>
<filter id="filter1_d_19723_13953" x="641" y="71" width="282" height="226.729" filterUnits="userSpaceOnUse" color-interpolation-filters="sRGB">
<feFlood flood-opacity="0" result="BackgroundImageFix"/>
<feColorMatrix in="SourceAlpha" type="matrix" values="0 0 0 0 0 0 0 0 0 0 0 0 0 0 0 0 0 0 127 0" result="hardAlpha"/>
<feOffset dy="4"/>
<feGaussianBlur stdDeviation="25"/>
<feColorMatrix type="matrix" values="0 0 0 0 0.0666666 0 0 0 0 0.0941176 0 0 0 0 0.286275 0 0 0 0.5 0"/>
<feBlend mode="normal" in2="BackgroundImageFix" result="effect1_dropShadow_19723_13953"/>
<feBlend mode="normal" in="SourceGraphic" in2="effect1_dropShadow_19723_13953" result="shape"/>
</filter>
<linearGradient id="paint0_linear_19723_13953" x1="1307.21" y1="-46.2978" x2="1431.9" y2="68.9868" gradientUnits="userSpaceOnUse">
<stop offset="0.0317" stop-color="#FCE878"/>
<stop offset="0.0527" stop-color="#FCE676"/>
<stop offset="0.6976" stop-color="#FEB432"/>
<stop offset="1" stop-color="#FFA018"/>
</linearGradient>
<linearGradient id="paint1_linear_19723_13953" x1="1411.14" y1="43.825" x2="1309.15" y2="-43.5285" gradientUnits="userSpaceOnUse">
<stop stop-color="#FFE6B9" stop-opacity="0"/>
<stop offset="0.3821" stop-color="#FFF3DE" stop-opacity="0.4239"/>
<stop offset="0.7037" stop-color="#FFFCF6" stop-opacity="0.7807"/>
<stop offset="0.9014" stop-color="white"/>
</linearGradient>
<linearGradient id="paint2_linear_19723_13953" x1="1310.63" y1="-42.4975" x2="1432.37" y2="68.8621" gradientUnits="userSpaceOnUse">
<stop offset="0.0431" stop-color="#FFA018"/>
<stop offset="0.9874" stop-color="#D36B18"/>
</linearGradient>
<linearGradient id="paint3_linear_19723_13953" x1="1459.37" y1="74.6106" x2="1298.32" y2="-48.2985" gradientUnits="userSpaceOnUse">
<stop stop-color="#FFB817"/>
<stop offset="0.9893" stop-color="#FFFFBC"/>
</linearGradient>
<linearGradient id="paint4_linear_19723_13953" x1="1459.37" y1="74.6111" x2="1298.32" y2="-48.2979" gradientUnits="userSpaceOnUse">
<stop stop-color="#FFE6B9" stop-opacity="0"/>
<stop offset="0.3821" stop-color="#FFF3DE" stop-opacity="0.4239"/>
<stop offset="0.7037" stop-color="#FFFCF6" stop-opacity="0.7807"/>
<stop offset="0.9014" stop-color="white"/>
</linearGradient>
<linearGradient id="paint5_linear_19723_13953" x1="1285.76" y1="-33.858" x2="1414.18" y2="94.3311" gradientUnits="userSpaceOnUse">
<stop offset="0.0394" stop-color="#FFC826"/>
<stop offset="0.1112" stop-color="#FFA018"/>
<stop offset="0.4264" stop-color="#F8771E"/>
<stop offset="0.5129" stop-color="#EC6D1A"/>
<stop offset="0.6677" stop-color="#CD510E"/>
<stop offset="0.721" stop-color="#C14609"/>
<stop offset="0.8348" stop-color="#C3480A"/>
<stop offset="0.8863" stop-color="#CA4E0D"/>
<stop offset="0.9252" stop-color="#D75A11"/>
<stop offset="0.9577" stop-color="#E96A18"/>
<stop offset="0.977" stop-color="#F8771E"/>
<stop offset="0.9864" stop-color="#F87A1E"/>
<stop offset="0.992" stop-color="#FA821C"/>
<stop offset="0.9967" stop-color="#FC901A"/>
<stop offset="1" stop-color="#FFA018"/>
</linearGradient>
<linearGradient id="paint6_linear_19723_13953" x1="1395.95" y1="60.3275" x2="1330.39" y2="-73.5162" gradientUnits="userSpaceOnUse">
<stop stop-color="#FFE6B9" stop-opacity="0"/>
<stop offset="1" stop-color="white"/>
</linearGradient>
<linearGradient id="paint7_linear_19723_13953" x1="851.664" y1="156.381" x2="721.872" y2="194.867" gradientUnits="userSpaceOnUse">
<stop offset="0.0317" stop-color="#FCE878"/>
<stop offset="0.0527" stop-color="#FCE676"/>
<stop offset="0.6976" stop-color="#FEB432"/>
<stop offset="1" stop-color="#FFA018"/>
</linearGradient>
<linearGradient id="paint8_linear_19723_13953" x1="682.405" y1="174.599" x2="860.398" y2="170.509" gradientUnits="userSpaceOnUse">
<stop stop-color="#FFE6B9" stop-opacity="0"/>
<stop offset="0.3821" stop-color="#FFF3DE" stop-opacity="0.4239"/>
<stop offset="0.7037" stop-color="#FFFCF6" stop-opacity="0.7807"/>
<stop offset="0.9014" stop-color="white"/>
</linearGradient>
<linearGradient id="paint9_linear_19723_13953" x1="841.861" y1="167.901" x2="720.759" y2="180.019" gradientUnits="userSpaceOnUse">
<stop offset="0.0431" stop-color="#FFA018"/>
<stop offset="0.9874" stop-color="#D36B18"/>
</linearGradient>
<linearGradient id="paint10_linear_19723_13953" x1="694.31" y1="217.137" x2="822.057" y2="143.074" gradientUnits="userSpaceOnUse">
<stop stop-color="#FFB817"/>
<stop offset="0.9893" stop-color="#FFFFBC"/>
</linearGradient>
<linearGradient id="paint11_linear_19723_13953" x1="729.747" y1="173.648" x2="858.006" y2="169.305" gradientUnits="userSpaceOnUse">
<stop stop-color="#FFE6B9" stop-opacity="0"/>
<stop offset="0.3821" stop-color="#FFF3DE" stop-opacity="0.4239"/>
<stop offset="0.7037" stop-color="#FFFCF6" stop-opacity="0.7807"/>
<stop offset="0.9014" stop-color="white"/>
</linearGradient>
<linearGradient id="paint12_linear_19723_13953" x1="855.387" y1="239.376" x2="694.492" y2="145.192" gradientUnits="userSpaceOnUse">
<stop stop-color="#FFC826"/>
<stop offset="0.0945" stop-color="#FFA018"/>
<stop offset="0.2186" stop-color="#F8771E"/>
<stop offset="0.3662" stop-color="#EC6D1A"/>
<stop offset="0.6301" stop-color="#CD510E"/>
<stop offset="0.721" stop-color="#C14609"/>
<stop offset="0.7796" stop-color="#C64A0B"/>
<stop offset="0.8451" stop-color="#D35610"/>
<stop offset="0.9137" stop-color="#E96A18"/>
<stop offset="0.9495" stop-color="#F8771E"/>
<stop offset="0.9701" stop-color="#F87A1E"/>
<stop offset="0.9825" stop-color="#FA821C"/>
<stop offset="0.9927" stop-color="#FC901A"/>
<stop offset="1" stop-color="#FFA018"/>
</linearGradient>
<linearGradient id="paint13_linear_19723_13953" x1="713.789" y1="173.853" x2="890.429" y2="169.899" gradientUnits="userSpaceOnUse">
<stop stop-color="#FFE6B9" stop-opacity="0"/>
<stop offset="0.9014" stop-color="white"/>
</linearGradient>
</defs>
</svg>
