<svg width="1440" height="836" viewBox="0 0 1440 836" fill="none" xmlns="http://www.w3.org/2000/svg">
<g clip-path="url(#clip0_18225_3680)">
<rect width="1440" height="836" fill="white"/>
<g style="mix-blend-mode:luminosity" filter="url(#filter0_d_18225_3680)">
<path d="M860.915 755.863C852.546 780.3 816.313 774.923 779.981 743.842C743.649 712.76 720.972 667.762 729.341 643.313C737.71 618.876 773.942 624.266 810.275 655.347C846.607 686.428 869.284 731.426 860.915 755.863Z" fill="url(#paint0_linear_18225_3680)"/>
<path opacity="0.7" d="M810.275 655.359C773.942 624.277 737.71 618.888 729.341 643.325C720.972 667.762 743.649 712.772 779.981 743.853C816.313 774.935 852.546 780.312 860.915 755.875C869.284 731.426 846.607 686.428 810.275 655.359ZM860.313 755.53C856.592 766.395 847.021 771.649 833.352 770.345C817.917 768.869 798.586 759.037 780.294 743.398C744.263 712.575 721.686 667.836 729.955 643.657C733.676 632.792 743.248 627.538 756.916 628.855C772.351 630.331 791.695 640.163 809.987 655.802C846.006 686.625 868.582 731.364 860.313 755.53Z" fill="url(#paint1_linear_18225_3680)"/>
<path d="M788.738 717.817L793.699 727.636L785.781 726.43L780.807 716.611L788.738 717.817ZM809.109 682.613L804.148 672.794L796.217 671.589L801.191 681.42L809.109 682.613ZM853.209 749.44C845.855 770.924 813.744 766.063 781.622 738.587C749.499 711.111 729.353 671.269 736.707 649.785C744.061 628.301 776.184 633.186 808.295 660.662C840.43 688.138 860.563 727.956 853.209 749.44ZM807.092 664.206C777.888 639.227 748.697 634.785 742.007 654.313C735.317 673.84 753.646 710.065 782.837 735.043C812.041 760.022 841.232 764.439 847.909 744.912C854.6 725.384 836.296 689.172 807.092 664.206ZM816.012 699.2C803.897 688.84 797.909 690.009 792.196 691.645C788.237 692.654 785.48 694.98 780.644 690.845C778.101 688.667 777.249 686.034 777.813 684.398C778.427 682.589 782.286 682.872 788.387 686.772C788.525 686.563 788.7 686.206 788.863 685.702C789.452 683.967 790.116 680.62 790.153 676.781C785.756 673.016 770.509 659.973 768.592 658.496C768.592 658.496 765.56 665.129 765.285 665.264C765.26 665.326 768.63 668.34 770.446 670.038C769.344 669.755 767.126 669.841 765.159 671.379C761.488 668.377 755.876 663.96 755.838 664.07C755.813 664.157 754.648 666.851 754.122 668.414C753.921 669.005 753.809 669.435 753.884 669.497C754.134 669.706 758.594 673.668 762.178 676.597C760.824 682.478 765.999 693.565 775.245 701.476C785.668 710.385 791.619 709.979 797.758 708.724C802.92 707.715 806.24 705.057 809.297 707.678C812.68 710.57 812.73 713.326 812.379 714.347C811.777 716.107 809.247 716.427 804.235 712.501C804.11 712.391 803.609 713.523 803.095 715.036C802.206 717.632 801.254 721.385 802.055 722.062C804.774 724.388 820.785 739.338 821.061 739.202C823.028 738.304 824.243 735.425 824.769 733.887C824.97 733.284 825.07 732.89 825.07 732.89L821.136 729.014C822.176 729.174 823.529 728.793 824.694 727.882C826.924 729.715 833.552 735.314 833.99 735.622C834.078 735.683 834.178 735.523 834.279 735.216C834.717 733.936 835.218 730.146 834.88 729.802C834.567 729.457 829.605 725.36 827.3 723.452C829.23 715.996 824.068 706.078 816.012 699.2Z" fill="url(#paint2_linear_18225_3680)"/>
<path d="M789.666 717.153L794.627 726.972L786.709 725.766L781.735 715.947L789.666 717.153ZM810.037 681.949L805.075 672.13L797.145 670.924L802.119 680.756L810.037 681.949ZM854.137 748.776C846.783 770.26 814.672 765.399 782.549 737.923C750.426 710.447 730.281 670.605 737.635 649.121C744.989 627.637 777.112 632.522 809.222 659.998C841.358 687.462 861.491 727.292 854.137 748.776ZM808.02 663.529C778.816 638.551 749.625 634.109 742.935 653.637C736.244 673.164 754.573 709.389 783.765 734.367C812.968 759.345 842.16 763.763 848.837 744.235C855.527 724.708 837.223 688.508 808.02 663.529ZM816.94 698.524C804.825 688.163 798.836 689.332 793.123 690.969C789.164 691.978 786.408 694.303 781.572 690.169C779.029 687.991 778.177 685.358 778.741 683.721C779.355 681.913 783.213 682.195 789.315 686.096C789.453 685.887 789.628 685.53 789.791 685.026C790.38 683.291 791.044 679.944 791.081 676.105C786.684 672.34 771.437 659.297 769.52 657.82C769.52 657.82 766.488 664.452 766.212 664.588C766.187 664.649 769.557 667.664 771.374 669.362C770.272 669.079 768.054 669.165 766.087 670.703C762.416 667.701 756.804 663.283 756.766 663.394C756.741 663.48 755.576 666.175 755.05 667.738C754.849 668.328 754.736 668.759 754.811 668.82C755.062 669.03 759.522 672.992 763.105 675.92C761.752 681.802 766.926 692.888 776.172 700.8C786.596 709.709 792.547 709.303 798.686 708.047C803.848 707.038 807.168 704.381 810.225 707.002C813.607 709.893 813.657 712.649 813.307 713.671C812.705 715.43 810.175 715.75 805.163 711.825C805.038 711.714 804.537 712.846 804.023 714.36C803.134 716.956 802.181 720.709 802.983 721.386C805.702 723.711 821.713 738.661 821.989 738.526C823.956 737.628 825.171 734.748 825.697 733.21C825.898 732.607 825.998 732.214 825.998 732.214L822.064 728.338C823.104 728.498 824.457 728.116 825.622 727.206C827.852 729.039 834.48 734.638 834.918 734.945C835.006 735.007 835.106 734.847 835.206 734.539C835.645 733.247 836.146 729.47 835.808 729.125C835.494 728.781 830.533 724.683 828.228 722.776C830.157 715.319 824.996 705.414 816.94 698.524Z" fill="url(#paint3_linear_18225_3680)"/>
<path opacity="0.7" d="M816.939 698.523C804.825 688.163 798.836 689.332 793.123 690.968C789.164 691.977 786.408 694.303 781.572 690.168C779.029 687.991 778.177 685.357 778.74 683.721C779.354 681.912 783.213 682.195 789.314 686.096C789.452 685.886 789.628 685.53 789.79 685.025C790.379 683.29 791.043 679.943 791.081 676.104C786.683 672.339 771.436 659.296 769.52 657.82C769.52 657.82 766.488 664.452 766.212 664.587C766.187 664.649 769.557 667.663 771.374 669.361C770.271 669.078 768.054 669.165 766.087 670.703C762.416 667.7 756.803 663.283 756.766 663.394C756.741 663.48 755.575 666.175 755.049 667.737C754.849 668.328 754.736 668.758 754.811 668.82C755.062 669.029 759.522 672.991 763.105 675.92C761.752 681.801 766.926 692.888 776.172 700.8C786.596 709.708 792.547 709.302 798.686 708.047C803.847 707.038 807.167 704.38 810.224 707.001C813.607 709.893 813.657 712.649 813.306 713.67C812.705 715.43 810.174 715.75 805.163 711.825C805.038 711.714 804.536 712.846 804.023 714.359C803.133 716.956 802.181 720.709 802.983 721.385C805.701 723.711 821.713 738.661 821.988 738.526C823.955 737.627 825.171 734.748 825.697 733.21C825.897 732.607 825.998 732.213 825.998 732.213L822.064 728.337C823.104 728.497 824.457 728.116 825.622 727.205C827.852 729.039 834.479 734.637 834.918 734.945C835.006 735.006 835.106 734.847 835.206 734.539C835.644 733.259 836.146 729.469 835.807 729.125C835.494 728.78 830.533 724.683 828.228 722.776C830.157 715.319 824.995 705.414 816.939 698.523ZM835.557 729.371C835.707 729.765 835.319 733.136 834.868 734.428C834.868 734.428 834.868 734.428 834.868 734.44C834.103 733.825 832.036 732.09 830.182 730.528C828.491 729.113 826.812 727.698 825.885 726.935L825.647 726.738L825.409 726.922C824.419 727.685 823.254 728.091 822.277 727.993L820.999 727.808L825.584 732.336C825.534 732.509 825.459 732.779 825.346 733.112C824.933 734.317 823.805 737.16 822.013 738.12C820.999 737.357 815.449 732.275 810.964 728.14C807.543 725.003 804.323 722.05 803.233 721.115C802.807 720.745 803.121 718.174 804.386 714.482C804.749 713.424 805.05 712.698 805.238 712.341C807.593 714.138 809.548 715.122 811.051 715.258C812.354 715.381 813.306 714.839 813.67 713.781C814.096 712.538 813.908 709.647 810.475 706.718C809.661 706.017 808.771 705.635 807.769 705.537C806.253 705.389 804.649 705.918 802.782 706.521C801.555 706.927 800.151 707.383 798.623 707.69C796.08 708.219 793.9 708.515 791.482 708.281C786.884 707.838 782.098 705.377 776.435 700.529C766.851 692.322 762.253 681.42 763.493 676.006L763.543 675.784L763.368 675.637C761.313 673.963 758.645 671.675 755.412 668.845L755.2 668.66C755.225 668.549 755.275 668.316 755.438 667.86C755.851 666.642 756.653 664.747 756.991 663.923C758.056 664.723 762.529 668.254 765.886 670.998L766.124 671.195L766.362 671.01C768.242 669.521 770.196 669.583 770.76 669.644C770.973 669.669 771.161 669.694 771.324 669.743L771.674 669.115C770.91 668.402 769.883 667.454 768.931 666.593C768.029 665.768 767.101 664.919 766.726 664.563C767.076 663.997 767.841 662.495 769.695 658.423C771.674 660.022 778.74 666.027 790.73 676.289C790.68 680.079 790.016 683.303 789.465 684.927C789.364 685.222 789.277 685.431 789.202 685.591C786.095 683.647 783.401 682.515 781.384 682.33C779.254 682.121 778.603 683.056 778.402 683.622C777.826 685.296 778.515 688.052 781.346 690.476C783.1 691.977 784.679 692.74 786.333 692.9C788.011 693.06 789.502 692.556 791.081 692.014C791.77 691.78 792.484 691.534 793.236 691.35C795.616 690.673 797.971 690.082 800.803 690.353C805.426 690.796 810.475 693.491 816.714 698.819C825.07 705.968 829.668 715.787 827.902 722.702L827.839 722.923L828.015 723.071C832.45 726.725 835.344 729.149 835.557 729.371ZM781.735 715.947L786.708 725.766L794.626 726.972L789.665 717.152L781.735 715.947ZM786.959 725.433L782.399 716.414L789.415 717.485L793.962 726.492L786.959 725.433ZM809.235 659.985C777.112 632.509 745.001 627.624 737.647 649.108C730.293 670.592 750.439 710.434 782.562 737.91C814.684 765.387 846.795 770.247 854.149 748.763C861.491 727.291 841.357 687.461 809.235 659.985ZM853.786 748.652C850.528 758.176 842.097 762.79 830.044 761.634C816.313 760.317 799.087 751.568 782.812 737.64C750.79 710.25 730.694 670.592 738.011 649.231C741.268 639.707 749.7 635.105 761.739 636.262C775.483 637.579 792.697 646.327 808.997 660.268C840.994 687.658 861.09 727.304 853.786 748.652ZM808.27 663.258C793.349 650.498 777.55 642.476 764.909 641.27C753.596 640.187 745.665 644.543 742.583 653.538C735.856 673.2 754.222 709.597 783.526 734.662C798.435 747.422 814.233 755.432 826.875 756.638C838.2 757.721 846.131 753.365 849.213 744.37C855.928 724.708 837.574 688.323 808.27 663.258ZM848.849 744.247C842.159 763.775 812.968 759.357 783.777 734.379C754.573 709.401 736.257 673.176 742.947 653.648C749.637 634.121 778.828 638.563 808.032 663.541C837.223 688.507 855.527 724.708 848.849 744.247ZM810.036 681.949L805.075 672.13L797.145 670.924L802.118 680.755L810.036 681.949ZM804.825 672.474L809.385 681.481L802.381 680.423L797.821 671.404L804.825 672.474Z" fill="url(#paint4_linear_18225_3680)"/>
<path d="M833.151 781.703C833.327 781.654 833.49 781.593 833.653 781.531C834.028 781.408 834.392 781.273 834.755 781.137C834.956 781.064 835.143 780.977 835.344 780.891C835.67 780.756 835.995 780.608 836.309 780.461C836.509 780.362 836.697 780.264 836.885 780.165C837.198 780.005 837.499 779.845 837.787 779.661C837.962 779.55 838.15 779.452 838.326 779.341C838.639 779.144 838.94 778.935 839.24 778.726C839.391 778.627 839.541 778.529 839.679 778.418C840.117 778.098 840.543 777.766 840.944 777.409C840.944 777.409 840.944 777.409 840.957 777.409L854.563 765.584C854.149 765.941 853.723 766.273 853.285 766.593C853.147 766.692 852.996 766.79 852.846 766.889C852.545 767.098 852.232 767.307 851.919 767.504C851.744 767.615 851.556 767.713 851.38 767.824C851.08 767.996 850.779 768.168 850.478 768.328C850.29 768.427 850.09 768.525 849.902 768.624C849.589 768.771 849.263 768.919 848.937 769.054C848.749 769.14 848.549 769.214 848.348 769.3C847.985 769.448 847.609 769.571 847.233 769.694C847.07 769.756 846.908 769.817 846.732 769.866C846.181 770.039 845.63 770.199 845.053 770.334C844.991 770.346 844.928 770.359 844.878 770.371C844.377 770.494 843.863 770.592 843.337 770.691C842.711 770.802 842.084 770.888 841.445 770.962C841.383 770.974 841.32 770.986 841.245 770.986C840.531 771.06 839.804 771.109 839.065 771.146C838.839 771.158 838.601 771.158 838.363 771.158C837.85 771.171 837.336 771.183 836.797 771.171C836.509 771.171 836.208 771.146 835.908 771.134C835.419 771.109 834.943 771.097 834.442 771.06C834.091 771.035 833.74 770.998 833.377 770.974C833.014 770.937 832.65 770.9 832.287 770.863C831.911 770.814 831.523 770.765 831.134 770.703C830.759 770.654 830.395 770.592 830.019 770.531C829.631 770.469 829.23 770.396 828.842 770.322C828.466 770.248 828.077 770.174 827.689 770.1C827.288 770.014 826.887 769.928 826.486 769.83C826.098 769.743 825.71 769.645 825.321 769.547C824.895 769.436 824.469 769.325 824.043 769.214C823.68 769.116 823.317 769.017 822.941 768.907C822.502 768.784 822.064 768.648 821.625 768.501C821.249 768.39 820.886 768.267 820.51 768.144C820.059 767.996 819.608 767.836 819.157 767.676C818.781 767.541 818.418 767.418 818.042 767.282C817.579 767.11 817.115 766.926 816.652 766.753C816.276 766.606 815.912 766.47 815.537 766.323C815.111 766.15 814.685 765.966 814.259 765.794C813.808 765.609 813.357 765.412 812.906 765.215C812.48 765.031 812.054 764.834 811.628 764.637C811.164 764.428 810.713 764.219 810.25 763.997C809.824 763.788 809.385 763.579 808.947 763.357C808.483 763.124 808.019 762.902 807.556 762.668C807.117 762.447 806.679 762.213 806.24 761.979C805.777 761.733 805.313 761.487 804.837 761.241C804.512 761.056 804.173 760.872 803.847 760.687C803.108 760.281 802.369 759.85 801.63 759.42C801.267 759.211 800.903 758.989 800.54 758.768C799.801 758.325 799.062 757.869 798.322 757.402C797.984 757.193 797.658 756.984 797.32 756.774C796.28 756.11 795.228 755.421 794.176 754.707C794.151 754.695 794.138 754.683 794.113 754.67C793.048 753.944 791.971 753.194 790.893 752.419C790.392 752.062 789.891 751.68 789.377 751.311C788.989 751.028 788.6 750.745 788.212 750.45C787.661 750.031 787.11 749.613 786.558 749.182C786.195 748.899 785.832 748.629 785.468 748.333C784.867 747.854 784.253 747.361 783.652 746.869C783.338 746.623 783.025 746.377 782.725 746.119C781.81 745.368 780.895 744.593 779.968 743.818C778.753 742.784 777.55 741.726 776.373 740.655C775.984 740.298 775.596 739.942 775.208 739.585C774.418 738.859 773.629 738.133 772.865 737.395C772.414 736.964 771.975 736.533 771.524 736.103C770.823 735.426 770.134 734.749 769.445 734.06C768.981 733.605 768.53 733.137 768.079 732.67C767.427 731.993 766.763 731.316 766.124 730.639C765.673 730.159 765.235 729.692 764.784 729.212C764.145 728.523 763.506 727.822 762.88 727.12C762.454 726.653 762.04 726.185 761.627 725.718C760.975 724.979 760.349 724.241 759.71 723.503C759.334 723.06 758.946 722.617 758.582 722.174C757.868 721.325 757.179 720.463 756.49 719.614C756.214 719.27 755.939 718.938 755.663 718.593C754.711 717.4 753.784 716.194 752.869 714.988C752.644 714.693 752.431 714.385 752.205 714.09C751.554 713.204 750.89 712.318 750.264 711.432C749.95 710.989 749.637 710.534 749.324 710.091C748.798 709.34 748.284 708.602 747.77 707.851C747.432 707.359 747.119 706.867 746.793 706.375C746.33 705.673 745.866 704.96 745.415 704.258C745.089 703.742 744.764 703.225 744.45 702.708C744.024 702.019 743.598 701.33 743.185 700.653C742.809 700.026 742.433 699.386 742.057 698.758C741.819 698.352 741.581 697.946 741.356 697.552C740.93 696.802 740.516 696.063 740.115 695.313C739.94 694.981 739.752 694.661 739.577 694.328C739 693.258 738.449 692.187 737.91 691.129C737.848 691.006 737.798 690.883 737.735 690.76C737.259 689.813 736.808 688.865 736.357 687.93C736.219 687.635 736.081 687.327 735.944 687.032C735.605 686.294 735.267 685.555 734.941 684.817C734.791 684.46 734.628 684.103 734.478 683.759C734.177 683.045 733.889 682.344 733.601 681.642C733.463 681.31 733.338 680.978 733.2 680.658C732.849 679.76 732.511 678.874 732.197 677.988C732.16 677.877 732.11 677.754 732.072 677.631C731.709 676.622 731.383 675.625 731.07 674.641C730.97 674.346 730.895 674.051 730.807 673.768C730.594 673.066 730.381 672.365 730.193 671.676C730.093 671.331 730.005 670.974 729.905 670.63C729.729 669.978 729.567 669.338 729.416 668.698C729.341 668.366 729.253 668.021 729.178 667.689C729.04 667.098 728.928 666.508 728.815 665.929C728.727 665.511 728.639 665.093 728.564 664.674C728.452 664.084 728.364 663.493 728.276 662.915C728.214 662.533 728.151 662.14 728.101 661.758C728.013 661.118 727.95 660.491 727.888 659.863C727.85 659.556 727.813 659.236 727.788 658.928C727.712 657.993 727.65 657.07 727.625 656.172V656.16C727.6 655.323 727.6 654.511 727.625 653.699C727.625 653.526 727.637 653.354 727.637 653.182C727.662 652.394 727.712 651.619 727.788 650.856C727.8 650.733 727.813 650.598 727.825 650.475C727.9 649.774 727.988 649.097 728.101 648.42C728.126 648.297 728.138 648.174 728.163 648.051C728.289 647.325 728.439 646.611 728.614 645.91C728.652 645.762 728.69 645.602 728.727 645.455C728.915 644.741 729.116 644.04 729.341 643.351C730.732 639.29 732.887 636.066 735.68 633.63L722.075 645.455C719.281 647.891 717.126 651.115 715.735 655.175C715.497 655.852 715.297 656.566 715.121 657.279C715.084 657.427 715.046 657.587 715.009 657.735C714.833 658.436 714.683 659.15 714.558 659.888C714.532 660.011 714.52 660.134 714.495 660.257C714.382 660.934 714.294 661.623 714.219 662.312C714.207 662.435 714.194 662.57 714.182 662.693C714.106 663.456 714.069 664.231 714.031 665.019C714.031 665.191 714.019 665.363 714.019 665.536C713.994 666.348 713.994 667.16 714.019 667.997V668.009C714.044 668.919 714.106 669.83 714.182 670.765C714.207 671.073 714.244 671.38 714.282 671.688C714.345 672.328 714.407 672.955 714.495 673.608C714.545 673.989 714.608 674.37 714.67 674.752C714.758 675.342 714.846 675.933 714.958 676.524C715.034 676.942 715.121 677.36 715.209 677.767C715.297 678.185 715.359 678.603 715.46 679.022C715.497 679.194 715.547 679.366 715.585 679.538C715.66 679.871 715.735 680.203 715.823 680.535C715.973 681.175 716.136 681.827 716.312 682.479C716.399 682.824 716.499 683.168 716.6 683.513C716.8 684.202 717.001 684.903 717.214 685.605C717.301 685.9 717.389 686.195 717.489 686.49C717.802 687.463 718.128 688.435 718.479 689.419C718.491 689.444 718.491 689.456 718.504 689.48C718.542 689.591 718.592 689.714 718.629 689.837C718.942 690.723 719.281 691.609 719.632 692.507C719.757 692.84 719.895 693.172 720.032 693.492C720.321 694.193 720.609 694.895 720.909 695.608C721.06 695.965 721.21 696.322 721.373 696.679C721.699 697.417 722.037 698.155 722.375 698.906C722.513 699.201 722.638 699.496 722.789 699.792C722.839 699.902 722.889 700.001 722.927 700.099C723.315 700.936 723.728 701.76 724.154 702.597C724.217 702.72 724.28 702.856 724.342 702.979C724.881 704.037 725.432 705.107 726.008 706.178C726.184 706.498 726.372 706.83 726.547 707.15C726.961 707.9 727.374 708.639 727.8 709.389C728.026 709.795 728.264 710.201 728.502 710.595C728.752 711.014 728.978 711.432 729.228 711.85C729.354 712.059 729.491 712.269 729.617 712.49C730.03 713.179 730.456 713.868 730.882 714.557C731.208 715.074 731.521 715.591 731.847 716.095C732.298 716.809 732.761 717.51 733.237 718.212C733.563 718.704 733.876 719.196 734.215 719.688C734.728 720.439 735.254 721.189 735.768 721.94C736.081 722.383 736.382 722.826 736.695 723.269C737.334 724.155 737.986 725.053 738.65 725.939C738.85 726.21 739.051 726.493 739.251 726.763C739.264 726.788 739.289 726.813 739.301 726.837C740.216 728.043 741.143 729.249 742.095 730.455C742.358 730.787 742.634 731.119 742.909 731.451C743.598 732.313 744.3 733.174 745.014 734.035C745.39 734.478 745.766 734.921 746.142 735.364C746.768 736.103 747.407 736.841 748.059 737.579C748.472 738.047 748.898 738.527 749.324 738.994C749.95 739.696 750.589 740.397 751.228 741.086C751.667 741.566 752.118 742.033 752.556 742.501C753.208 743.19 753.859 743.867 754.523 744.544C754.974 745.011 755.425 745.466 755.889 745.922C756.578 746.611 757.267 747.287 757.968 747.977C758.407 748.407 758.845 748.838 759.296 749.269C760.073 750.007 760.863 750.733 761.652 751.459C762.04 751.816 762.416 752.172 762.804 752.529C763.982 753.6 765.185 754.658 766.4 755.692C767.315 756.479 768.242 757.242 769.156 757.993C769.47 758.251 769.77 758.485 770.083 758.731C770.697 759.223 771.299 759.715 771.913 760.195C772.288 760.49 772.652 760.773 773.028 761.056C773.566 761.475 774.118 761.893 774.656 762.299C775.045 762.594 775.446 762.877 775.834 763.173C776.235 763.468 776.636 763.763 777.024 764.059C777.124 764.132 777.225 764.194 777.325 764.268C778.402 765.043 779.48 765.794 780.545 766.52C780.557 766.532 780.57 766.544 780.595 766.544C781.647 767.258 782.7 767.947 783.752 768.611C784.09 768.821 784.416 769.03 784.754 769.239C785.493 769.706 786.233 770.162 786.972 770.605C787.335 770.826 787.698 771.035 788.062 771.257C788.801 771.688 789.553 772.118 790.292 772.524C790.517 772.647 790.743 772.783 790.968 772.906C791.069 772.967 791.181 773.016 791.282 773.066C791.745 773.324 792.221 773.57 792.685 773.804C793.123 774.038 793.562 774.271 794 774.493C794.464 774.727 794.927 774.948 795.378 775.182C795.817 775.391 796.255 775.613 796.681 775.822C797.132 776.043 797.596 776.24 798.047 776.449C798.485 776.646 798.911 776.843 799.35 777.04C799.801 777.237 800.239 777.421 800.69 777.606C801.041 777.754 801.379 777.901 801.73 778.049C801.818 778.086 801.893 778.111 801.981 778.147C802.357 778.295 802.72 778.43 803.096 778.578C803.559 778.763 804.035 778.935 804.499 779.107C804.875 779.243 805.251 779.378 805.627 779.501C806.078 779.661 806.529 779.821 806.98 779.969C807.355 780.092 807.719 780.202 808.095 780.325C808.533 780.461 808.972 780.596 809.41 780.719C809.786 780.83 810.149 780.928 810.513 781.027C810.788 781.101 811.064 781.187 811.327 781.248C811.477 781.285 811.628 781.322 811.778 781.359C812.166 781.457 812.567 781.544 812.956 781.642C813.357 781.74 813.757 781.827 814.158 781.913C814.547 781.999 814.923 782.06 815.311 782.134C815.712 782.208 816.1 782.282 816.489 782.343C816.865 782.405 817.24 782.466 817.604 782.516C817.992 782.565 818.368 782.626 818.756 782.676C819.12 782.725 819.483 782.762 819.846 782.786C820.059 782.811 820.285 782.835 820.498 782.86C820.636 782.872 820.761 782.872 820.899 782.885C821.387 782.922 821.876 782.946 822.365 782.959C822.665 782.971 822.953 782.983 823.242 782.995C823.768 783.008 824.294 782.995 824.808 782.983C825.033 782.983 825.271 782.983 825.497 782.971C826.236 782.934 826.962 782.885 827.677 782.811C827.739 782.799 827.802 782.786 827.877 782.786C828.516 782.712 829.155 782.626 829.769 782.516C829.819 782.503 829.869 782.503 829.919 782.491C830.395 782.405 830.859 782.306 831.322 782.196C831.385 782.183 831.435 782.171 831.498 782.159C832.049 782.023 832.6 781.876 833.151 781.703Z" fill="url(#paint5_linear_18225_3680)"/>
<path opacity="0.7" d="M792.509 753.549C788.362 750.658 784.178 747.434 779.993 743.841C776.222 740.617 772.614 737.233 769.156 733.751L737.121 632.484C741.268 629.482 746.618 628.018 752.807 628.018L792.509 753.549ZM786.345 638.476C784.917 637.689 783.514 636.951 782.111 636.237L824.181 769.225C825.471 769.57 826.749 769.89 828.002 770.148L786.345 638.476ZM806.052 761.879C809.874 763.897 813.607 765.595 817.215 766.961L774.806 632.927C771.123 631.438 767.565 630.294 764.157 629.482L806.052 761.879ZM817.428 661.818C815.11 659.603 812.73 657.45 810.274 655.346C808.27 653.636 806.265 652.012 804.273 650.449L842.36 770.825C845.567 770.369 848.486 769.434 851.029 768.019L817.428 661.818Z" fill="url(#paint6_linear_18225_3680)"/>
</g>
<g style="mix-blend-mode:luminosity" filter="url(#filter1_d_18225_3680)">
<path d="M937.84 66.3635C895.364 39.3022 843.389 29.1007 821.764 43.5904C800.127 58.068 817.035 91.7511 859.51 118.812C901.986 145.874 953.962 156.075 975.586 141.586C997.21 127.096 980.316 93.4249 937.84 66.3635Z" fill="url(#paint7_linear_18225_3680)"/>
<path opacity="0.7" d="M937.84 66.3635C895.364 39.3022 843.389 29.1007 821.764 43.5904C800.127 58.068 817.035 91.7511 859.51 118.812C901.986 145.874 953.962 156.075 975.586 141.586C997.21 127.096 980.316 93.4249 937.84 66.3635ZM859.923 118.385C845.374 109.124 833.329 98.715 825.069 88.2814C810.173 69.4667 809.16 52.9611 822.364 44.1158C843.735 29.8093 895.338 39.9863 937.414 66.7789C951.963 76.0519 964.008 86.4488 972.269 96.8824C987.164 115.697 988.177 132.203 974.973 141.048C953.615 155.354 902 145.19 859.923 118.385Z" fill="url(#paint8_linear_18225_3680)"/>
<path d="M914.537 81.7822L910.82 74.4152L922.172 76.6632L925.889 84.0058L914.537 81.7822ZM870.956 101.11L874.686 108.465L886.025 110.713L882.321 103.358L870.956 101.11ZM966.526 135.954C947.513 148.684 901.493 139.595 863.934 115.661C826.375 91.7393 811.292 61.9046 830.318 49.1742C849.331 36.4438 895.365 45.5456 932.924 69.4794C970.47 93.4009 985.552 123.223 966.526 135.954ZM960.344 132.008C977.638 120.438 963.928 93.3276 929.793 71.5808C895.658 49.8339 853.808 41.5506 836.514 53.1204C819.22 64.6902 832.943 91.8126 867.078 113.572C901.214 135.319 943.05 143.59 960.344 132.008ZM946.621 119.705C946.274 119.424 940.425 115.82 937.694 114.146C943.33 109.613 939.359 102.161 929.94 96.162C915.776 87.1334 906.397 86.8036 897.283 86.828C891.008 86.7669 886.011 87.7809 880.375 84.1768C877.404 82.2831 877.125 80.4017 878.577 79.4243C880.176 78.3492 885.812 79.241 893.446 82.9307C893.739 82.8207 894.126 82.613 894.565 82.3198C896.097 81.2935 898.349 79.2166 899.841 76.7121C894.698 73.4378 876.871 62.0757 874.566 60.7562C874.566 60.7562 867.558 64.5558 867.105 64.5925C867.052 64.6291 870.929 67.2192 873.008 68.673C871.462 68.2821 868.131 67.9278 864.627 68.5875C860.27 65.9486 853.582 62.0146 853.488 62.0757C853.422 62.1246 850.677 63.6762 849.291 64.6047C848.772 64.959 848.439 65.2155 848.519 65.2766C848.812 65.4599 853.968 68.8807 858.218 71.4586C854.008 75.0627 857.552 83.2972 868.358 90.1755C880.535 97.9335 889.555 98.7643 899.175 99.0697C907.236 99.3507 913.192 98.2268 916.762 100.499C920.72 103.016 919.76 104.836 918.854 105.435C917.295 106.473 913.405 106.217 907.409 102.735C907.263 102.637 906.09 103.285 904.758 104.189C902.453 105.728 899.642 108.013 900.574 108.611C903.759 110.64 922.012 123.382 922.478 123.346C925.743 123.113 928.634 121.452 929.993 120.536C930.526 120.181 930.819 119.937 930.819 119.937L926.422 116.675C927.914 116.968 930.073 116.968 932.151 116.589C934.776 118.202 942.57 123.101 943.103 123.37C943.21 123.431 943.423 123.333 943.69 123.15C944.822 122.38 946.98 119.986 946.621 119.705Z" fill="url(#paint9_linear_18225_3680)"/>
<path d="M914.977 81.2447L911.26 73.8776L922.612 76.1256L926.329 83.4682L914.977 81.2447ZM871.396 100.56L875.126 107.915L886.465 110.163L882.761 102.808L871.396 100.56ZM966.966 135.404C947.953 148.134 901.933 139.045 864.374 115.111C826.815 91.1896 811.732 61.3548 830.758 48.6244C849.771 35.8939 895.805 44.9958 933.364 68.9296C970.91 92.8633 985.992 122.674 966.966 135.404ZM960.784 131.47C978.078 119.9 964.368 92.79 930.233 71.0432C896.098 49.2964 854.248 41.013 836.954 52.5828C819.66 64.1526 833.383 91.2751 867.518 113.034C901.654 134.769 943.49 143.04 960.784 131.47ZM947.061 119.155C946.714 118.874 940.865 115.27 938.134 113.596C943.77 109.064 939.799 101.611 930.379 95.6122C916.216 86.5836 906.837 86.2537 897.723 86.2782C891.448 86.2171 886.451 87.2311 880.815 83.627C877.844 81.7333 877.564 79.8519 879.017 78.8745C880.616 77.7994 886.251 78.6912 893.886 82.3809C894.179 82.2709 894.565 82.0632 895.005 81.77C896.537 80.7437 898.789 78.6668 900.281 76.1622C895.138 72.888 877.311 61.5259 875.006 60.2064C875.006 60.2064 867.998 64.006 867.545 64.0426C867.492 64.0793 871.369 66.6694 873.447 68.1233C871.902 67.7323 868.571 67.378 865.067 68.0377C860.71 65.3988 854.022 61.4648 853.928 61.5259C853.862 61.5747 851.117 63.1264 849.731 64.0549C849.212 64.4092 848.879 64.6658 848.959 64.7146C849.252 64.8979 854.408 68.3187 858.658 70.8966C854.448 74.5007 857.992 82.723 868.797 89.6135C880.975 97.3715 889.995 98.2023 899.615 98.5077C907.676 98.7887 913.632 97.6647 917.202 99.9371C921.159 102.454 920.2 104.274 919.294 104.873C917.735 105.911 913.845 105.655 907.849 102.173C907.703 102.075 906.53 102.723 905.198 103.627C902.893 105.166 900.081 107.451 901.014 108.049C904.198 110.078 922.452 122.82 922.918 122.784C926.182 122.551 929.074 120.89 930.433 119.974C930.966 119.619 931.259 119.375 931.259 119.375L926.862 116.113C928.354 116.406 930.513 116.406 932.591 116.027C935.216 117.64 943.01 122.539 943.543 122.808C943.65 122.869 943.863 122.771 944.129 122.588C945.262 121.831 947.434 119.436 947.061 119.155Z" fill="url(#paint10_linear_18225_3680)"/>
<path opacity="0.7" d="M947.061 119.155C946.714 118.874 940.865 115.269 938.134 113.596C943.77 109.063 939.799 101.611 930.379 95.6118C916.216 86.5832 906.837 86.2533 897.723 86.2777C891.448 86.2167 886.451 87.2307 880.815 83.6266C877.844 81.7329 877.564 79.8514 879.017 78.8741C880.616 77.7989 886.251 78.6908 893.886 82.3804C894.179 82.2705 894.565 82.0628 895.005 81.7696C896.537 80.7433 898.789 78.6664 900.281 76.1618C895.138 72.8876 877.311 61.5255 875.006 60.206C875.006 60.206 867.998 64.0056 867.545 64.0422C867.492 64.0789 871.369 66.669 873.447 68.1228C871.902 67.7319 868.571 67.3776 865.067 68.0373C860.71 65.3984 854.022 61.4644 853.928 61.5254C853.862 61.5743 851.117 63.1259 849.731 64.0544C849.212 64.4087 848.879 64.6653 848.959 64.7142C849.252 64.8974 854.408 68.3183 858.658 70.8961C854.448 74.5003 857.992 82.7225 868.797 89.6131C880.975 97.3711 889.995 98.2019 899.615 98.5073C907.676 98.7883 913.632 97.6643 917.202 99.9367C921.159 102.453 920.2 104.274 919.294 104.873C917.735 105.911 913.845 105.654 907.849 102.172C907.703 102.075 906.53 102.722 905.198 103.626C902.893 105.166 900.081 107.45 901.014 108.049C904.198 110.077 922.452 122.82 922.918 122.783C926.183 122.551 929.074 120.889 930.433 119.973C930.966 119.619 931.259 119.374 931.259 119.374L926.862 116.112C928.354 116.406 930.513 116.406 932.591 116.027C935.216 117.64 943.01 122.539 943.543 122.808C943.65 122.869 943.863 122.771 944.129 122.588C945.262 121.83 947.434 119.436 947.061 119.155ZM943.637 122.441C943.05 122.099 940.306 120.388 937.867 118.874C935.882 117.64 933.897 116.393 932.804 115.721L932.671 115.636L932.511 115.66C930.579 116.015 928.448 116.039 926.942 115.746L926.609 116.393L930.633 119.374C930.513 119.46 930.366 119.558 930.206 119.668C928.834 120.584 926.089 122.148 922.985 122.392C922.105 121.965 915.484 117.42 910.128 113.742C906.224 111.067 902.52 108.525 901.254 107.719C901.121 107.377 902.506 105.862 905.438 103.895C906.623 103.101 907.463 102.637 907.769 102.527C913.978 106.106 917.909 106.229 919.534 105.141C920.28 104.64 921.159 103.333 919.761 101.574C919.254 100.926 918.468 100.267 917.442 99.6068C914.844 97.9575 911.087 98.0186 906.344 98.1163C904.345 98.153 902.067 98.2019 899.655 98.1163C890.009 97.8109 881.055 96.9435 869.051 89.2954C865.467 87.0108 862.482 84.4329 860.43 81.8429C856.953 77.4446 856.38 73.3396 858.951 71.1405L859.324 70.8228L858.898 70.5663C856.46 69.088 853.329 67.0966 849.571 64.6287L849.545 64.6164C849.638 64.5431 849.785 64.4454 849.971 64.3232C851.09 63.578 853.102 62.4051 853.862 61.9775C853.902 61.9531 853.928 61.9408 853.955 61.9164C855.021 62.4662 860.643 65.7649 864.854 68.3183L864.987 68.4038L865.147 68.3794C868.731 67.7074 871.982 68.1228 873.341 68.4649L873.687 67.8174C872.821 67.2187 871.649 66.4124 870.57 65.6794C869.743 65.1174 868.837 64.4943 868.291 64.1155C869.624 63.5047 872.501 61.9775 874.993 60.6214C876.952 61.782 885.266 67.0355 899.748 76.2595C898.269 78.6297 896.164 80.5234 894.765 81.4641C894.446 81.684 894.139 81.8551 893.899 81.965C886.958 78.6419 880.762 77.2492 878.777 78.5686C877.525 79.3994 877.418 80.78 878.497 82.1361C878.977 82.747 879.67 83.3334 880.576 83.9076C885.239 86.8764 889.396 86.7787 894.219 86.6687C895.338 86.6443 896.511 86.6076 897.71 86.6321C907.809 86.6076 916.603 87.2674 930.153 95.905C933.337 97.9331 935.962 100.181 937.721 102.405C941.158 106.742 941.212 110.615 937.867 113.302L937.481 113.62L937.907 113.889C942.717 116.833 945.981 118.861 946.661 119.326C946.421 119.863 944.916 121.586 943.876 122.282C943.77 122.38 943.69 122.417 943.637 122.441ZM871.396 100.56L875.126 107.915L886.465 110.163L882.761 102.808L871.396 100.56ZM885.772 109.649L875.406 107.597L872.102 101.073L882.481 103.125L885.772 109.649ZM926.316 83.48L922.598 76.1374L911.247 73.8894L914.964 81.2564L926.316 83.48ZM911.953 74.3903L922.332 76.4428L925.623 82.9546L915.257 80.9144L911.953 74.3903ZM933.364 68.9291C895.805 45.0076 849.785 35.8935 830.758 48.624C811.746 61.3544 826.828 91.1891 864.374 115.111C901.933 139.032 947.953 148.134 966.966 135.404C985.992 122.673 970.91 92.8629 933.364 68.9291ZM864.601 114.817C851.637 106.559 840.884 97.2734 833.516 87.976C820.313 71.3115 819.367 56.7118 830.985 48.9294C849.878 36.2845 895.698 45.3986 933.124 69.2346C946.088 77.4935 956.84 86.7786 964.208 96.076C977.412 112.74 978.345 127.328 966.726 135.11C947.847 147.768 902.027 138.653 864.601 114.817ZM958.892 95.2941C952.15 86.7787 942.317 78.2876 930.459 70.7251C896.191 48.8927 854.128 40.6094 836.714 52.277C825.762 59.6074 826.561 73.2419 838.846 88.7579C845.588 97.2733 855.421 105.764 867.279 113.327C901.547 135.159 943.597 143.43 961.011 131.763C971.963 124.432 971.163 110.798 958.892 95.2941ZM867.505 113.021C833.37 91.2747 819.647 64.1522 836.941 52.5702C854.235 41.0004 896.071 49.2837 930.22 71.0305C964.355 92.7773 978.065 119.888 960.771 131.457C943.49 143.039 901.654 134.768 867.505 113.021Z" fill="url(#paint11_linear_18225_3680)"/>
<path d="M964.048 158.469C964.062 158.457 964.075 158.457 964.088 158.445C964.834 158.03 965.554 157.602 966.247 157.138C966.3 157.101 966.34 157.077 966.393 157.04C966.7 156.832 966.966 156.6 967.259 156.392C967.632 156.111 968.019 155.843 968.365 155.549C968.392 155.525 968.418 155.513 968.445 155.488C968.698 155.268 968.925 155.036 969.165 154.816C969.498 154.511 969.844 154.206 970.164 153.888C970.191 153.863 970.23 153.827 970.257 153.802C970.47 153.582 970.644 153.338 970.843 153.118C971.136 152.776 971.443 152.446 971.709 152.092C971.736 152.055 971.776 152.019 971.816 151.97C972.216 151.444 972.575 150.895 972.909 150.345L982.262 134.792C981.902 135.391 981.502 135.965 981.063 136.539C980.796 136.894 980.49 137.223 980.197 137.566C979.97 137.822 979.77 138.091 979.517 138.335C979.211 138.653 978.864 138.958 978.518 139.264C978.251 139.508 977.998 139.765 977.718 139.997C977.372 140.29 976.986 140.559 976.613 140.84C976.279 141.084 975.96 141.353 975.6 141.597C974.907 142.062 974.188 142.489 973.441 142.905C973.308 142.978 973.162 143.039 973.028 143.112C972.362 143.467 971.683 143.809 970.963 144.126C970.297 144.419 969.618 144.7 968.925 144.957C968.778 145.006 968.645 145.055 968.498 145.116C967.739 145.385 966.966 145.653 966.167 145.886C966.127 145.898 966.074 145.91 966.034 145.922C965.287 146.142 964.528 146.338 963.742 146.521C963.515 146.57 963.289 146.631 963.062 146.68C962.223 146.863 961.37 147.046 960.491 147.205C960.478 147.205 960.464 147.205 960.451 147.205C959.558 147.364 958.652 147.486 957.72 147.608C957.426 147.645 957.12 147.682 956.827 147.706C956.201 147.779 955.574 147.84 954.935 147.889C954.429 147.938 953.922 147.962 953.403 147.999C952.843 148.036 952.284 148.072 951.724 148.097C951.204 148.121 950.671 148.134 950.138 148.146C949.512 148.158 948.873 148.17 948.233 148.17C947.873 148.17 947.527 148.17 947.167 148.17C946.368 148.158 945.568 148.146 944.756 148.109C944.489 148.097 944.223 148.097 943.956 148.085C942.877 148.036 941.798 147.975 940.692 147.889C940.439 147.865 940.199 147.84 939.946 147.828C939.146 147.767 938.334 147.694 937.521 147.608C936.055 147.462 934.576 147.291 933.071 147.083C933.004 147.071 932.938 147.058 932.871 147.058C931.432 146.851 929.966 146.619 928.487 146.362C928.021 146.277 927.555 146.191 927.075 146.105C925.943 145.898 924.797 145.678 923.651 145.434C923.171 145.336 922.692 145.238 922.212 145.128C920.746 144.81 919.281 144.468 917.802 144.102C917.682 144.077 917.562 144.041 917.442 144.016C915.67 143.576 913.871 143.088 912.073 142.575C911.62 142.44 911.153 142.306 910.7 142.171C909.035 141.683 907.356 141.17 905.664 140.62C905.504 140.571 905.331 140.522 905.171 140.461C904.851 140.351 904.532 140.241 904.212 140.131C903.226 139.801 902.24 139.471 901.241 139.117C900.761 138.946 900.281 138.763 899.788 138.592C899.016 138.311 898.256 138.03 897.483 137.749C895.698 137.077 893.926 136.393 892.141 135.66C891.754 135.501 891.354 135.33 890.968 135.171C889.742 134.658 888.503 134.133 887.277 133.595C886.704 133.351 886.132 133.094 885.572 132.837C884.599 132.398 883.613 131.946 882.641 131.494C882.055 131.213 881.468 130.944 880.882 130.663C879.949 130.211 879.017 129.759 878.084 129.294C877.511 129.013 876.952 128.732 876.379 128.439C875.433 127.951 874.487 127.45 873.527 126.949C873.008 126.68 872.501 126.411 871.982 126.13C870.943 125.568 869.903 124.982 868.864 124.395C868.478 124.175 868.078 123.968 867.692 123.748C866.266 122.941 864.854 122.111 863.455 121.255C862.136 120.461 860.817 119.643 859.511 118.812C859.111 118.555 858.711 118.287 858.312 118.03C857.299 117.37 856.287 116.711 855.301 116.051C854.888 115.77 854.475 115.489 854.062 115.208C853.102 114.548 852.156 113.888 851.224 113.216C850.877 112.972 850.517 112.716 850.171 112.471C848.892 111.543 847.653 110.614 846.427 109.686C846.241 109.539 846.054 109.392 845.867 109.246C844.762 108.378 843.669 107.511 842.603 106.644C842.297 106.399 841.99 106.143 841.697 105.898C840.378 104.799 839.099 103.699 837.86 102.6C837.394 102.184 836.941 101.769 836.488 101.353C836.154 101.048 835.808 100.73 835.475 100.425C834.969 99.9484 834.476 99.472 833.983 99.0077C833.69 98.7267 833.396 98.4457 833.103 98.1647C832.904 97.9692 832.717 97.7738 832.517 97.5783C831.824 96.8941 831.158 96.2099 830.505 95.5258C830.212 95.2203 829.932 94.9149 829.653 94.6217C829.106 94.0352 828.573 93.461 828.054 92.8746C827.774 92.5569 827.494 92.2515 827.228 91.9461C826.655 91.2864 826.082 90.6144 825.536 89.9547C825.336 89.7103 825.123 89.466 824.923 89.2216C824.203 88.3298 823.497 87.4379 822.844 86.546C822.724 86.3872 822.604 86.2162 822.484 86.0574C821.951 85.3243 821.432 84.6035 820.939 83.8704C820.739 83.5772 820.552 83.2962 820.366 83.003C819.953 82.3799 819.553 81.769 819.18 81.146C819.007 80.865 818.82 80.5718 818.661 80.2908C818.221 79.5577 817.808 78.8369 817.421 78.1161C817.341 77.9695 817.262 77.8229 817.182 77.6885C816.729 76.8333 816.302 75.978 815.903 75.1228C815.796 74.8907 815.703 74.6586 815.596 74.4264C815.316 73.8034 815.063 73.1925 814.81 72.5694C814.703 72.2884 814.597 72.0074 814.49 71.7264C814.264 71.1278 814.064 70.5291 813.877 69.9427C813.797 69.6984 813.717 69.4662 813.651 69.2219C813.411 68.4155 813.198 67.6092 813.025 66.8151C813.011 66.7295 812.998 66.644 812.971 66.5463C812.825 65.8377 812.705 65.1413 812.598 64.4571C812.558 64.2128 812.545 63.9684 812.518 63.7241C812.452 63.1865 812.412 62.6367 812.385 62.1114C812.372 61.867 812.358 61.6105 812.358 61.3662C812.345 60.7797 812.358 60.1933 812.385 59.6191C812.398 59.4602 812.385 59.3014 812.398 59.1426C812.452 58.4218 812.545 57.7131 812.665 57.0168C812.692 56.8457 812.745 56.6747 812.771 56.4914C812.878 55.9661 812.998 55.453 813.145 54.9398C813.211 54.7199 813.278 54.4878 813.358 54.2679C813.518 53.7914 813.691 53.3394 813.877 52.8751C813.957 52.6796 814.037 52.4719 814.13 52.2887C814.424 51.6534 814.73 51.0303 815.103 50.4316L805.75 65.9843C805.39 66.583 805.07 67.206 804.777 67.8413C804.684 68.0368 804.617 68.2323 804.524 68.4278C804.338 68.8798 804.164 69.344 804.005 69.8205C803.938 70.0404 803.858 70.2603 803.791 70.4925C803.645 71.0056 803.525 71.5187 803.418 72.0441C803.378 72.2151 803.338 72.3862 803.312 72.5694C803.192 73.2658 803.098 73.9744 803.045 74.6952C803.032 74.854 803.032 75.0129 803.032 75.1717C803.005 75.7459 802.992 76.3201 803.005 76.9188C803.005 77.1631 803.019 77.4197 803.032 77.6641C803.059 78.2016 803.098 78.7392 803.165 79.2767C803.192 79.5211 803.218 79.7654 803.245 80.0098C803.338 80.6939 803.458 81.3903 803.605 82.0989C803.618 82.1844 803.631 82.2822 803.658 82.3677C803.831 83.1618 804.044 83.9682 804.284 84.7745C804.351 85.0066 804.431 85.251 804.511 85.4954C804.697 86.0818 804.897 86.6804 805.124 87.2791C805.23 87.5601 805.337 87.8411 805.443 88.1221C805.683 88.7329 805.95 89.356 806.23 89.9669C806.336 90.199 806.429 90.4311 806.536 90.6755C806.936 91.5185 807.349 92.3737 807.815 93.2411C807.895 93.3877 807.975 93.5343 808.055 93.6687C808.441 94.3895 808.854 95.1226 809.294 95.8434C809.467 96.1244 809.64 96.4054 809.814 96.6986C810.2 97.3095 810.586 97.9326 810.999 98.5556C811.186 98.8489 811.386 99.1299 811.572 99.4231C812.065 100.156 812.585 100.877 813.131 101.61C813.251 101.769 813.358 101.928 813.478 102.099C814.144 102.991 814.837 103.882 815.569 104.774C815.769 105.019 815.969 105.263 816.169 105.495C816.715 106.167 817.288 106.827 817.861 107.499C817.981 107.645 818.101 107.792 818.234 107.926C818.381 108.097 818.541 108.256 818.687 108.427C819.207 109.014 819.74 109.6 820.286 110.174C820.566 110.48 820.846 110.773 821.139 111.078C821.792 111.763 822.471 112.447 823.151 113.131C823.31 113.29 823.457 113.449 823.617 113.607C823.657 113.644 823.697 113.681 823.724 113.717C824.003 113.998 824.31 114.279 824.603 114.56C825.096 115.037 825.576 115.513 826.082 115.978C826.415 116.295 826.761 116.601 827.108 116.918C827.494 117.273 827.881 117.639 828.28 117.993C828.347 118.054 828.413 118.103 828.48 118.164C829.719 119.264 830.998 120.364 832.317 121.463C832.451 121.573 832.557 121.683 832.69 121.781C832.864 121.927 833.05 122.062 833.223 122.208C834.289 123.076 835.368 123.943 836.488 124.811C836.634 124.921 836.754 125.031 836.901 125.141C836.941 125.177 836.994 125.214 837.034 125.238C838.246 126.179 839.499 127.108 840.778 128.024C840.884 128.109 840.991 128.183 841.098 128.268C841.337 128.439 841.591 128.61 841.817 128.781C842.75 129.453 843.696 130.113 844.655 130.773C844.881 130.932 845.108 131.09 845.334 131.249C845.521 131.371 845.708 131.494 845.894 131.616C846.88 132.288 847.893 132.947 848.919 133.607C849.158 133.766 849.398 133.925 849.638 134.084C849.798 134.181 849.944 134.279 850.104 134.389C851.383 135.208 852.676 136.014 853.982 136.796C854.008 136.808 854.022 136.82 854.048 136.833C855.447 137.688 856.859 138.506 858.285 139.325C858.325 139.349 858.352 139.362 858.392 139.386C858.751 139.594 859.098 139.777 859.458 139.972C860.497 140.559 861.536 141.145 862.575 141.707C862.669 141.756 862.749 141.805 862.842 141.854C863.268 142.086 863.694 142.294 864.121 142.514C865.067 143.014 866.013 143.515 866.972 144.004C867.132 144.09 867.292 144.175 867.452 144.248C867.865 144.456 868.265 144.652 868.678 144.847C869.61 145.311 870.543 145.776 871.476 146.228C871.715 146.35 871.955 146.472 872.195 146.582C872.541 146.741 872.888 146.9 873.234 147.058C874.207 147.51 875.193 147.963 876.165 148.402C876.499 148.549 876.818 148.708 877.151 148.854C877.391 148.964 877.631 149.062 877.871 149.16C879.097 149.697 880.336 150.223 881.562 150.736C881.868 150.858 882.174 151.005 882.494 151.127C882.574 151.163 882.667 151.188 882.747 151.225C884.533 151.958 886.305 152.642 888.09 153.314C888.25 153.375 888.397 153.436 888.556 153.497C889.169 153.729 889.796 153.937 890.408 154.169C890.888 154.34 891.368 154.523 891.847 154.682C892.847 155.036 893.833 155.366 894.819 155.696C895.138 155.806 895.458 155.916 895.778 156.026C895.818 156.038 895.858 156.05 895.898 156.063C896.018 156.099 896.138 156.136 896.271 156.173C897.963 156.722 899.642 157.235 901.307 157.724C901.76 157.859 902.227 157.993 902.68 158.127C904.478 158.64 906.277 159.129 908.049 159.569C908.062 159.569 908.076 159.581 908.102 159.581C908.209 159.606 908.302 159.63 908.409 159.654C909.888 160.021 911.367 160.363 912.819 160.681C913.299 160.791 913.778 160.888 914.258 160.986C915.404 161.231 916.549 161.45 917.682 161.658C918.148 161.744 918.615 161.829 919.081 161.915C920.56 162.171 922.025 162.403 923.464 162.611C923.531 162.623 923.598 162.636 923.664 162.636C925.17 162.843 926.649 163.014 928.114 163.161C928.261 163.173 928.421 163.198 928.581 163.21C929.247 163.271 929.886 163.32 930.539 163.381C930.792 163.405 931.046 163.43 931.285 163.442C932.391 163.527 933.471 163.588 934.55 163.637C934.816 163.65 935.083 163.65 935.349 163.662C936.162 163.686 936.961 163.711 937.761 163.723C938.12 163.723 938.467 163.723 938.827 163.723C939.16 163.723 939.493 163.735 939.826 163.723C940.132 163.723 940.439 163.698 940.745 163.698C941.278 163.686 941.798 163.674 942.331 163.65C942.904 163.625 943.45 163.588 944.01 163.552C944.529 163.515 945.035 163.479 945.542 163.442C945.768 163.417 946.008 163.417 946.235 163.393C946.648 163.356 947.034 163.295 947.447 163.259C947.74 163.222 948.047 163.197 948.34 163.161C949.259 163.039 950.165 162.917 951.058 162.758C951.071 162.758 951.084 162.758 951.098 162.745C951.977 162.587 952.83 162.416 953.669 162.232C953.896 162.183 954.122 162.122 954.335 162.074C954.589 162.012 954.842 161.964 955.081 161.902C955.601 161.768 956.121 161.621 956.627 161.475C956.667 161.463 956.707 161.45 956.747 161.438C957.32 161.267 957.893 161.084 958.452 160.901C958.666 160.827 958.879 160.742 959.092 160.669C959.238 160.62 959.372 160.571 959.518 160.51C960.158 160.278 960.771 160.033 961.384 159.764C961.45 159.74 961.503 159.703 961.557 159.679C962.263 159.361 962.956 159.019 963.622 158.665C963.795 158.579 963.928 158.53 964.048 158.469Z" fill="url(#paint12_linear_18225_3680)"/>
<path opacity="0.7" d="M958.492 147.474L827.774 92.5083C824.536 88.8431 821.765 85.2023 819.513 81.6349L969.498 144.701C966.22 145.983 962.529 146.9 958.492 147.474ZM984.753 127.731L812.985 55.502C812.412 57.75 812.252 60.1568 812.438 62.6736L982.542 134.194C983.661 132.202 984.393 130.028 984.753 127.731ZM978.957 138.849C979.744 138.091 980.436 137.285 981.063 136.454L812.838 65.7157C813.065 66.913 813.344 68.1225 813.717 69.3687L978.957 138.849ZM968.019 90.9566L840.778 37.457C833.183 38.2878 826.681 40.2914 821.752 43.5901C821.565 43.7123 821.392 43.8589 821.219 43.9933L982.102 111.641C979.317 105.043 974.561 98.0305 968.019 90.9566Z" fill="url(#paint13_linear_18225_3680)"/>
</g>
<g style="mix-blend-mode:luminosity">
<path d="M625.522 743.324C625.522 743.314 625.522 743.294 625.522 743.284C625.522 743.204 625.492 742.734 625.402 742.024C625.392 741.964 625.382 741.904 625.372 741.834C625.362 741.744 625.342 741.654 625.332 741.564C624.972 739.304 624.162 737.164 623.002 735.274L622.992 735.264C622.862 735.054 622.732 734.854 622.592 734.654C621.942 733.694 621.192 732.794 620.362 731.984C619.972 731.594 619.492 731.174 619.072 730.844C618.792 730.624 618.502 730.404 618.212 730.194C618.202 730.184 618.182 730.174 618.172 730.164L618.132 730.134C618.082 730.094 618.032 730.064 617.982 730.024C617.792 729.894 617.582 729.754 617.362 729.624C617.352 729.614 617.342 729.614 617.342 729.604C617.232 729.534 617.122 729.474 617.002 729.404C616.952 729.374 616.892 729.344 616.842 729.314C616.792 729.284 616.752 729.264 616.702 729.234C616.662 729.214 616.632 729.194 616.592 729.174C615.912 728.804 615.202 728.474 614.472 728.194C614.282 728.124 614.132 728.064 614.052 728.034L613.922 727.984L613.792 727.934C613.782 727.934 613.782 727.934 613.772 727.924L613.742 727.914C613.682 727.894 613.592 727.864 613.532 727.844L613.502 727.834C613.492 727.834 613.482 727.824 613.472 727.824L613.322 727.774C613.262 727.754 613.182 727.734 613.132 727.714L612.962 727.664C612.932 727.654 612.902 727.644 612.872 727.634C612.862 727.634 612.852 727.624 612.842 727.624C612.832 727.624 612.822 727.614 612.812 727.614C612.792 727.604 612.772 727.604 612.762 727.604L612.572 727.554C612.522 727.544 612.462 727.524 612.412 727.514C612.362 727.504 612.312 727.494 612.262 727.474H612.252C612.222 727.464 612.192 727.464 612.162 727.454C612.102 727.444 612.032 727.424 611.982 727.414L611.852 727.384C611.792 727.374 611.732 727.364 611.682 727.344C611.672 727.344 611.662 727.344 611.652 727.334C611.612 727.324 611.562 727.314 611.522 727.304L611.442 727.294L611.352 727.274C611.342 727.274 611.342 727.274 611.332 727.274L611.302 727.264C611.282 727.264 611.262 727.254 611.252 727.254C611.202 727.244 611.162 727.234 611.112 727.234C611.082 727.224 611.052 727.224 611.022 727.214C610.972 727.204 610.922 727.194 610.862 727.194L610.732 727.174C610.712 727.174 610.682 727.164 610.652 727.164C610.612 727.154 610.572 727.154 610.532 727.144C610.492 727.134 610.452 727.134 610.412 727.124C610.352 727.114 610.282 727.104 610.222 727.104L610.042 727.084C610.022 727.084 610.002 727.084 609.982 727.074H609.972C609.922 727.074 609.862 727.064 609.812 727.064C609.732 727.054 609.652 727.054 609.572 727.044C609.512 727.044 609.462 727.034 609.402 727.034C609.342 727.034 609.282 727.024 609.212 727.024C609.152 727.024 609.082 727.014 609.022 727.014C608.982 727.014 608.942 727.014 608.902 727.014L608.792 727.004C608.762 727.004 608.742 727.004 608.712 727.004C608.682 727.004 608.652 727.004 608.622 727.004C608.272 726.994 607.932 727.004 607.582 727.014C607.502 727.014 607.432 727.024 607.362 727.024C607.282 727.024 607.212 727.034 607.132 727.034C607.082 727.034 607.032 727.044 606.992 727.044C606.882 727.054 606.772 727.064 606.662 727.074C606.622 727.074 606.582 727.084 606.542 727.084C606.382 727.104 606.232 727.114 606.082 727.134C606.012 727.144 605.942 727.154 605.872 727.164C605.872 727.164 605.882 727.164 605.892 727.164C605.882 727.164 605.882 727.164 605.872 727.164C605.862 727.164 605.842 727.164 605.832 727.174C605.712 727.194 605.612 727.204 605.502 727.224C605.422 727.234 605.332 727.254 605.252 727.264C605.062 727.294 604.912 727.324 604.812 727.344C604.312 727.444 603.822 727.574 603.332 727.724C603.042 727.804 602.782 727.894 602.462 728.004C601.132 728.484 599.852 729.124 598.662 729.924C598.542 730.004 598.422 730.084 598.312 730.164C598.292 730.174 598.282 730.184 598.262 730.194C598.062 730.334 597.862 730.484 597.662 730.644C597.642 730.654 597.632 730.664 597.612 730.684L597.592 730.694C597.592 730.694 597.582 730.704 597.572 730.704C597.562 730.714 597.552 730.714 597.552 730.724C597.542 730.724 597.542 730.734 597.532 730.734C597.482 730.774 597.422 730.824 597.372 730.864C597.262 730.954 597.162 731.044 597.062 731.124C597.002 731.174 596.952 731.224 596.892 731.274C596.772 731.374 596.672 731.474 596.562 731.564C596.562 731.564 596.552 731.574 596.542 731.574L596.532 731.584C596.512 731.604 596.482 731.624 596.462 731.654C595.922 732.154 595.602 732.514 595.582 732.544C595.412 732.724 595.252 732.914 595.092 733.104C594.982 733.234 594.862 733.384 594.742 733.534C594.732 733.544 594.722 733.554 594.712 733.564L594.692 733.584C594.452 733.884 594.202 734.234 593.922 734.644L593.912 734.654C593.912 734.654 593.912 734.664 593.902 734.664C593.902 734.674 593.892 734.674 593.892 734.684C593.762 734.874 593.632 735.084 593.502 735.304C593.392 735.494 593.272 735.684 593.182 735.844L592.862 736.484C592.752 736.694 592.652 736.894 592.562 737.074C592.392 737.424 592.202 737.894 592.022 738.394V738.404C591.872 738.834 591.722 739.294 591.602 739.734V739.754C591.602 739.764 591.602 739.764 591.602 739.774C591.442 740.344 591.322 740.894 591.262 741.314C591.032 742.914 591.022 743.044 591.002 744.104C590.982 745.434 591.122 746.384 591.192 746.844C591.382 748.164 591.702 749.164 591.812 749.494C592.182 750.664 592.512 751.354 592.832 752.014C593.032 752.424 593.182 752.714 593.382 753.034C593.622 753.434 593.882 753.834 594.152 754.224C594.182 754.274 594.212 754.314 594.252 754.364C594.522 754.774 594.932 755.284 595.272 755.644C595.522 755.914 595.842 756.274 596.102 756.534C596.362 756.794 596.702 757.124 596.982 757.354C597.292 757.624 597.412 757.734 597.702 757.944C598.052 758.224 598.412 758.474 598.772 758.714C598.892 758.794 599.002 758.864 599.122 758.944C599.262 759.034 599.402 759.114 599.522 759.184C599.592 759.224 599.682 759.274 599.782 759.334C599.802 759.344 599.812 759.354 599.832 759.364C599.942 759.424 600.072 759.494 600.212 759.564C600.242 759.584 600.272 759.594 600.302 759.614C600.722 759.834 601.252 760.084 601.832 760.324C601.962 760.374 602.132 760.444 602.342 760.524C602.402 760.544 602.462 760.574 602.512 760.594L602.822 760.704C602.882 760.724 602.972 760.754 603.032 760.774L603.112 760.794C603.122 760.794 603.122 760.794 603.132 760.794L603.252 760.834C603.312 760.854 603.392 760.874 603.442 760.894L603.632 760.944C603.632 760.944 603.642 760.944 603.652 760.944C604.392 761.154 605.102 761.304 605.782 761.394L605.842 761.404C605.902 761.414 605.962 761.424 606.032 761.434C606.042 761.434 606.042 761.434 606.052 761.434C606.112 761.444 606.172 761.454 606.222 761.454L606.602 761.494C606.772 761.514 607.002 761.524 607.172 761.544C607.332 761.554 607.522 761.564 607.712 761.574C607.802 761.574 607.892 761.584 607.972 761.584C608.212 761.584 608.532 761.584 608.762 761.584C609.002 761.584 609.332 761.554 609.572 761.544C610.092 761.494 610.782 761.414 611.292 761.324C611.692 761.254 612.222 761.144 612.612 761.034C612.712 761.004 612.812 760.974 612.922 760.944C613.232 760.854 613.552 760.754 613.812 760.674L614.122 760.554C614.372 760.464 614.622 760.374 614.862 760.274L614.982 760.224C615.272 760.114 615.622 759.944 615.932 759.784C616.062 759.714 616.202 759.654 616.332 759.584C616.692 759.404 617.132 759.154 617.452 758.944C617.462 758.934 617.472 758.924 617.482 758.924C617.782 758.734 618.072 758.544 618.352 758.334C618.412 758.294 618.482 758.244 618.532 758.204L618.842 757.954C618.922 757.884 619.012 757.824 619.092 757.754L619.562 757.374C619.742 757.234 620.062 756.944 620.542 756.464C620.552 756.454 620.562 756.444 620.562 756.444L620.612 756.394C620.862 756.134 621.142 755.834 621.472 755.464C621.482 755.454 621.482 755.444 621.492 755.434C621.812 755.064 622.352 754.404 622.932 753.464C622.942 753.454 622.942 753.444 622.942 753.444C623.072 753.234 623.212 753.004 623.342 752.754C623.402 752.654 623.452 752.544 623.512 752.434C623.592 752.284 623.672 752.144 623.732 752.004C623.752 751.964 623.772 751.914 623.792 751.874C623.902 751.644 624.012 751.404 624.122 751.154C624.272 750.814 624.412 750.474 624.512 750.174C624.692 749.664 624.862 749.134 625.012 748.564C625.102 748.214 625.182 747.874 625.242 747.544C625.312 747.194 625.362 746.834 625.412 746.464C625.422 746.384 625.432 746.294 625.442 746.214C625.502 745.714 625.532 745.204 625.542 744.674C625.542 744.654 625.542 744.634 625.542 744.614V744.574C625.552 744.194 625.542 743.764 625.522 743.324Z" fill="url(#paint14_radial_18225_3680)"/>
</g>
<g style="mix-blend-mode:luminosity">
<path d="M893.482 467.824C893.482 467.814 893.482 467.794 893.482 467.784C893.482 467.704 893.455 467.234 893.376 466.524C893.367 466.464 893.358 466.404 893.349 466.334C893.341 466.244 893.323 466.154 893.314 466.064C892.996 463.804 892.281 461.664 891.249 459.774L891.24 459.764C891.125 459.554 891.01 459.354 890.896 459.154C890.322 458.194 889.66 457.294 888.927 456.484C888.583 456.094 888.159 455.674 887.788 455.344C887.541 455.124 887.285 454.904 887.029 454.694C887.02 454.684 887.003 454.674 886.994 454.664L886.959 454.634C886.914 454.594 886.87 454.564 886.826 454.524C886.658 454.394 886.473 454.254 886.279 454.124C886.27 454.114 886.261 454.114 886.252 454.104C886.155 454.034 886.058 453.974 885.952 453.904C885.908 453.874 885.855 453.844 885.811 453.814C885.767 453.784 885.732 453.764 885.688 453.734C885.652 453.714 885.626 453.694 885.59 453.674C884.99 453.304 884.363 452.974 883.719 452.694C883.551 452.624 883.419 452.564 883.348 452.534L883.234 452.484L883.119 452.434C883.11 452.434 883.11 452.434 883.101 452.424L883.075 452.414C883.022 452.394 882.942 452.364 882.889 452.344L882.863 452.334C882.854 452.334 882.845 452.324 882.836 452.324L882.704 452.274C882.651 452.254 882.58 452.234 882.536 452.214L882.386 452.164C882.36 452.154 882.333 452.144 882.307 452.134C882.298 452.134 882.289 452.124 882.28 452.124C882.271 452.124 882.263 452.114 882.254 452.114C882.236 452.104 882.218 452.104 882.21 452.104L882.042 452.054C881.998 452.044 881.945 452.024 881.901 452.014C881.857 452.004 881.812 451.994 881.768 451.974H881.759C881.733 451.964 881.706 451.964 881.68 451.954C881.627 451.944 881.565 451.924 881.521 451.914L881.406 451.884C881.353 451.874 881.3 451.864 881.256 451.844C881.247 451.844 881.239 451.844 881.23 451.834C881.194 451.824 881.15 451.814 881.115 451.804L881.044 451.794L880.965 451.774C880.956 451.774 880.956 451.774 880.947 451.774L880.921 451.764C880.903 451.764 880.886 451.754 880.877 451.754C880.833 451.744 880.797 451.734 880.753 451.734C880.727 451.724 880.7 451.724 880.674 451.714C880.63 451.704 880.585 451.694 880.532 451.694L880.418 451.674C880.4 451.674 880.374 451.664 880.347 451.664C880.312 451.654 880.276 451.654 880.241 451.644C880.206 451.634 880.171 451.634 880.135 451.624C880.082 451.614 880.02 451.604 879.968 451.604L879.809 451.584C879.791 451.584 879.773 451.584 879.756 451.574H879.747C879.703 451.574 879.65 451.564 879.606 451.564C879.535 451.554 879.464 451.554 879.394 451.544C879.341 451.544 879.288 451.534 879.244 451.534C879.191 451.534 879.138 451.524 879.076 451.524C879.023 451.524 878.961 451.514 878.908 451.514C878.873 451.514 878.838 451.514 878.802 451.514L878.705 451.504C878.679 451.504 878.661 451.504 878.635 451.504C878.608 451.504 878.582 451.504 878.555 451.504C878.246 451.494 877.946 451.504 877.637 451.514C877.567 451.514 877.505 451.524 877.443 451.524C877.372 451.524 877.311 451.534 877.24 451.534C877.196 451.534 877.152 451.544 877.116 451.544C877.019 451.554 876.922 451.564 876.825 451.574C876.79 451.574 876.754 451.584 876.719 451.584C876.578 451.604 876.445 451.614 876.313 451.634C876.251 451.644 876.189 451.654 876.128 451.664C876.128 451.664 876.137 451.664 876.145 451.664C876.137 451.664 876.137 451.664 876.128 451.664C876.119 451.664 876.101 451.664 876.092 451.674C875.986 451.694 875.898 451.704 875.801 451.724C875.73 451.734 875.651 451.754 875.58 451.764C875.413 451.794 875.28 451.824 875.192 451.844C874.751 451.944 874.318 452.074 873.886 452.214C873.63 452.294 873.4 452.384 873.118 452.494C871.944 452.974 870.814 453.614 869.763 454.414C869.657 454.494 869.551 454.574 869.454 454.654C869.437 454.664 869.428 454.674 869.41 454.684C869.234 454.824 869.057 454.974 868.881 455.134C868.863 455.144 868.854 455.154 868.836 455.174L868.819 455.184C868.819 455.184 868.81 455.194 868.801 455.194C868.792 455.204 868.783 455.204 868.783 455.214C868.775 455.214 868.775 455.224 868.766 455.224C868.722 455.264 868.669 455.314 868.625 455.354C868.528 455.444 868.439 455.534 868.351 455.614C868.298 455.664 868.254 455.714 868.201 455.764C868.095 455.864 868.007 455.964 867.91 456.054C867.91 456.054 867.901 456.064 867.892 456.064L867.883 456.074C867.865 456.094 867.839 456.114 867.821 456.144C867.345 456.644 867.062 457.004 867.045 457.034C866.894 457.214 866.753 457.404 866.612 457.594C866.515 457.724 866.409 457.874 866.303 458.024C866.294 458.034 866.285 458.044 866.277 458.054L866.259 458.074C866.047 458.374 865.826 458.724 865.579 459.134L865.57 459.144C865.57 459.144 865.57 459.154 865.562 459.154C865.562 459.164 865.553 459.164 865.553 459.174C865.438 459.364 865.323 459.574 865.208 459.794C865.111 459.984 865.005 460.174 864.926 460.334L864.644 460.974C864.546 461.184 864.458 461.384 864.379 461.564C864.229 461.914 864.061 462.384 863.902 462.884V462.894C863.77 463.324 863.637 463.784 863.531 464.224V464.244C863.531 464.254 863.531 464.254 863.531 464.264C863.39 464.834 863.284 465.384 863.231 465.804C863.028 467.404 863.019 467.534 863.002 468.594C862.984 469.924 863.108 470.874 863.169 471.334C863.337 472.654 863.62 473.654 863.717 473.984C864.043 475.154 864.335 475.844 864.617 476.504C864.794 476.914 864.926 477.204 865.103 477.524C865.314 477.924 865.544 478.324 865.782 478.714C865.809 478.764 865.835 478.804 865.871 478.854C866.109 479.264 866.471 479.774 866.771 480.134C866.992 480.404 867.274 480.764 867.504 481.024C867.733 481.284 868.033 481.614 868.28 481.844C868.554 482.114 868.66 482.224 868.916 482.434C869.225 482.714 869.543 482.964 869.86 483.204C869.966 483.284 870.063 483.354 870.169 483.434C870.293 483.524 870.417 483.604 870.522 483.674C870.584 483.714 870.664 483.764 870.752 483.824C870.77 483.834 870.778 483.844 870.796 483.854C870.893 483.914 871.008 483.984 871.132 484.054C871.158 484.074 871.184 484.084 871.211 484.104C871.582 484.324 872.05 484.574 872.562 484.814C872.676 484.864 872.826 484.934 873.012 485.014C873.065 485.034 873.118 485.064 873.162 485.084L873.435 485.194C873.488 485.214 873.568 485.244 873.621 485.264L873.691 485.284C873.7 485.284 873.7 485.284 873.709 485.284L873.815 485.324C873.868 485.344 873.939 485.364 873.983 485.384L874.15 485.434C874.159 485.434 874.159 485.434 874.168 485.434C874.821 485.644 875.448 485.794 876.048 485.884L876.101 485.894C876.154 485.904 876.207 485.914 876.269 485.924C876.278 485.924 876.278 485.924 876.287 485.924C876.34 485.934 876.393 485.944 876.437 485.944L876.772 485.984C876.922 486.004 877.125 486.014 877.275 486.034C877.416 486.044 877.584 486.054 877.752 486.064C877.831 486.064 877.911 486.074 877.981 486.074C878.193 486.074 878.476 486.074 878.679 486.074C878.891 486.074 879.182 486.044 879.394 486.034C879.853 485.984 880.462 485.904 880.912 485.814C881.265 485.744 881.733 485.634 882.077 485.524C882.165 485.494 882.254 485.464 882.351 485.434C882.624 485.344 882.907 485.244 883.136 485.164L883.41 485.044C883.631 484.954 883.851 484.864 884.063 484.764L884.169 484.714C884.425 484.604 884.734 484.434 885.008 484.274C885.123 484.204 885.246 484.144 885.361 484.074C885.679 483.894 886.067 483.644 886.35 483.434C886.358 483.424 886.367 483.414 886.376 483.414C886.641 483.224 886.897 483.034 887.144 482.824C887.197 482.784 887.259 482.734 887.303 482.694L887.577 482.444C887.647 482.374 887.727 482.314 887.797 482.244L888.212 481.864C888.371 481.724 888.653 481.434 889.077 480.954C889.086 480.944 889.095 480.934 889.095 480.934L889.139 480.884C889.36 480.624 889.607 480.324 889.898 479.954C889.907 479.944 889.907 479.934 889.916 479.924C890.198 479.554 890.675 478.894 891.187 477.954C891.187 477.944 891.196 477.934 891.196 477.934C891.31 477.724 891.434 477.494 891.549 477.244C891.602 477.144 891.646 477.034 891.699 476.924C891.769 476.774 891.84 476.634 891.893 476.494C891.911 476.454 891.928 476.404 891.946 476.364C892.043 476.134 892.14 475.894 892.237 475.644C892.37 475.304 892.493 474.964 892.582 474.664C892.74 474.154 892.89 473.624 893.023 473.054C893.102 472.704 893.173 472.364 893.226 472.034C893.288 471.684 893.332 471.324 893.376 470.954C893.385 470.874 893.394 470.784 893.402 470.704C893.455 470.204 893.482 469.694 893.491 469.164C893.491 469.144 893.491 469.124 893.491 469.104V469.064C893.508 468.684 893.508 468.264 893.482 467.824Z" fill="url(#paint15_radial_18225_3680)"/>
</g>
<path fill-rule="evenodd" clip-rule="evenodd" d="M1177.27 393.886C1232.1 392.038 1292.24 368.161 1335.39 402.058C1380.89 437.802 1389.13 502.348 1389 560.217C1388.87 617.931 1381.24 683.572 1334.68 717.66C1290.66 749.887 1230.66 726.408 1177.27 715.219C1138.16 707.024 1102 692.011 1074.39 663.117C1047.48 634.958 1036.04 598.555 1029.17 560.217C1020.13 509.787 995.38 450.626 1029.45 412.365C1063.78 373.807 1125.68 395.624 1177.27 393.886Z" fill="#007BFF" fill-opacity="0.1"/>
<path fill-rule="evenodd" clip-rule="evenodd" d="M1110.75 372.388C1161.47 376.378 1202.74 406.745 1240.82 440.456C1282.38 477.248 1329.73 515.119 1334.43 570.395C1339.38 628.732 1311.8 689.273 1264.94 724.43C1222.04 756.61 1163.94 745.145 1110.75 738.201C1066.61 732.44 1018.44 724.736 992.198 688.823C967.963 655.658 993.212 611.142 988.129 570.395C981.479 517.092 930.153 463.926 958.441 418.245C987.441 371.416 1055.79 368.066 1110.75 372.388Z" fill="#007BFF" fill-opacity="0.1"/>
<g opacity="0.5">
<path d="M214.851 -38.6812C214.851 -38.7148 214.851 -38.7484 214.809 -38.7484C214.767 -38.8491 214.725 -38.9498 214.684 -39.0505C214.642 -39.1511 214.6 -39.2519 214.558 -39.3526C214.516 -39.4533 214.433 -39.5204 214.391 -39.6211C214.391 -39.6211 214.391 -39.6211 214.391 -39.6547C214.391 -39.6547 214.391 -39.6546 214.391 -39.6882C214.349 -39.7553 214.307 -39.8225 214.223 -39.8896C214.14 -39.9567 214.098 -40.0574 214.014 -40.1246C213.931 -40.1917 213.847 -40.2588 213.763 -40.326C213.721 -40.3595 213.679 -40.3931 213.638 -40.4267L191.921 -57.0752C192.214 -56.8738 192.424 -56.6053 192.633 -56.3367C192.633 -56.3367 192.633 -56.3367 192.633 -56.3032C192.842 -56.0011 193.009 -55.699 193.093 -55.3298L207.445 -8.70721L229.161 7.94128L214.851 -38.6812Z" fill="url(#paint16_linear_18225_3680)"/>
<path d="M109.408 121.526L31.1629 159.657C30.4098 160.026 29.6984 160.328 28.987 160.563C28.9452 160.563 28.9454 160.597 28.9035 160.597C28.2341 160.832 27.5644 161 26.9368 161.134C24.51 161.604 22.5853 161.302 21.3301 160.362L43.0463 177.01C44.2597 177.95 46.2261 178.252 48.653 177.782C49.0296 177.715 49.4063 177.614 49.8247 177.514C50.0758 177.447 50.3685 177.346 50.6614 177.245C50.7032 177.245 50.7033 177.212 50.7451 177.212C50.787 177.212 50.787 177.212 50.8289 177.178C51.0799 177.077 51.3728 176.977 51.6239 176.876C51.875 176.775 52.0841 176.675 52.3351 176.574C52.5444 176.473 52.7537 176.373 52.9629 176.272L131.208 138.141L109.408 121.526Z" fill="url(#paint17_linear_18225_3680)"/>
<path d="M299.958 12.0681C299.958 11.9674 299.958 11.8667 300 11.766C300 11.5981 300 11.4639 300 11.3296C300 11.1953 300 11.0611 299.958 10.9268C299.958 10.8597 299.916 10.7925 299.916 10.7589C299.916 10.7254 299.916 10.7254 299.916 10.6918C299.916 10.6583 299.916 10.5911 299.874 10.5576C299.832 10.4569 299.833 10.3227 299.791 10.222C299.749 10.1213 299.707 10.0205 299.665 9.9198C299.623 9.81911 299.582 9.71846 299.54 9.65133C299.54 9.61776 299.498 9.5842 299.498 9.55063V9.51703C299.456 9.48347 299.456 9.41641 299.414 9.38284C299.372 9.28215 299.289 9.21499 299.247 9.14786C299.163 9.08073 299.121 8.98001 299.038 8.91288C298.954 8.84575 298.87 8.77859 298.787 8.67789C298.745 8.64433 298.703 8.61077 298.661 8.5772L276.945 -8.07129C277.279 -7.80276 277.572 -7.50068 277.782 -7.13146V-7.09791C277.991 -6.76225 278.116 -6.35943 278.2 -5.95664C278.2 -5.92308 278.2 -5.92311 278.2 -5.88955C278.284 -5.48676 278.284 -5.05041 278.242 -4.58049C278.242 -4.54693 278.242 -4.51337 278.242 -4.4798C278.2 -4.04345 278.074 -3.57352 277.949 -3.1036C277.907 -3.03647 277.907 -2.96935 277.907 -2.90221C277.823 -2.63369 277.656 -2.33157 277.531 -2.02948C277.405 -1.76095 277.321 -1.49243 277.154 -1.19034C276.987 -0.921813 276.777 -0.619742 276.61 -0.317652C276.443 -0.0155621 276.275 0.252944 276.024 0.555035C275.606 1.09208 275.146 1.62917 274.643 2.16622C274.643 2.19978 274.602 2.19975 274.602 2.23331C274.058 2.80393 273.43 3.37452 272.761 3.94514L203.972 60.671L225.688 77.3195L294.477 20.5937C294.519 20.5602 294.519 20.5601 294.56 20.5265C294.728 20.3923 294.895 20.258 295.063 20.1238C295.23 19.9895 295.355 19.8553 295.523 19.721C295.69 19.5532 295.857 19.4189 296.025 19.251C296.15 19.1503 296.234 19.0497 296.36 18.9155C296.36 18.8819 296.402 18.8818 296.402 18.8483C296.443 18.8147 296.485 18.7811 296.485 18.7476C296.652 18.5462 296.862 18.3448 297.029 18.1434C297.28 17.8749 297.489 17.6064 297.699 17.3379C297.74 17.3043 297.74 17.2707 297.782 17.2372C297.991 16.9351 298.159 16.6666 298.368 16.398C298.577 16.0959 298.786 15.8274 298.912 15.5253C299.079 15.2568 299.163 14.9882 299.289 14.6862C299.414 14.4512 299.54 14.1827 299.623 13.9477C299.623 13.9141 299.665 13.847 299.665 13.8134C299.707 13.7463 299.707 13.6792 299.707 13.612C299.749 13.4106 299.832 13.2429 299.874 13.0415C299.916 12.8065 299.958 12.6051 300 12.4037C300 12.3366 300 12.303 300 12.2358C299.958 12.1016 299.958 12.0681 299.958 12.0681Z" fill="url(#paint18_linear_18225_3680)"/>
<path d="M203.93 60.5713L183.93 121.761C183.762 122.265 183.511 122.735 183.26 123.205C183.176 123.372 183.134 123.54 183.051 123.708C182.716 124.312 182.298 124.916 181.837 125.521L181.796 125.554C181.335 126.158 180.833 126.729 180.247 127.266C179.662 127.837 179.076 128.374 178.448 128.877C177.821 129.381 177.151 129.851 176.44 130.287C175.77 130.723 175.059 131.126 174.347 131.462C174.347 131.462 174.348 131.462 174.306 131.462C173.595 131.797 172.883 132.133 172.172 132.368C171.461 132.637 170.749 132.804 170.038 132.972C168.741 133.241 167.485 133.274 166.356 133.039L109.45 121.459L131.166 138.108L188.072 149.688C189.202 149.923 190.415 149.856 191.754 149.621C192.131 149.554 192.507 149.453 192.884 149.352C193.219 149.251 193.553 149.151 193.888 149.05C194.139 148.949 194.39 148.849 194.641 148.748C194.892 148.647 195.101 148.547 195.352 148.446C195.562 148.345 195.771 148.245 195.98 148.144C195.98 148.144 196.022 148.144 196.022 148.11C196.022 148.11 196.022 148.11 196.064 148.11C196.231 148.043 196.399 147.942 196.566 147.842C196.733 147.741 196.942 147.64 197.11 147.54C197.277 147.439 197.486 147.338 197.654 147.237C197.821 147.137 197.988 147.036 198.156 146.935C198.323 146.835 198.491 146.7 198.658 146.6C198.825 146.499 198.993 146.365 199.16 146.264C199.328 146.163 199.495 146.029 199.662 145.928C199.83 145.794 199.997 145.693 200.122 145.559L200.164 145.526C200.29 145.425 200.457 145.291 200.583 145.19C200.75 145.056 200.876 144.922 201.043 144.787C201.21 144.653 201.336 144.519 201.503 144.385C201.671 144.25 201.796 144.082 201.964 143.948C201.964 143.948 201.964 143.948 201.964 143.915C201.964 143.915 201.964 143.915 201.964 143.881C202.131 143.747 202.256 143.579 202.382 143.445C202.549 143.243 202.717 143.075 202.884 142.874C203.093 142.639 203.261 142.404 203.47 142.169L203.512 142.136C203.512 142.136 203.512 142.102 203.554 142.102C204.014 141.531 204.39 140.927 204.725 140.323C204.809 140.155 204.892 139.987 204.976 139.82C205.185 139.417 205.395 138.98 205.562 138.578C205.604 138.51 205.604 138.443 205.646 138.376L225.646 77.1862L203.93 60.5713Z" fill="url(#paint19_linear_18225_3680)"/>
<path d="M273.388 -9.01081L207.529 -8.67519L193.176 -55.2978C192.423 -57.6809 189.704 -58.4193 186.356 -57.7816C183.009 -57.1438 179.117 -55.0964 175.979 -51.9412L115.266 9.45025L37.6065 37.3432C29.5728 40.2299 23.3803 48.4534 26.3093 52.347L54.6783 89.974L21.0371 153.816C18.2337 159.153 21.4136 162.274 26.9787 161.2C28.2758 160.932 29.6985 160.462 31.2467 159.723L109.492 121.593L166.397 133.173C167.527 133.408 168.741 133.341 170.08 133.106C175.686 131.998 182.339 126.93 184.013 121.828L204.014 60.6377L272.802 3.91195C279.79 -1.96202 280.167 -9.04438 273.388 -9.01081Z" fill="url(#paint20_linear_18225_3680)"/>
<path opacity="0.7" d="M273.388 -9.01081L207.529 -8.67519L193.176 -55.2978C192.423 -57.6809 189.704 -58.4193 186.356 -57.7816C183.009 -57.1438 179.117 -55.0964 175.979 -51.9412L115.266 9.45025L37.6065 37.3432C29.5728 40.2299 23.3803 48.4534 26.3093 52.347L54.6783 89.974L21.0371 153.816C18.2337 159.153 21.4136 162.274 26.9787 161.2C28.2758 160.932 29.6985 160.462 31.2467 159.723L109.492 121.593L166.397 133.173C167.527 133.408 168.741 133.341 170.08 133.106C175.686 131.998 182.339 126.93 184.013 121.828L204.014 60.6377L272.802 3.91195C279.79 -1.96202 280.167 -9.04438 273.388 -9.01081ZM271.756 3.13991L202.717 60.0671L182.632 121.526C181.126 126.057 175.1 130.958 169.661 132.032C169.033 132.166 168.406 132.233 167.862 132.233C167.443 132.233 167.025 132.199 166.648 132.132L109.199 120.452L30.4935 158.817C29.1127 159.488 27.8154 159.958 26.602 160.193C25.9743 160.327 25.3886 160.395 24.8028 160.395C23.8822 160.395 22.5853 160.193 21.874 159.32C20.9953 158.246 21.1207 156.4 22.2086 154.286L56.1427 89.9069L27.4389 51.81C26.7694 50.9037 26.7277 49.5275 27.3554 47.9164C28.8198 44.0899 33.3805 40.0956 38.1505 38.3838L116.103 10.3901L177.025 -51.2028C179.787 -53.9887 183.385 -56.0362 186.649 -56.6739C187.318 -56.8082 187.946 -56.8753 188.532 -56.8753C190.331 -56.8753 191.461 -56.2376 191.838 -54.9956L206.441 -7.56752L273.346 -7.90314C274.978 -7.90314 276.066 -7.43323 276.527 -6.49339C277.614 -4.58016 276.317 -0.619438 271.756 3.13991Z" fill="url(#paint21_linear_18225_3680)"/>
</g>
</g>
<defs>
<filter id="filter0_d_18225_3680" x="664" y="582" width="248.652" height="255.001" filterUnits="userSpaceOnUse" color-interpolation-filters="sRGB">
<feFlood flood-opacity="0" result="BackgroundImageFix"/>
<feColorMatrix in="SourceAlpha" type="matrix" values="0 0 0 0 0 0 0 0 0 0 0 0 0 0 0 0 0 0 127 0" result="hardAlpha"/>
<feOffset dy="4"/>
<feGaussianBlur stdDeviation="25"/>
<feColorMatrix type="matrix" values="0 0 0 0 0.0666666 0 0 0 0 0.0941176 0 0 0 0 0.286275 0 0 0 0.5 0"/>
<feBlend mode="normal" in2="BackgroundImageFix" result="effect1_dropShadow_18225_3680"/>
<feBlend mode="normal" in="SourceGraphic" in2="effect1_dropShadow_18225_3680" result="shape"/>
</filter>
<filter id="filter1_d_18225_3680" x="753" y="-9" width="282" height="226.729" filterUnits="userSpaceOnUse" color-interpolation-filters="sRGB">
<feFlood flood-opacity="0" result="BackgroundImageFix"/>
<feColorMatrix in="SourceAlpha" type="matrix" values="0 0 0 0 0 0 0 0 0 0 0 0 0 0 0 0 0 0 127 0" result="hardAlpha"/>
<feOffset dy="4"/>
<feGaussianBlur stdDeviation="25"/>
<feColorMatrix type="matrix" values="0 0 0 0 0.0666666 0 0 0 0 0.0941176 0 0 0 0 0.286275 0 0 0 0.5 0"/>
<feBlend mode="normal" in2="BackgroundImageFix" result="effect1_dropShadow_18225_3680"/>
<feBlend mode="normal" in="SourceGraphic" in2="effect1_dropShadow_18225_3680" result="shape"/>
</filter>
<linearGradient id="paint0_linear_18225_3680" x1="730.211" y1="641.702" x2="854.902" y2="756.987" gradientUnits="userSpaceOnUse">
<stop offset="0.0317" stop-color="#FCE878"/>
<stop offset="0.0527" stop-color="#FCE676"/>
<stop offset="0.6976" stop-color="#FEB432"/>
<stop offset="1" stop-color="#FFA018"/>
</linearGradient>
<linearGradient id="paint1_linear_18225_3680" x1="834.136" y1="731.825" x2="732.153" y2="644.471" gradientUnits="userSpaceOnUse">
<stop stop-color="#FFE6B9" stop-opacity="0"/>
<stop offset="0.3821" stop-color="#FFF3DE" stop-opacity="0.4239"/>
<stop offset="0.7037" stop-color="#FFFCF6" stop-opacity="0.7807"/>
<stop offset="0.9014" stop-color="white"/>
</linearGradient>
<linearGradient id="paint2_linear_18225_3680" x1="733.635" y1="645.501" x2="855.367" y2="756.861" gradientUnits="userSpaceOnUse">
<stop offset="0.0431" stop-color="#FFA018"/>
<stop offset="0.9874" stop-color="#D36B18"/>
</linearGradient>
<linearGradient id="paint3_linear_18225_3680" x1="882.369" y1="762.612" x2="721.319" y2="639.702" gradientUnits="userSpaceOnUse">
<stop stop-color="#FFB817"/>
<stop offset="0.9893" stop-color="#FFFFBC"/>
</linearGradient>
<linearGradient id="paint4_linear_18225_3680" x1="882.368" y1="762.611" x2="721.318" y2="639.702" gradientUnits="userSpaceOnUse">
<stop stop-color="#FFE6B9" stop-opacity="0"/>
<stop offset="0.3821" stop-color="#FFF3DE" stop-opacity="0.4239"/>
<stop offset="0.7037" stop-color="#FFFCF6" stop-opacity="0.7807"/>
<stop offset="0.9014" stop-color="white"/>
</linearGradient>
<linearGradient id="paint5_linear_18225_3680" x1="708.761" y1="654.143" x2="837.181" y2="782.332" gradientUnits="userSpaceOnUse">
<stop offset="0.0394" stop-color="#FFC826"/>
<stop offset="0.1112" stop-color="#FFA018"/>
<stop offset="0.4264" stop-color="#F8771E"/>
<stop offset="0.5129" stop-color="#EC6D1A"/>
<stop offset="0.6677" stop-color="#CD510E"/>
<stop offset="0.721" stop-color="#C14609"/>
<stop offset="0.8348" stop-color="#C3480A"/>
<stop offset="0.8863" stop-color="#CA4E0D"/>
<stop offset="0.9252" stop-color="#D75A11"/>
<stop offset="0.9577" stop-color="#E96A18"/>
<stop offset="0.977" stop-color="#F8771E"/>
<stop offset="0.9864" stop-color="#F87A1E"/>
<stop offset="0.992" stop-color="#FA821C"/>
<stop offset="0.9967" stop-color="#FC901A"/>
<stop offset="1" stop-color="#FFA018"/>
</linearGradient>
<linearGradient id="paint6_linear_18225_3680" x1="818.954" y1="748.328" x2="753.388" y2="614.484" gradientUnits="userSpaceOnUse">
<stop stop-color="#FFE6B9" stop-opacity="0"/>
<stop offset="1" stop-color="white"/>
</linearGradient>
<linearGradient id="paint7_linear_18225_3680" x1="963.664" y1="76.3813" x2="833.872" y2="114.867" gradientUnits="userSpaceOnUse">
<stop offset="0.0317" stop-color="#FCE878"/>
<stop offset="0.0527" stop-color="#FCE676"/>
<stop offset="0.6976" stop-color="#FEB432"/>
<stop offset="1" stop-color="#FFA018"/>
</linearGradient>
<linearGradient id="paint8_linear_18225_3680" x1="794.405" y1="94.5992" x2="972.397" y2="90.509" gradientUnits="userSpaceOnUse">
<stop stop-color="#FFE6B9" stop-opacity="0"/>
<stop offset="0.3821" stop-color="#FFF3DE" stop-opacity="0.4239"/>
<stop offset="0.7037" stop-color="#FFFCF6" stop-opacity="0.7807"/>
<stop offset="0.9014" stop-color="white"/>
</linearGradient>
<linearGradient id="paint9_linear_18225_3680" x1="953.861" y1="87.9014" x2="832.759" y2="100.019" gradientUnits="userSpaceOnUse">
<stop offset="0.0431" stop-color="#FFA018"/>
<stop offset="0.9874" stop-color="#D36B18"/>
</linearGradient>
<linearGradient id="paint10_linear_18225_3680" x1="806.31" y1="137.138" x2="934.057" y2="63.0747" gradientUnits="userSpaceOnUse">
<stop stop-color="#FFB817"/>
<stop offset="0.9893" stop-color="#FFFFBC"/>
</linearGradient>
<linearGradient id="paint11_linear_18225_3680" x1="841.747" y1="93.647" x2="970.006" y2="89.3042" gradientUnits="userSpaceOnUse">
<stop stop-color="#FFE6B9" stop-opacity="0"/>
<stop offset="0.3821" stop-color="#FFF3DE" stop-opacity="0.4239"/>
<stop offset="0.7037" stop-color="#FFFCF6" stop-opacity="0.7807"/>
<stop offset="0.9014" stop-color="white"/>
</linearGradient>
<linearGradient id="paint12_linear_18225_3680" x1="967.387" y1="159.376" x2="806.492" y2="65.1922" gradientUnits="userSpaceOnUse">
<stop stop-color="#FFC826"/>
<stop offset="0.0945" stop-color="#FFA018"/>
<stop offset="0.2186" stop-color="#F8771E"/>
<stop offset="0.3662" stop-color="#EC6D1A"/>
<stop offset="0.6301" stop-color="#CD510E"/>
<stop offset="0.721" stop-color="#C14609"/>
<stop offset="0.7796" stop-color="#C64A0B"/>
<stop offset="0.8451" stop-color="#D35610"/>
<stop offset="0.9137" stop-color="#E96A18"/>
<stop offset="0.9495" stop-color="#F8771E"/>
<stop offset="0.9701" stop-color="#F87A1E"/>
<stop offset="0.9825" stop-color="#FA821C"/>
<stop offset="0.9927" stop-color="#FC901A"/>
<stop offset="1" stop-color="#FFA018"/>
</linearGradient>
<linearGradient id="paint13_linear_18225_3680" x1="825.789" y1="93.8528" x2="1002.43" y2="89.8991" gradientUnits="userSpaceOnUse">
<stop stop-color="#FFE6B9" stop-opacity="0"/>
<stop offset="0.9014" stop-color="white"/>
</linearGradient>
<radialGradient id="paint14_radial_18225_3680" cx="0" cy="0" r="1" gradientUnits="userSpaceOnUse" gradientTransform="translate(607.758 746.398) rotate(-0.355229) scale(19.0225 19.0225)">
<stop offset="0.6517" stop-color="#FB9018"/>
<stop offset="0.7401" stop-color="#FB931B"/>
<stop offset="0.8094" stop-color="#FB9C25"/>
<stop offset="0.8723" stop-color="#FBAB36"/>
<stop offset="0.9313" stop-color="#FBC14D"/>
<stop offset="0.9872" stop-color="#FBDD6B"/>
<stop offset="1" stop-color="#FBE473"/>
</radialGradient>
<radialGradient id="paint15_radial_18225_3680" cx="0" cy="0" r="1" gradientUnits="userSpaceOnUse" gradientTransform="translate(877.807 470.893) rotate(-0.402426) scale(16.7915 19.0224)">
<stop offset="0.6517" stop-color="#FB9018"/>
<stop offset="0.7401" stop-color="#FB931B"/>
<stop offset="0.8094" stop-color="#FB9C25"/>
<stop offset="0.8723" stop-color="#FBAB36"/>
<stop offset="0.9313" stop-color="#FBC14D"/>
<stop offset="0.9872" stop-color="#FBDD6B"/>
<stop offset="1" stop-color="#FBE473"/>
</radialGradient>
<linearGradient id="paint16_linear_18225_3680" x1="223.689" y1="-39.6657" x2="199.864" y2="3.01785" gradientUnits="userSpaceOnUse">
<stop offset="0.0394" stop-color="#FFC826"/>
<stop offset="0.1112" stop-color="#FFA018"/>
<stop offset="0.4264" stop-color="#F8771E"/>
<stop offset="0.5129" stop-color="#EC6D1A"/>
<stop offset="0.6677" stop-color="#CD510E"/>
<stop offset="0.721" stop-color="#C14609"/>
</linearGradient>
<linearGradient id="paint17_linear_18225_3680" x1="-12.5023" y1="206.297" x2="153.473" y2="40.5099" gradientUnits="userSpaceOnUse">
<stop offset="0.2285" stop-color="#FFC826"/>
<stop offset="0.294" stop-color="#FFA018"/>
<stop offset="0.4264" stop-color="#F8771E"/>
<stop offset="0.5129" stop-color="#EC6D1A"/>
<stop offset="0.6677" stop-color="#CD510E"/>
<stop offset="0.721" stop-color="#C14609"/>
</linearGradient>
<linearGradient id="paint18_linear_18225_3680" x1="315.649" y1="-21.7728" x2="232.111" y2="99.5529" gradientUnits="userSpaceOnUse">
<stop offset="0.0394" stop-color="#FFC826"/>
<stop offset="0.2586" stop-color="#FFA018"/>
<stop offset="0.3314" stop-color="#F8771E"/>
<stop offset="0.4458" stop-color="#EC6D1A"/>
<stop offset="0.6505" stop-color="#CD510E"/>
<stop offset="0.721" stop-color="#C14609"/>
<stop offset="0.8348" stop-color="#C3480A"/>
<stop offset="0.8863" stop-color="#CA4E0D"/>
<stop offset="0.9252" stop-color="#D75A11"/>
<stop offset="0.9577" stop-color="#E96A18"/>
<stop offset="0.977" stop-color="#F8771E"/>
<stop offset="0.9864" stop-color="#F87A1E"/>
<stop offset="0.992" stop-color="#FA821C"/>
<stop offset="0.9967" stop-color="#FC901A"/>
<stop offset="1" stop-color="#FFA018"/>
</linearGradient>
<linearGradient id="paint19_linear_18225_3680" x1="259.916" y1="45.3832" x2="167.809" y2="165.375" gradientUnits="userSpaceOnUse">
<stop offset="0.0394" stop-color="#FFC826"/>
<stop offset="0.1112" stop-color="#FFA018"/>
<stop offset="0.272" stop-color="#F8771E"/>
<stop offset="0.3282" stop-color="#EF6F1B"/>
<stop offset="0.567" stop-color="#CE510E"/>
<stop offset="0.6973" stop-color="#C14609"/>
<stop offset="0.7136" stop-color="#C64E0A"/>
<stop offset="0.7382" stop-color="#D4620E"/>
<stop offset="0.768" stop-color="#EC8413"/>
<stop offset="0.7888" stop-color="#FFA018"/>
<stop offset="0.7904" stop-color="#FE9E18"/>
<stop offset="0.8278" stop-color="#E87F12"/>
<stop offset="0.8666" stop-color="#D7660E"/>
<stop offset="0.907" stop-color="#CB540B"/>
<stop offset="0.95" stop-color="#C3490A"/>
<stop offset="1" stop-color="#C14609"/>
</linearGradient>
<linearGradient id="paint20_linear_18225_3680" x1="66.8846" y1="16.4842" x2="174.772" y2="138.166" gradientUnits="userSpaceOnUse">
<stop offset="0.0317" stop-color="#FCE878"/>
<stop offset="0.0527" stop-color="#FCE676"/>
<stop offset="0.6976" stop-color="#FEB432"/>
<stop offset="1" stop-color="#FFA018"/>
</linearGradient>
<linearGradient id="paint21_linear_18225_3680" x1="207.301" y1="122.097" x2="102.218" y2="-6.80179" gradientUnits="userSpaceOnUse">
<stop stop-color="#FFE6B9" stop-opacity="0"/>
<stop offset="0.3821" stop-color="#FFF3DE" stop-opacity="0.4239"/>
<stop offset="0.7037" stop-color="#FFFCF6" stop-opacity="0.7807"/>
<stop offset="0.9014" stop-color="white"/>
</linearGradient>
<clipPath id="clip0_18225_3680">
<rect width="1440" height="836" fill="white"/>
</clipPath>
</defs>
</svg>
