<svg width="744" height="861" viewBox="0 0 744 861" fill="none" xmlns="http://www.w3.org/2000/svg">
<g clip-path="url(#clip0_18509_13859)">
<rect width="744" height="861" fill="white"/>
<g style="mix-blend-mode:luminosity" filter="url(#filter0_d_18509_13859)">
<path d="M573.013 830.863C568.052 855.3 546.572 849.923 525.033 818.842C503.494 787.76 490.051 742.762 495.013 718.313C499.974 693.876 521.453 699.266 542.992 730.347C564.531 761.428 577.974 806.426 573.013 830.863Z" fill="url(#paint0_linear_18509_13859)"/>
<path opacity="0.7" d="M542.992 730.359C521.453 699.277 499.974 693.888 495.013 718.325C490.051 742.762 503.494 787.772 525.033 818.853C546.572 849.935 568.052 855.312 573.013 830.875C577.974 806.426 564.531 761.428 542.992 730.359ZM572.657 830.53C570.451 841.395 564.776 846.649 556.673 845.345C547.523 843.869 536.063 834.037 525.219 818.398C503.858 787.575 490.475 742.836 495.376 718.657C497.582 707.792 503.257 702.538 511.36 703.855C520.51 705.331 531.978 715.163 542.821 730.802C564.175 761.625 577.558 806.364 572.657 830.53Z" fill="url(#paint1_linear_18509_13859)"/>
<path d="M530.225 792.817L533.166 802.636L528.472 801.43L525.523 791.611L530.225 792.817ZM542.302 757.613L539.36 747.794L534.659 746.589L537.608 756.42L542.302 757.613ZM568.445 824.44C564.085 845.924 545.05 841.063 526.006 813.587C506.963 786.111 495.02 746.269 499.38 724.785C503.739 703.301 522.783 708.186 541.819 735.662C560.87 763.138 572.805 802.956 568.445 824.44ZM541.106 739.206C523.793 714.227 506.488 709.785 502.521 729.313C498.555 748.84 509.421 785.065 526.727 810.043C544.039 835.022 561.345 839.439 565.304 819.912C569.27 800.384 558.419 764.172 541.106 739.206ZM546.394 774.2C539.212 763.84 535.662 765.009 532.275 766.645C529.928 767.654 528.294 769.98 525.427 765.845C523.919 763.667 523.414 761.034 523.748 759.398C524.112 757.589 526.4 757.872 530.017 761.772C530.099 761.563 530.203 761.206 530.299 760.702C530.648 758.967 531.042 755.62 531.064 751.781C528.457 748.016 519.418 734.973 518.282 733.496C518.282 733.496 516.485 740.129 516.321 740.264C516.306 740.326 518.304 743.34 519.381 745.038C518.728 744.755 517.413 744.841 516.247 746.379C514.071 743.377 510.743 738.96 510.721 739.07C510.706 739.157 510.015 741.851 509.704 743.414C509.585 744.005 509.518 744.435 509.562 744.497C509.711 744.706 512.355 748.668 514.479 751.597C513.677 757.478 516.745 768.565 522.226 776.476C528.405 785.385 531.933 784.979 535.572 783.724C538.632 782.715 540.601 780.057 542.413 782.678C544.418 785.57 544.448 788.326 544.24 789.347C543.883 791.107 542.383 791.427 539.412 787.501C539.338 787.391 539.041 788.523 538.736 790.036C538.209 792.632 537.645 796.385 538.12 797.062C539.732 799.388 549.224 814.338 549.387 814.202C550.553 813.304 551.274 810.425 551.586 808.887C551.704 808.284 551.764 807.89 551.764 807.89L549.432 804.014C550.048 804.174 550.85 803.793 551.541 802.882C552.863 804.715 556.792 810.314 557.052 810.622C557.104 810.683 557.163 810.523 557.223 810.216C557.483 808.936 557.78 805.146 557.579 804.802C557.394 804.457 554.452 800.36 553.086 798.452C554.23 790.996 551.17 781.078 546.394 774.2Z" fill="url(#paint2_linear_18509_13859)"/>
<path d="M530.774 792.153L533.716 801.972L529.022 800.766L526.073 790.947L530.774 792.153ZM542.851 756.949L539.91 747.13L535.208 745.924L538.157 755.756L542.851 756.949ZM568.995 823.776C564.635 845.26 545.599 840.399 526.556 812.923C507.512 785.447 495.57 745.605 499.929 724.121C504.289 702.637 523.332 707.522 542.368 734.998C561.419 762.462 573.355 802.292 568.995 823.776ZM541.655 738.529C524.342 713.551 507.037 709.109 503.071 728.637C499.105 748.164 509.971 784.389 527.276 809.367C544.589 834.345 561.894 838.763 565.853 819.235C569.819 799.708 558.968 763.508 541.655 738.529ZM546.943 773.524C539.761 763.163 536.211 764.332 532.824 765.969C530.477 766.978 528.843 769.303 525.976 765.169C524.469 762.991 523.964 760.358 524.298 758.721C524.662 756.913 526.949 757.195 530.566 761.096C530.648 760.887 530.752 760.53 530.849 760.026C531.198 758.291 531.591 754.944 531.614 751.105C529.007 747.34 519.968 734.297 518.832 732.82C518.832 732.82 517.034 739.452 516.871 739.588C516.856 739.649 518.854 742.664 519.931 744.362C519.277 744.079 517.963 744.165 516.796 745.703C514.62 742.701 511.293 738.283 511.271 738.394C511.256 738.48 510.565 741.175 510.253 742.738C510.134 743.328 510.067 743.759 510.112 743.82C510.261 744.03 512.905 747.992 515.029 750.92C514.227 756.802 517.294 767.888 522.775 775.8C528.955 784.709 532.483 784.303 536.122 783.047C539.182 782.038 541.15 779.381 542.962 782.002C544.968 784.893 544.998 787.649 544.79 788.671C544.433 790.43 542.933 790.75 539.962 786.825C539.888 786.714 539.591 787.846 539.286 789.36C538.759 791.956 538.194 795.709 538.67 796.386C540.281 798.711 549.773 813.661 549.937 813.526C551.103 812.628 551.823 809.748 552.135 808.21C552.254 807.607 552.313 807.214 552.313 807.214L549.981 803.338C550.598 803.498 551.4 803.116 552.091 802.206C553.413 804.039 557.342 809.638 557.602 809.945C557.654 810.007 557.713 809.847 557.772 809.539C558.032 808.247 558.329 804.47 558.129 804.125C557.943 803.781 555.002 799.683 553.635 797.776C554.779 790.319 551.719 780.414 546.943 773.524Z" fill="url(#paint3_linear_18509_13859)"/>
<path opacity="0.7" d="M546.943 773.523C539.761 763.163 536.211 764.332 532.824 765.968C530.477 766.977 528.843 769.303 525.976 765.168C524.469 762.991 523.964 760.357 524.298 758.721C524.662 756.912 526.949 757.195 530.566 761.096C530.648 760.886 530.752 760.53 530.849 760.025C531.198 758.29 531.591 754.943 531.614 751.104C529.007 747.339 519.968 734.296 518.832 732.82C518.832 732.82 517.034 739.452 516.871 739.587C516.856 739.649 518.854 742.663 519.931 744.361C519.277 744.078 517.963 744.165 516.796 745.703C514.62 742.7 511.293 738.283 511.271 738.394C511.256 738.48 510.565 741.175 510.253 742.737C510.134 743.328 510.067 743.758 510.112 743.82C510.261 744.029 512.905 747.991 515.029 750.92C514.227 756.801 517.294 767.888 522.775 775.8C528.955 784.708 532.483 784.302 536.122 783.047C539.182 782.038 541.15 779.38 542.962 782.001C544.968 784.893 544.998 787.649 544.79 788.67C544.433 790.43 542.933 790.75 539.962 786.825C539.888 786.714 539.591 787.846 539.286 789.359C538.759 791.956 538.194 795.709 538.67 796.385C540.281 798.711 549.773 813.661 549.937 813.526C551.103 812.627 551.823 809.748 552.135 808.21C552.254 807.607 552.313 807.213 552.313 807.213L549.981 803.337C550.598 803.497 551.4 803.116 552.091 802.205C553.413 804.039 557.342 809.637 557.602 809.945C557.654 810.006 557.713 809.847 557.772 809.539C558.032 808.259 558.329 804.469 558.129 804.125C557.943 803.78 555.002 799.683 553.635 797.776C554.779 790.319 551.719 780.414 546.943 773.523ZM557.98 804.371C558.069 804.765 557.839 808.136 557.572 809.428C557.572 809.428 557.572 809.428 557.572 809.44C557.119 808.825 555.893 807.09 554.794 805.528C553.791 804.113 552.796 802.698 552.247 801.935L552.105 801.738L551.964 801.922C551.378 802.685 550.687 803.091 550.107 802.993L549.35 802.808L552.068 807.336C552.039 807.509 551.994 807.779 551.927 808.112C551.682 809.317 551.014 812.16 549.951 813.12C549.35 812.357 546.06 807.275 543.401 803.14C541.373 800.003 539.464 797.05 538.818 796.115C538.566 795.745 538.751 793.174 539.501 789.482C539.717 788.424 539.895 787.698 540.006 787.341C541.403 789.138 542.561 790.122 543.453 790.258C544.225 790.381 544.79 789.839 545.005 788.781C545.258 787.538 545.146 784.647 543.111 781.718C542.628 781.017 542.101 780.635 541.507 780.537C540.608 780.389 539.657 780.918 538.551 781.521C537.823 781.927 536.991 782.383 536.085 782.69C534.577 783.219 533.285 783.515 531.851 783.281C529.126 782.838 526.288 780.377 522.931 775.529C517.25 767.322 514.524 756.42 515.259 751.006L515.289 750.784L515.185 750.637C513.967 748.963 512.385 746.675 510.468 743.845L510.342 743.66C510.357 743.549 510.387 743.316 510.483 742.86C510.728 741.642 511.204 739.747 511.404 738.923C512.036 739.723 514.687 743.254 516.678 745.998L516.819 746.195L516.96 746.01C518.074 744.521 519.233 744.583 519.567 744.644C519.693 744.669 519.804 744.694 519.901 744.743L520.109 744.115C519.656 743.402 519.047 742.454 518.482 741.593C517.948 740.768 517.398 739.919 517.175 739.563C517.383 738.997 517.836 737.495 518.936 733.423C520.109 735.022 524.298 741.027 531.406 751.289C531.376 755.079 530.982 758.303 530.656 759.927C530.596 760.222 530.544 760.431 530.5 760.591C528.658 758.647 527.061 757.515 525.865 757.33C524.602 757.121 524.216 758.056 524.097 758.622C523.756 760.296 524.164 763.052 525.843 765.476C526.883 766.977 527.818 767.74 528.799 767.9C529.794 768.06 530.678 767.556 531.614 767.014C532.022 766.78 532.446 766.534 532.891 766.35C534.302 765.673 535.699 765.082 537.377 765.353C540.118 765.796 543.111 768.491 546.81 773.819C551.764 780.968 554.49 790.787 553.442 797.702L553.405 797.923L553.509 798.071C556.138 801.725 557.854 804.149 557.98 804.371ZM526.073 790.947L529.022 800.766L533.716 801.972L530.774 792.152L526.073 790.947ZM529.17 800.433L526.467 791.414L530.626 792.485L533.322 801.492L529.17 800.433ZM542.376 734.985C523.332 707.509 504.296 702.624 499.937 724.108C495.577 745.592 507.52 785.434 526.563 812.91C545.607 840.387 564.643 845.247 569.002 823.763C573.355 802.291 561.419 762.461 542.376 734.985ZM568.787 823.652C566.856 833.176 561.857 837.79 554.712 836.634C546.572 835.317 536.36 826.568 526.712 812.64C507.728 785.25 495.815 745.592 500.152 724.231C502.083 714.707 507.082 710.105 514.219 711.262C522.367 712.579 532.572 721.327 542.235 735.268C561.204 762.658 573.117 802.304 568.787 823.652ZM541.804 738.258C532.958 725.498 523.592 717.476 516.098 716.27C509.392 715.187 504.69 719.543 502.863 728.538C498.875 748.2 509.763 784.597 527.135 809.662C535.974 822.422 545.339 830.432 552.833 831.638C559.547 832.721 564.249 828.365 566.076 819.37C570.057 799.708 559.176 763.323 541.804 738.258ZM565.861 819.247C561.894 838.775 544.589 834.357 527.284 809.379C509.971 784.401 499.112 748.176 503.078 728.648C507.045 709.121 524.35 713.563 541.663 738.541C558.968 763.507 569.819 799.708 565.861 819.247ZM542.851 756.949L539.91 747.13L535.208 745.924L538.157 755.755L542.851 756.949ZM539.761 747.474L542.465 756.481L538.313 755.423L535.61 746.404L539.761 747.474Z" fill="url(#paint4_linear_18509_13859)"/>
<path d="M556.554 856.703C556.658 856.654 556.755 856.593 556.851 856.531C557.074 856.408 557.29 856.273 557.505 856.137C557.624 856.064 557.735 855.977 557.854 855.891C558.047 855.756 558.24 855.608 558.426 855.461C558.545 855.362 558.656 855.264 558.768 855.165C558.953 855.005 559.132 854.845 559.302 854.661C559.406 854.55 559.518 854.452 559.622 854.341C559.807 854.144 559.986 853.935 560.164 853.726C560.253 853.627 560.342 853.529 560.424 853.418C560.684 853.098 560.936 852.766 561.174 852.409C561.174 852.409 561.174 852.409 561.182 852.409L569.247 840.584C569.002 840.941 568.75 841.273 568.49 841.593C568.408 841.692 568.319 841.79 568.23 841.889C568.052 842.098 567.866 842.307 567.68 842.504C567.576 842.615 567.465 842.713 567.361 842.824C567.183 842.996 567.004 843.168 566.826 843.328C566.715 843.427 566.596 843.525 566.485 843.624C566.299 843.771 566.106 843.919 565.913 844.054C565.801 844.14 565.682 844.214 565.564 844.3C565.348 844.448 565.125 844.571 564.903 844.694C564.806 844.756 564.709 844.817 564.605 844.866C564.279 845.039 563.952 845.199 563.61 845.334C563.573 845.346 563.536 845.359 563.506 845.371C563.209 845.494 562.905 845.592 562.593 845.691C562.221 845.802 561.85 845.888 561.471 845.962C561.434 845.974 561.397 845.986 561.352 845.986C560.929 846.06 560.498 846.109 560.06 846.146C559.926 846.158 559.785 846.158 559.644 846.158C559.34 846.171 559.035 846.183 558.716 846.171C558.545 846.171 558.367 846.146 558.188 846.134C557.899 846.109 557.616 846.097 557.319 846.06C557.111 846.035 556.903 845.998 556.688 845.974C556.473 845.937 556.257 845.9 556.042 845.863C555.819 845.814 555.589 845.765 555.359 845.703C555.136 845.654 554.92 845.592 554.698 845.531C554.467 845.469 554.23 845.396 553.999 845.322C553.777 845.248 553.546 845.174 553.316 845.1C553.078 845.014 552.841 844.928 552.603 844.83C552.373 844.743 552.143 844.645 551.912 844.547C551.66 844.436 551.407 844.325 551.155 844.214C550.939 844.116 550.724 844.017 550.501 843.907C550.241 843.784 549.981 843.648 549.721 843.501C549.499 843.39 549.283 843.267 549.06 843.144C548.793 842.996 548.526 842.836 548.258 842.676C548.035 842.541 547.82 842.418 547.597 842.282C547.322 842.11 547.048 841.926 546.773 841.753C546.55 841.606 546.335 841.47 546.112 841.323C545.859 841.15 545.607 840.966 545.354 840.794C545.087 840.609 544.819 840.412 544.552 840.215C544.3 840.031 544.047 839.834 543.794 839.637C543.52 839.428 543.252 839.219 542.977 838.997C542.725 838.788 542.465 838.579 542.205 838.357C541.93 838.124 541.655 837.902 541.381 837.668C541.121 837.447 540.861 837.213 540.601 836.979C540.326 836.733 540.051 836.487 539.769 836.241C539.576 836.056 539.375 835.872 539.182 835.687C538.744 835.281 538.306 834.85 537.868 834.42C537.652 834.211 537.437 833.989 537.221 833.768C536.783 833.325 536.345 832.869 535.907 832.402C535.706 832.193 535.513 831.984 535.313 831.774C534.696 831.11 534.072 830.421 533.448 829.707C533.434 829.695 533.426 829.683 533.411 829.67C532.78 828.944 532.141 828.194 531.502 827.419C531.205 827.062 530.908 826.68 530.604 826.311C530.373 826.028 530.143 825.745 529.913 825.45C529.586 825.031 529.259 824.613 528.933 824.182C528.717 823.899 528.502 823.629 528.286 823.333C527.93 822.854 527.566 822.361 527.209 821.869C527.024 821.623 526.838 821.377 526.66 821.119C526.118 820.368 525.576 819.593 525.026 818.818C524.305 817.784 523.592 816.726 522.894 815.655C522.664 815.298 522.434 814.942 522.204 814.585C521.736 813.859 521.268 813.133 520.815 812.395C520.547 811.964 520.287 811.533 520.02 811.103C519.604 810.426 519.196 809.749 518.787 809.06C518.512 808.605 518.245 808.137 517.977 807.67C517.591 806.993 517.198 806.316 516.819 805.639C516.551 805.159 516.292 804.692 516.024 804.212C515.645 803.523 515.267 802.822 514.895 802.12C514.643 801.653 514.398 801.185 514.153 800.718C513.766 799.979 513.395 799.241 513.016 798.503C512.793 798.06 512.563 797.617 512.348 797.174C511.924 796.325 511.516 795.463 511.107 794.614C510.944 794.27 510.781 793.938 510.617 793.593C510.053 792.4 509.503 791.194 508.961 789.988C508.827 789.693 508.701 789.385 508.567 789.09C508.181 788.204 507.787 787.318 507.416 786.432C507.23 785.989 507.045 785.534 506.859 785.091C506.547 784.34 506.243 783.602 505.938 782.851C505.737 782.359 505.552 781.867 505.359 781.375C505.084 780.673 504.809 779.96 504.542 779.258C504.349 778.742 504.155 778.225 503.97 777.708C503.717 777.019 503.465 776.33 503.22 775.653C502.997 775.026 502.774 774.386 502.551 773.758C502.41 773.352 502.269 772.946 502.135 772.552C501.883 771.802 501.638 771.063 501.4 770.313C501.296 769.981 501.185 769.661 501.081 769.328C500.739 768.258 500.412 767.187 500.093 766.129C500.056 766.006 500.026 765.883 499.989 765.76C499.707 764.813 499.439 763.865 499.172 762.93C499.09 762.635 499.008 762.327 498.927 762.032C498.726 761.294 498.526 760.555 498.333 759.817C498.243 759.46 498.147 759.103 498.058 758.759C497.879 758.045 497.709 757.344 497.538 756.642C497.456 756.31 497.382 755.978 497.3 755.658C497.092 754.76 496.892 753.874 496.706 752.988C496.684 752.877 496.654 752.754 496.632 752.631C496.416 751.622 496.223 750.625 496.038 749.641C495.978 749.346 495.934 749.051 495.882 748.768C495.755 748.066 495.629 747.365 495.518 746.676C495.458 746.331 495.406 745.974 495.347 745.63C495.243 744.978 495.146 744.338 495.057 743.698C495.013 743.366 494.961 743.021 494.916 742.689C494.834 742.098 494.768 741.508 494.701 740.929C494.649 740.511 494.597 740.093 494.552 739.674C494.485 739.084 494.433 738.493 494.381 737.915C494.344 737.533 494.307 737.14 494.277 736.758C494.225 736.118 494.188 735.491 494.151 734.863C494.129 734.556 494.106 734.236 494.092 733.928C494.047 732.993 494.01 732.07 493.995 731.172V731.16C493.98 730.323 493.98 729.511 493.995 728.699C493.995 728.526 494.002 728.354 494.002 728.182C494.017 727.394 494.047 726.619 494.092 725.856C494.099 725.733 494.106 725.598 494.114 725.475C494.158 724.774 494.21 724.097 494.277 723.42C494.292 723.297 494.3 723.174 494.314 723.051C494.389 722.325 494.478 721.611 494.582 720.91C494.604 720.762 494.626 720.602 494.649 720.455C494.76 719.741 494.879 719.04 495.013 718.351C495.837 714.29 497.114 711.066 498.771 708.63L490.705 720.455C489.049 722.891 487.771 726.115 486.947 730.175C486.806 730.852 486.687 731.566 486.583 732.279C486.56 732.427 486.538 732.587 486.516 732.735C486.412 733.436 486.323 734.15 486.248 734.888C486.234 735.011 486.226 735.134 486.211 735.257C486.145 735.934 486.093 736.623 486.048 737.312C486.041 737.435 486.033 737.57 486.026 737.693C485.981 738.456 485.959 739.231 485.937 740.019C485.937 740.191 485.929 740.363 485.929 740.536C485.914 741.348 485.914 742.16 485.929 742.997V743.009C485.944 743.919 485.981 744.83 486.026 745.765C486.041 746.073 486.063 746.38 486.085 746.688C486.122 747.328 486.159 747.955 486.211 748.608C486.241 748.989 486.278 749.37 486.315 749.752C486.367 750.342 486.419 750.933 486.486 751.524C486.531 751.942 486.583 752.36 486.635 752.767C486.687 753.185 486.724 753.603 486.783 754.022C486.806 754.194 486.835 754.366 486.858 754.538C486.902 754.871 486.947 755.203 486.999 755.535C487.088 756.175 487.184 756.827 487.288 757.479C487.34 757.824 487.4 758.168 487.459 758.513C487.578 759.202 487.697 759.903 487.823 760.605C487.875 760.9 487.927 761.195 487.986 761.49C488.172 762.463 488.365 763.435 488.573 764.419C488.581 764.444 488.581 764.456 488.588 764.48C488.61 764.591 488.64 764.714 488.662 764.837C488.848 765.723 489.049 766.609 489.257 767.507C489.331 767.84 489.412 768.172 489.494 768.492C489.665 769.193 489.836 769.895 490.014 770.608C490.103 770.965 490.192 771.322 490.289 771.679C490.482 772.417 490.683 773.155 490.883 773.906C490.965 774.201 491.039 774.496 491.128 774.792C491.158 774.902 491.188 775.001 491.21 775.099C491.44 775.936 491.685 776.76 491.938 777.597C491.975 777.72 492.012 777.856 492.049 777.979C492.369 779.037 492.695 780.107 493.037 781.178C493.141 781.498 493.252 781.83 493.356 782.15C493.601 782.9 493.847 783.639 494.099 784.389C494.233 784.795 494.374 785.201 494.515 785.595C494.664 786.014 494.797 786.432 494.946 786.85C495.02 787.059 495.102 787.269 495.176 787.49C495.421 788.179 495.674 788.868 495.926 789.557C496.119 790.074 496.305 790.591 496.498 791.095C496.765 791.809 497.04 792.51 497.322 793.212C497.516 793.704 497.701 794.196 497.902 794.688C498.206 795.439 498.518 796.189 498.823 796.94C499.008 797.383 499.187 797.826 499.372 798.269C499.751 799.155 500.137 800.053 500.531 800.939C500.65 801.21 500.769 801.493 500.887 801.763C500.895 801.788 500.91 801.813 500.917 801.837C501.459 803.043 502.009 804.249 502.573 805.455C502.729 805.787 502.893 806.119 503.056 806.451C503.465 807.313 503.881 808.174 504.304 809.035C504.527 809.478 504.75 809.921 504.972 810.364C505.344 811.103 505.723 811.841 506.109 812.579C506.354 813.047 506.606 813.527 506.859 813.994C507.23 814.696 507.609 815.397 507.988 816.086C508.248 816.566 508.515 817.033 508.775 817.501C509.161 818.19 509.548 818.867 509.941 819.544C510.209 820.011 510.476 820.466 510.751 820.922C511.159 821.611 511.568 822.287 511.984 822.977C512.244 823.407 512.504 823.838 512.771 824.269C513.231 825.007 513.699 825.733 514.167 826.459C514.398 826.816 514.62 827.172 514.851 827.529C515.549 828.6 516.262 829.658 516.982 830.692C517.524 831.479 518.074 832.242 518.616 832.993C518.802 833.251 518.98 833.485 519.166 833.731C519.53 834.223 519.886 834.715 520.25 835.195C520.473 835.49 520.688 835.773 520.911 836.056C521.231 836.475 521.557 836.893 521.877 837.299C522.107 837.594 522.345 837.877 522.575 838.173C522.813 838.468 523.05 838.763 523.281 839.059C523.34 839.132 523.399 839.194 523.459 839.268C524.098 840.043 524.736 840.794 525.368 841.52C525.375 841.532 525.382 841.544 525.397 841.544C526.021 842.258 526.645 842.947 527.269 843.611C527.469 843.821 527.663 844.03 527.863 844.239C528.301 844.706 528.74 845.162 529.178 845.605C529.393 845.826 529.608 846.035 529.824 846.257C530.262 846.688 530.708 847.118 531.146 847.524C531.28 847.647 531.413 847.783 531.547 847.906C531.606 847.967 531.673 848.016 531.733 848.066C532.007 848.324 532.29 848.57 532.565 848.804C532.824 849.038 533.084 849.271 533.344 849.493C533.619 849.727 533.894 849.948 534.161 850.182C534.421 850.391 534.681 850.613 534.934 850.822C535.201 851.043 535.476 851.24 535.743 851.449C536.003 851.646 536.256 851.843 536.516 852.04C536.783 852.237 537.043 852.421 537.311 852.606C537.518 852.754 537.719 852.901 537.927 853.049C537.979 853.086 538.024 853.111 538.075 853.147C538.298 853.295 538.514 853.43 538.737 853.578C539.011 853.763 539.294 853.935 539.568 854.107C539.791 854.243 540.014 854.378 540.237 854.501C540.504 854.661 540.772 854.821 541.039 854.969C541.262 855.092 541.477 855.202 541.7 855.325C541.96 855.461 542.22 855.596 542.48 855.719C542.703 855.83 542.918 855.928 543.133 856.027C543.297 856.101 543.46 856.187 543.616 856.248C543.705 856.285 543.794 856.322 543.884 856.359C544.114 856.457 544.351 856.544 544.582 856.642C544.819 856.74 545.057 856.827 545.295 856.913C545.525 856.999 545.748 857.06 545.978 857.134C546.216 857.208 546.446 857.282 546.676 857.343C546.899 857.405 547.122 857.466 547.337 857.516C547.567 857.565 547.79 857.626 548.021 857.676C548.236 857.725 548.451 857.762 548.667 857.786C548.793 857.811 548.927 857.835 549.053 857.86C549.135 857.872 549.209 857.872 549.291 857.885C549.58 857.922 549.87 857.946 550.16 857.959C550.338 857.971 550.509 857.983 550.679 857.995C550.991 858.008 551.303 857.995 551.608 857.983C551.742 857.983 551.883 857.983 552.016 857.971C552.455 857.934 552.885 857.885 553.309 857.811C553.346 857.799 553.383 857.786 553.428 857.786C553.806 857.712 554.185 857.626 554.549 857.516C554.579 857.503 554.608 857.503 554.638 857.491C554.92 857.405 555.195 857.306 555.47 857.196C555.507 857.183 555.537 857.171 555.574 857.159C555.901 857.023 556.228 856.876 556.554 856.703Z" fill="url(#paint5_linear_18509_13859)"/>
<path opacity="0.7" d="M532.461 828.549C530.002 825.658 527.522 822.434 525.041 818.841C522.805 815.617 520.666 812.233 518.616 808.751L499.625 707.484C502.083 704.482 505.255 703.018 508.924 703.018L532.461 828.549ZM528.806 713.476C527.96 712.689 527.128 711.951 526.296 711.237L551.237 844.225C552.002 844.57 552.759 844.89 553.502 845.148L528.806 713.476ZM540.489 836.879C542.755 838.897 544.968 840.595 547.107 841.961L521.966 707.927C519.782 706.438 517.673 705.294 515.653 704.482L540.489 836.879ZM547.233 736.818C545.859 734.603 544.448 732.45 542.992 730.346C541.804 728.636 540.616 727.012 539.435 725.449L562.013 845.825C563.915 845.369 565.645 844.434 567.153 843.019L547.233 736.818Z" fill="url(#paint6_linear_18509_13859)"/>
</g>
<g style="mix-blend-mode:luminosity" filter="url(#filter1_d_18509_13859)">
<path d="M716.043 128.364C690.862 101.302 660.049 91.1007 647.23 105.59C634.402 120.068 644.426 153.751 669.607 180.812C694.787 207.874 725.6 218.075 738.42 203.586C751.239 189.096 741.224 155.425 716.043 128.364Z" fill="url(#paint7_linear_18509_13859)"/>
<path opacity="0.7" d="M716.043 128.364C690.862 101.302 660.049 91.1007 647.23 105.59C634.402 120.068 644.426 153.751 669.607 180.812C694.787 207.874 725.6 218.075 738.42 203.586C751.239 189.096 741.224 155.425 716.043 128.364ZM669.851 180.385C661.226 171.124 654.086 160.715 649.188 150.281C640.358 131.467 639.758 114.961 647.585 106.116C660.255 91.8093 690.846 101.986 715.79 128.779C724.415 138.052 731.556 148.449 736.453 158.882C745.283 177.697 745.884 194.203 738.056 203.048C725.395 217.354 694.795 207.19 669.851 180.385Z" fill="url(#paint8_linear_18509_13859)"/>
<path d="M702.228 143.782L700.024 136.415L706.754 138.663L708.958 146.006L702.228 143.782ZM676.391 163.11L678.603 170.465L685.325 172.713L683.129 165.358L676.391 163.11ZM733.048 197.954C721.777 210.684 694.495 201.595 672.229 177.661C649.962 153.739 641.021 123.905 652.3 111.174C663.572 98.4438 690.862 107.546 713.128 131.479C735.386 155.401 744.328 185.223 733.048 197.954ZM729.383 194.008C739.636 182.438 731.508 155.328 711.272 133.581C691.035 111.834 666.226 103.551 655.973 115.12C645.721 126.69 653.857 153.813 674.093 175.572C694.329 197.319 719.131 205.59 729.383 194.008ZM721.248 181.705C721.042 181.424 717.575 177.82 715.956 176.146C719.297 171.613 716.943 164.161 711.359 158.162C702.962 149.133 697.402 148.804 691.999 148.828C688.279 148.767 685.317 149.781 681.976 146.177C680.214 144.283 680.048 142.402 680.909 141.424C681.857 140.349 685.198 141.241 689.724 144.931C689.898 144.821 690.127 144.613 690.388 144.32C691.296 143.294 692.631 141.217 693.516 138.712C690.467 135.438 679.898 124.076 678.532 122.756C678.532 122.756 674.377 126.556 674.109 126.592C674.077 126.629 676.376 129.219 677.608 130.673C676.692 130.282 674.717 129.928 672.64 130.588C670.057 127.949 666.092 124.015 666.036 124.076C665.997 124.125 664.37 125.676 663.548 126.605C663.24 126.959 663.043 127.216 663.09 127.277C663.264 127.46 666.321 130.881 668.84 133.459C666.344 137.063 668.445 145.297 674.851 152.176C682.071 159.934 687.418 160.764 693.121 161.07C697.899 161.351 701.43 160.227 703.547 162.499C705.893 165.016 705.324 166.836 704.787 167.435C703.863 168.473 701.556 168.217 698.002 164.735C697.915 164.637 697.22 165.285 696.43 166.189C695.064 167.728 693.397 170.013 693.95 170.611C695.838 172.64 706.659 185.382 706.935 185.346C708.871 185.113 710.585 183.452 711.39 182.536C711.706 182.181 711.88 181.937 711.88 181.937L709.273 178.675C710.158 178.968 711.438 178.968 712.67 178.589C714.226 180.202 718.847 185.101 719.163 185.37C719.226 185.431 719.352 185.333 719.51 185.15C720.181 184.38 721.461 181.986 721.248 181.705Z" fill="url(#paint9_linear_18509_13859)"/>
<path d="M702.489 143.245L700.285 135.878L707.014 138.126L709.218 145.468L702.489 143.245ZM676.652 162.56L678.864 169.915L685.585 172.163L683.39 164.808L676.652 162.56ZM733.309 197.404C722.038 210.134 694.756 201.045 672.489 177.111C650.223 153.19 641.282 123.355 652.561 110.624C663.833 97.8939 691.122 106.996 713.389 130.93C735.647 154.863 744.588 184.674 733.309 197.404ZM729.644 193.47C739.897 181.9 731.769 154.79 711.532 133.043C691.296 111.296 666.486 103.013 656.234 114.583C645.982 126.153 654.117 153.275 674.354 175.034C694.59 196.769 719.392 205.04 729.644 193.47ZM721.508 181.155C721.303 180.874 717.836 177.27 716.216 175.596C719.558 171.064 717.204 163.611 711.619 157.612C703.223 148.584 697.662 148.254 692.26 148.278C688.54 148.217 685.578 149.231 682.236 145.627C680.475 143.733 680.309 141.852 681.17 140.874C682.118 139.799 685.459 140.691 689.985 144.381C690.159 144.271 690.388 144.063 690.648 143.77C691.557 142.744 692.892 140.667 693.776 138.162C690.727 134.888 680.159 123.526 678.793 122.206C678.793 122.206 674.638 126.006 674.369 126.043C674.338 126.079 676.636 128.669 677.868 130.123C676.952 129.732 674.978 129.378 672.9 130.038C670.317 127.399 666.352 123.465 666.297 123.526C666.257 123.575 664.63 125.126 663.809 126.055C663.501 126.409 663.303 126.666 663.351 126.715C663.525 126.898 666.581 130.319 669.101 132.897C666.605 136.501 668.706 144.723 675.112 151.614C682.331 159.372 687.679 160.202 693.381 160.508C698.16 160.789 701.691 159.665 703.808 161.937C706.154 164.454 705.585 166.274 705.048 166.873C704.124 167.911 701.817 167.655 698.263 164.173C698.176 164.075 697.481 164.723 696.691 165.627C695.324 167.166 693.658 169.451 694.211 170.049C696.099 172.078 706.92 184.82 707.196 184.784C709.131 184.551 710.845 182.89 711.651 181.974C711.967 181.619 712.141 181.375 712.141 181.375L709.534 178.113C710.419 178.406 711.698 178.406 712.931 178.027C714.487 179.64 719.107 184.539 719.423 184.808C719.486 184.869 719.613 184.771 719.771 184.588C720.442 183.831 721.73 181.436 721.508 181.155Z" fill="url(#paint10_linear_18509_13859)"/>
<path opacity="0.7" d="M721.509 181.155C721.303 180.874 717.836 177.269 716.217 175.596C719.558 171.063 717.204 163.611 711.62 157.612C703.223 148.583 697.663 148.253 692.26 148.278C688.54 148.217 685.578 149.231 682.237 145.627C680.475 143.733 680.309 141.851 681.17 140.874C682.118 139.799 685.459 140.691 689.985 144.38C690.159 144.27 690.388 144.063 690.649 143.77C691.557 142.743 692.892 140.666 693.776 138.162C690.728 134.888 680.159 123.525 678.793 122.206C678.793 122.206 674.638 126.006 674.369 126.042C674.338 126.079 676.636 128.669 677.869 130.123C676.952 129.732 674.978 129.378 672.9 130.037C670.317 127.398 666.352 123.464 666.297 123.525C666.258 123.574 664.63 125.126 663.809 126.054C663.501 126.409 663.303 126.665 663.351 126.714C663.525 126.897 666.581 130.318 669.101 132.896C666.605 136.5 668.706 144.723 675.112 151.613C682.331 159.371 687.679 160.202 693.382 160.507C698.16 160.788 701.691 159.664 703.808 161.937C706.154 164.453 705.585 166.274 705.048 166.873C704.124 167.911 701.817 167.654 698.263 164.172C698.176 164.075 697.481 164.722 696.691 165.626C695.325 167.166 693.658 169.45 694.211 170.049C696.099 172.077 706.92 184.82 707.196 184.783C709.131 184.551 710.845 182.889 711.651 181.973C711.967 181.619 712.141 181.374 712.141 181.374L709.534 178.112C710.419 178.406 711.699 178.406 712.931 178.027C714.487 179.64 719.107 184.539 719.423 184.808C719.487 184.869 719.613 184.771 719.771 184.588C720.442 183.83 721.73 181.436 721.509 181.155ZM719.479 184.441C719.131 184.099 717.504 182.388 716.059 180.874C714.882 179.64 713.705 178.393 713.057 177.721L712.978 177.636L712.883 177.66C711.738 178.015 710.474 178.039 709.582 177.746L709.384 178.393L711.77 181.374C711.699 181.46 711.612 181.558 711.517 181.668C710.703 182.584 709.076 184.148 707.236 184.392C706.714 183.965 702.789 179.42 699.614 175.742C697.299 173.067 695.103 170.525 694.353 169.719C694.274 169.377 695.096 167.862 696.833 165.895C697.536 165.101 698.034 164.637 698.216 164.527C701.896 168.106 704.226 168.229 705.19 167.141C705.632 166.64 706.154 165.333 705.324 163.574C705.024 162.926 704.558 162.267 703.95 161.607C702.41 159.958 700.182 160.019 697.37 160.116C696.186 160.153 694.835 160.202 693.405 160.116C687.687 159.811 682.379 158.943 675.262 151.295C673.137 149.011 671.368 146.433 670.152 143.843C668.09 139.445 667.75 135.34 669.275 133.141L669.496 132.823L669.243 132.566C667.798 131.088 665.942 129.097 663.714 126.629L663.698 126.616C663.754 126.543 663.841 126.445 663.951 126.323C664.615 125.578 665.807 124.405 666.258 123.978C666.281 123.953 666.297 123.941 666.313 123.916C666.945 124.466 670.278 127.765 672.774 130.318L672.853 130.404L672.948 130.379C675.072 129.707 677 130.123 677.805 130.465L678.011 129.817C677.497 129.219 676.802 128.412 676.162 127.679C675.673 127.117 675.136 126.494 674.812 126.116C675.602 125.505 677.308 123.977 678.785 122.621C679.946 123.782 684.875 129.035 693.461 138.26C692.584 140.63 691.336 142.523 690.506 143.464C690.317 143.684 690.135 143.855 689.993 143.965C685.878 140.642 682.205 139.249 681.028 140.569C680.286 141.399 680.222 142.78 680.862 144.136C681.147 144.747 681.557 145.333 682.094 145.908C684.859 148.876 687.323 148.779 690.183 148.669C690.846 148.644 691.541 148.608 692.252 148.632C698.239 148.608 703.452 149.267 711.485 157.905C713.373 159.933 714.929 162.181 715.972 164.405C718.01 168.742 718.041 172.615 716.059 175.302L715.83 175.62L716.082 175.889C718.934 178.833 720.869 180.861 721.272 181.326C721.13 181.863 720.237 183.586 719.621 184.282C719.558 184.38 719.51 184.417 719.479 184.441ZM676.652 162.56L678.864 169.915L685.586 172.163L683.39 164.808L676.652 162.56ZM685.175 171.649L679.03 169.597L677.071 163.073L683.224 165.125L685.175 171.649ZM709.21 145.48L707.007 138.137L700.277 135.889L702.481 143.256L709.21 145.48ZM700.696 136.39L706.849 138.443L708.8 144.955L702.655 142.914L700.696 136.39ZM713.389 130.929C691.123 107.008 663.841 97.8935 652.561 110.624C641.29 123.354 650.231 153.189 672.49 177.111C694.756 201.032 722.038 210.134 733.309 197.404C744.589 184.673 735.647 154.863 713.389 130.929ZM672.624 176.817C664.939 168.559 658.564 159.273 654.196 149.976C646.369 133.312 645.808 118.712 652.696 110.929C663.896 98.2845 691.059 107.399 713.247 131.235C720.932 139.493 727.306 148.779 731.674 158.076C739.502 174.74 740.055 189.328 733.167 197.11C721.975 209.768 694.811 200.653 672.624 176.817ZM728.523 157.294C724.526 148.779 718.697 140.288 711.667 132.725C691.352 110.893 666.416 102.609 656.092 114.277C649.599 121.607 650.073 135.242 657.356 150.758C661.353 159.273 667.182 167.764 674.212 175.327C694.527 197.159 719.455 205.43 729.779 193.763C736.271 186.432 735.797 172.798 728.523 157.294ZM674.346 175.021C654.109 153.275 645.974 126.152 656.226 114.57C666.479 103 691.281 111.284 711.525 133.031C731.761 154.777 739.889 181.888 729.636 193.457C719.392 205.039 694.59 196.768 674.346 175.021Z" fill="url(#paint11_linear_18509_13859)"/>
<path d="M731.579 220.469C731.587 220.457 731.595 220.457 731.603 220.445C732.045 220.03 732.472 219.602 732.883 219.138C732.914 219.101 732.938 219.077 732.97 219.04C733.151 218.832 733.309 218.6 733.483 218.392C733.704 218.111 733.933 217.843 734.139 217.549C734.154 217.525 734.17 217.513 734.186 217.488C734.336 217.268 734.47 217.036 734.612 216.816C734.81 216.511 735.015 216.206 735.205 215.888C735.221 215.863 735.244 215.827 735.26 215.802C735.387 215.582 735.489 215.338 735.608 215.118C735.781 214.776 735.963 214.446 736.121 214.092C736.137 214.055 736.161 214.019 736.184 213.97C736.421 213.444 736.634 212.895 736.832 212.345L742.377 196.792C742.164 197.391 741.927 197.965 741.666 198.539C741.508 198.894 741.326 199.223 741.153 199.566C741.018 199.822 740.9 200.091 740.75 200.335C740.568 200.653 740.363 200.958 740.157 201.264C739.999 201.508 739.849 201.765 739.683 201.997C739.478 202.29 739.249 202.559 739.028 202.84C738.83 203.084 738.641 203.353 738.427 203.597C738.017 204.062 737.59 204.489 737.148 204.905C737.069 204.978 736.982 205.039 736.903 205.112C736.508 205.467 736.105 205.809 735.679 206.126C735.284 206.419 734.881 206.7 734.47 206.957C734.383 207.006 734.304 207.055 734.218 207.116C733.767 207.385 733.309 207.653 732.835 207.886C732.812 207.898 732.78 207.91 732.756 207.922C732.314 208.142 731.864 208.338 731.398 208.521C731.263 208.57 731.129 208.631 730.995 208.68C730.497 208.863 729.992 209.046 729.47 209.205C729.463 209.205 729.455 209.205 729.447 209.205C728.918 209.364 728.38 209.486 727.828 209.608C727.654 209.645 727.472 209.682 727.298 209.706C726.927 209.779 726.556 209.84 726.177 209.889C725.877 209.938 725.576 209.962 725.268 209.999C724.937 210.036 724.605 210.072 724.273 210.097C723.965 210.121 723.649 210.134 723.333 210.146C722.962 210.158 722.583 210.17 722.204 210.17C721.99 210.17 721.785 210.17 721.572 210.17C721.098 210.158 720.624 210.146 720.142 210.109C719.984 210.097 719.826 210.097 719.668 210.085C719.028 210.036 718.389 209.975 717.733 209.889C717.583 209.865 717.441 209.84 717.291 209.828C716.817 209.767 716.335 209.694 715.853 209.608C714.984 209.462 714.108 209.291 713.215 209.083C713.176 209.071 713.136 209.058 713.097 209.058C712.243 208.851 711.375 208.619 710.498 208.362C710.221 208.277 709.945 208.191 709.661 208.105C708.989 207.898 708.31 207.678 707.631 207.434C707.346 207.336 707.062 207.238 706.778 207.128C705.909 206.81 705.04 206.468 704.163 206.102C704.092 206.077 704.021 206.041 703.95 206.016C702.899 205.576 701.833 205.088 700.767 204.575C700.498 204.44 700.222 204.306 699.953 204.171C698.966 203.683 697.971 203.17 696.967 202.62C696.873 202.571 696.77 202.522 696.675 202.461C696.486 202.351 696.296 202.241 696.107 202.131C695.522 201.801 694.938 201.471 694.345 201.117C694.061 200.946 693.776 200.763 693.484 200.592C693.026 200.311 692.576 200.03 692.118 199.749C691.059 199.077 690.009 198.393 688.95 197.66C688.721 197.501 688.484 197.33 688.255 197.171C687.529 196.658 686.794 196.133 686.067 195.595C685.728 195.351 685.388 195.094 685.056 194.837C684.48 194.398 683.895 193.946 683.319 193.494C682.971 193.213 682.624 192.944 682.276 192.663C681.723 192.211 681.17 191.759 680.617 191.294C680.278 191.013 679.946 190.732 679.606 190.439C679.045 189.951 678.485 189.45 677.916 188.949C677.608 188.68 677.308 188.411 677 188.13C676.384 187.568 675.768 186.982 675.151 186.395C674.922 186.175 674.685 185.968 674.456 185.748C673.611 184.941 672.774 184.111 671.945 183.255C671.163 182.461 670.381 181.643 669.607 180.812C669.37 180.555 669.133 180.287 668.896 180.03C668.295 179.37 667.695 178.711 667.111 178.051C666.866 177.77 666.621 177.489 666.376 177.208C665.807 176.548 665.247 175.888 664.694 175.216C664.488 174.972 664.275 174.716 664.07 174.471C663.311 173.543 662.577 172.614 661.85 171.686C661.74 171.539 661.629 171.392 661.518 171.246C660.863 170.378 660.215 169.511 659.583 168.644C659.402 168.399 659.22 168.143 659.046 167.898C658.264 166.799 657.506 165.699 656.771 164.6C656.495 164.184 656.226 163.769 655.958 163.353C655.76 163.048 655.555 162.73 655.357 162.425C655.057 161.948 654.765 161.472 654.473 161.008C654.299 160.727 654.125 160.446 653.951 160.165C653.833 159.969 653.722 159.774 653.604 159.578C653.193 158.894 652.798 158.21 652.411 157.526C652.237 157.22 652.072 156.915 651.906 156.622C651.582 156.035 651.266 155.461 650.958 154.875C650.792 154.557 650.626 154.252 650.468 153.946C650.128 153.286 649.789 152.614 649.465 151.955C649.347 151.71 649.22 151.466 649.102 151.222C648.675 150.33 648.257 149.438 647.869 148.546C647.798 148.387 647.727 148.216 647.656 148.057C647.34 147.324 647.032 146.603 646.74 145.87C646.621 145.577 646.511 145.296 646.4 145.003C646.155 144.38 645.919 143.769 645.697 143.146C645.595 142.865 645.484 142.572 645.389 142.291C645.129 141.558 644.884 140.837 644.655 140.116C644.607 139.969 644.56 139.823 644.513 139.688C644.244 138.833 643.991 137.978 643.754 137.123C643.691 136.891 643.636 136.659 643.573 136.426C643.407 135.803 643.257 135.193 643.107 134.569C643.043 134.288 642.98 134.007 642.917 133.726C642.783 133.128 642.664 132.529 642.554 131.943C642.506 131.698 642.459 131.466 642.419 131.222C642.277 130.416 642.151 129.609 642.048 128.815C642.04 128.73 642.032 128.644 642.017 128.546C641.93 127.838 641.859 127.141 641.795 126.457C641.772 126.213 641.764 125.968 641.748 125.724C641.709 125.187 641.685 124.637 641.669 124.111C641.661 123.867 641.653 123.611 641.653 123.366C641.645 122.78 641.653 122.193 641.669 121.619C641.677 121.46 641.669 121.301 641.677 121.143C641.709 120.422 641.764 119.713 641.835 119.017C641.851 118.846 641.882 118.675 641.898 118.491C641.961 117.966 642.032 117.453 642.119 116.94C642.159 116.72 642.198 116.488 642.246 116.268C642.34 115.791 642.443 115.339 642.554 114.875C642.601 114.68 642.648 114.472 642.704 114.289C642.878 113.653 643.059 113.03 643.28 112.432L637.736 127.984C637.522 128.583 637.333 129.206 637.159 129.841C637.104 130.037 637.064 130.232 637.009 130.428C636.898 130.88 636.796 131.344 636.701 131.821C636.661 132.04 636.614 132.26 636.574 132.492C636.488 133.006 636.416 133.519 636.353 134.044C636.33 134.215 636.306 134.386 636.29 134.569C636.219 135.266 636.164 135.974 636.132 136.695C636.124 136.854 636.124 137.013 636.124 137.172C636.108 137.746 636.1 138.32 636.108 138.919C636.108 139.163 636.116 139.42 636.124 139.664C636.14 140.202 636.164 140.739 636.203 141.277C636.219 141.521 636.235 141.765 636.251 142.01C636.306 142.694 636.377 143.39 636.464 144.099C636.472 144.184 636.48 144.282 636.495 144.368C636.598 145.162 636.724 145.968 636.867 146.775C636.906 147.007 636.954 147.251 637.001 147.495C637.112 148.082 637.23 148.68 637.364 149.279C637.427 149.56 637.491 149.841 637.554 150.122C637.696 150.733 637.854 151.356 638.02 151.967C638.083 152.199 638.138 152.431 638.202 152.675C638.438 153.518 638.683 154.374 638.96 155.241C639.007 155.388 639.055 155.534 639.102 155.669C639.331 156.39 639.576 157.123 639.837 157.843C639.939 158.124 640.042 158.405 640.145 158.699C640.374 159.309 640.603 159.933 640.848 160.556C640.958 160.849 641.077 161.13 641.187 161.423C641.479 162.156 641.788 162.877 642.111 163.61C642.182 163.769 642.246 163.928 642.317 164.099C642.712 164.991 643.122 165.882 643.557 166.774C643.675 167.019 643.794 167.263 643.912 167.495C644.236 168.167 644.576 168.827 644.915 169.499C644.986 169.645 645.058 169.792 645.137 169.926C645.223 170.097 645.318 170.256 645.405 170.427C645.713 171.014 646.029 171.6 646.353 172.174C646.519 172.48 646.685 172.773 646.858 173.078C647.245 173.763 647.648 174.447 648.051 175.131C648.146 175.29 648.233 175.449 648.328 175.607C648.351 175.644 648.375 175.681 648.391 175.717C648.557 175.998 648.738 176.279 648.912 176.56C649.204 177.037 649.489 177.513 649.789 177.978C649.986 178.295 650.192 178.601 650.397 178.918C650.626 179.273 650.855 179.639 651.092 179.993C651.132 180.054 651.171 180.103 651.211 180.164C651.945 181.264 652.703 182.364 653.485 183.463C653.564 183.573 653.628 183.683 653.707 183.781C653.809 183.927 653.92 184.062 654.023 184.208C654.654 185.076 655.294 185.943 655.958 186.811C656.045 186.921 656.116 187.031 656.203 187.141C656.226 187.177 656.258 187.214 656.282 187.238C657 188.179 657.743 189.108 658.501 190.024C658.564 190.109 658.627 190.183 658.691 190.268C658.833 190.439 658.983 190.61 659.117 190.781C659.67 191.453 660.231 192.113 660.8 192.773C660.934 192.932 661.068 193.09 661.202 193.249C661.313 193.371 661.424 193.494 661.534 193.616C662.119 194.288 662.719 194.947 663.327 195.607C663.469 195.766 663.611 195.925 663.754 196.084C663.848 196.181 663.935 196.279 664.03 196.389C664.788 197.208 665.555 198.014 666.329 198.796C666.344 198.808 666.352 198.82 666.368 198.833C667.197 199.688 668.035 200.506 668.88 201.325C668.904 201.349 668.919 201.362 668.943 201.386C669.156 201.594 669.362 201.777 669.575 201.972C670.191 202.559 670.807 203.145 671.423 203.707C671.479 203.756 671.526 203.805 671.581 203.854C671.834 204.086 672.087 204.294 672.339 204.514C672.9 205.014 673.461 205.515 674.03 206.004C674.125 206.09 674.219 206.175 674.314 206.248C674.559 206.456 674.796 206.652 675.041 206.847C675.594 207.311 676.147 207.776 676.7 208.228C676.842 208.35 676.984 208.472 677.126 208.582C677.331 208.741 677.537 208.9 677.742 209.058C678.319 209.51 678.903 209.963 679.48 210.402C679.677 210.549 679.867 210.708 680.064 210.854C680.207 210.964 680.349 211.062 680.491 211.16C681.218 211.697 681.952 212.223 682.679 212.736C682.86 212.858 683.042 213.005 683.232 213.127C683.279 213.163 683.334 213.188 683.382 213.225C684.44 213.958 685.491 214.642 686.549 215.314C686.644 215.375 686.731 215.436 686.826 215.497C687.189 215.729 687.56 215.937 687.924 216.169C688.208 216.34 688.492 216.523 688.777 216.682C689.369 217.036 689.953 217.366 690.538 217.696C690.728 217.806 690.917 217.916 691.107 218.026C691.13 218.038 691.154 218.05 691.178 218.063C691.249 218.099 691.32 218.136 691.399 218.173C692.402 218.722 693.397 219.235 694.385 219.724C694.653 219.859 694.93 219.993 695.198 220.127C696.265 220.64 697.331 221.129 698.381 221.569C698.389 221.569 698.397 221.581 698.413 221.581C698.476 221.606 698.531 221.63 698.595 221.654C699.471 222.021 700.348 222.363 701.209 222.681C701.493 222.791 701.778 222.888 702.062 222.986C702.741 223.231 703.421 223.45 704.092 223.658C704.369 223.744 704.645 223.829 704.921 223.915C705.798 224.171 706.667 224.403 707.52 224.611C707.56 224.623 707.599 224.636 707.639 224.636C708.531 224.843 709.408 225.014 710.277 225.161C710.364 225.173 710.458 225.198 710.553 225.21C710.948 225.271 711.327 225.32 711.714 225.381C711.864 225.405 712.014 225.43 712.157 225.442C712.812 225.527 713.452 225.588 714.092 225.637C714.25 225.65 714.408 225.65 714.566 225.662C715.047 225.686 715.521 225.711 715.995 225.723C716.209 225.723 716.414 225.723 716.627 225.723C716.825 225.723 717.022 225.735 717.22 225.723C717.401 225.723 717.583 225.698 717.765 225.698C718.081 225.686 718.389 225.674 718.705 225.65C719.044 225.625 719.368 225.588 719.7 225.552C720.008 225.515 720.308 225.479 720.608 225.442C720.742 225.417 720.885 225.417 721.019 225.393C721.264 225.356 721.493 225.295 721.738 225.259C721.911 225.222 722.093 225.197 722.267 225.161C722.812 225.039 723.349 224.917 723.878 224.758C723.886 224.758 723.894 224.758 723.902 224.745C724.423 224.587 724.929 224.416 725.426 224.232C725.561 224.183 725.695 224.122 725.821 224.074C725.971 224.012 726.121 223.964 726.264 223.902C726.572 223.768 726.88 223.621 727.18 223.475C727.204 223.463 727.227 223.45 727.251 223.438C727.591 223.267 727.93 223.084 728.262 222.901C728.388 222.827 728.515 222.742 728.641 222.669C728.728 222.62 728.807 222.571 728.894 222.51C729.273 222.278 729.636 222.033 730 221.764C730.039 221.74 730.071 221.703 730.102 221.679C730.521 221.361 730.932 221.019 731.327 220.665C731.429 220.579 731.508 220.53 731.579 220.469Z" fill="url(#paint12_linear_18509_13859)"/>
<path opacity="0.7" d="M728.286 209.474L650.792 154.508C648.873 150.843 647.23 147.202 645.895 143.635L734.81 206.701C732.867 207.983 730.679 208.9 728.286 209.474ZM743.854 189.731L642.024 117.502C641.685 119.75 641.59 122.157 641.701 124.674L742.543 196.194C743.206 194.202 743.641 192.028 743.854 189.731ZM740.418 200.849C740.884 200.091 741.295 199.285 741.666 198.454L641.938 127.716C642.072 128.913 642.238 130.122 642.459 131.369L740.418 200.849ZM733.933 152.957L658.501 99.457C653.999 100.288 650.144 102.291 647.222 105.59C647.111 105.712 647.009 105.859 646.906 105.993L742.282 173.641C740.631 167.043 737.811 160.03 733.933 152.957Z" fill="url(#paint13_linear_18509_13859)"/>
</g>
<g style="mix-blend-mode:luminosity">
<path d="M433.466 818.324C433.466 818.314 433.466 818.294 433.466 818.284C433.466 818.204 433.448 817.734 433.394 817.024C433.389 816.964 433.383 816.904 433.377 816.834C433.371 816.744 433.359 816.654 433.353 816.564C433.14 814.304 432.659 812.164 431.972 810.274L431.966 810.264C431.889 810.054 431.812 809.854 431.729 809.654C431.343 808.694 430.899 807.794 430.407 806.984C430.175 806.594 429.891 806.174 429.642 805.844C429.476 805.624 429.304 805.404 429.132 805.194C429.126 805.184 429.114 805.174 429.108 805.164L429.085 805.134C429.055 805.094 429.025 805.064 428.996 805.024C428.883 804.894 428.759 804.754 428.628 804.624C428.622 804.614 428.616 804.614 428.616 804.604C428.551 804.534 428.486 804.474 428.415 804.404C428.385 804.374 428.349 804.344 428.32 804.314C428.29 804.284 428.266 804.264 428.237 804.234C428.213 804.214 428.195 804.194 428.172 804.174C427.769 803.804 427.348 803.474 426.915 803.194C426.802 803.124 426.713 803.064 426.666 803.034L426.589 802.984L426.512 802.934C426.506 802.934 426.506 802.934 426.5 802.924L426.482 802.914C426.447 802.894 426.393 802.864 426.358 802.844L426.34 802.834C426.334 802.834 426.328 802.824 426.322 802.824L426.233 802.774C426.198 802.754 426.15 802.734 426.12 802.714L426.02 802.664C426.002 802.654 425.984 802.644 425.966 802.634C425.96 802.634 425.954 802.624 425.949 802.624C425.943 802.624 425.937 802.614 425.931 802.614C425.919 802.604 425.907 802.604 425.901 802.604L425.788 802.554C425.759 802.544 425.723 802.524 425.694 802.514C425.664 802.504 425.634 802.494 425.605 802.474H425.599C425.581 802.464 425.563 802.464 425.545 802.454C425.51 802.444 425.468 802.424 425.439 802.414L425.362 802.384C425.326 802.374 425.29 802.364 425.261 802.344C425.255 802.344 425.249 802.344 425.243 802.334C425.219 802.324 425.19 802.314 425.166 802.304L425.119 802.294L425.065 802.274C425.059 802.274 425.059 802.274 425.053 802.274L425.036 802.264C425.024 802.264 425.012 802.254 425.006 802.254C424.976 802.244 424.953 802.234 424.923 802.234C424.905 802.224 424.887 802.224 424.87 802.214C424.84 802.204 424.81 802.194 424.775 802.194L424.698 802.174C424.686 802.174 424.668 802.164 424.65 802.164C424.627 802.154 424.603 802.154 424.579 802.144C424.555 802.134 424.532 802.134 424.508 802.124C424.472 802.114 424.431 802.104 424.395 802.104L424.289 802.084C424.277 802.084 424.265 802.084 424.253 802.074H424.247C424.217 802.074 424.182 802.064 424.152 802.064C424.105 802.054 424.057 802.054 424.01 802.044C423.974 802.044 423.945 802.034 423.909 802.034C423.874 802.034 423.838 802.024 423.797 802.024C423.761 802.024 423.719 802.014 423.684 802.014C423.66 802.014 423.636 802.014 423.613 802.014L423.548 802.004C423.53 802.004 423.518 802.004 423.5 802.004C423.482 802.004 423.465 802.004 423.447 802.004C423.239 801.994 423.038 802.004 422.83 802.014C422.783 802.014 422.741 802.024 422.7 802.024C422.652 802.024 422.611 802.034 422.563 802.034C422.534 802.034 422.504 802.044 422.48 802.044C422.415 802.054 422.35 802.064 422.285 802.074C422.261 802.074 422.237 802.084 422.214 802.084C422.119 802.104 422.03 802.114 421.941 802.134C421.9 802.144 421.858 802.154 421.817 802.164C421.817 802.164 421.822 802.164 421.828 802.164C421.822 802.164 421.822 802.164 421.817 802.164C421.811 802.164 421.799 802.164 421.793 802.174C421.722 802.194 421.662 802.204 421.597 802.224C421.55 802.234 421.496 802.254 421.449 802.264C421.336 802.294 421.247 802.324 421.188 802.344C420.892 802.444 420.601 802.574 420.311 802.724C420.139 802.804 419.985 802.894 419.795 803.004C419.007 803.484 418.248 804.124 417.542 804.924C417.471 805.004 417.4 805.084 417.335 805.164C417.323 805.174 417.317 805.184 417.305 805.194C417.187 805.334 417.068 805.484 416.949 805.644C416.938 805.654 416.932 805.664 416.92 805.684L416.908 805.694C416.908 805.694 416.902 805.704 416.896 805.704C416.89 805.714 416.884 805.714 416.884 805.724C416.878 805.724 416.878 805.734 416.872 805.734C416.843 805.774 416.807 805.824 416.777 805.864C416.712 805.954 416.653 806.044 416.594 806.124C416.558 806.174 416.528 806.224 416.493 806.274C416.422 806.374 416.362 806.474 416.297 806.564C416.297 806.564 416.291 806.574 416.285 806.574L416.279 806.584C416.268 806.604 416.25 806.624 416.238 806.654C415.918 807.154 415.728 807.514 415.716 807.544C415.616 807.724 415.521 807.914 415.426 808.104C415.361 808.234 415.289 808.384 415.218 808.534C415.212 808.544 415.206 808.554 415.201 808.564L415.189 808.584C415.046 808.884 414.898 809.234 414.732 809.644L414.726 809.654C414.726 809.654 414.726 809.664 414.72 809.664C414.72 809.674 414.714 809.674 414.714 809.684C414.637 809.874 414.56 810.084 414.483 810.304C414.418 810.494 414.347 810.684 414.294 810.844L414.104 811.484C414.039 811.694 413.979 811.894 413.926 812.074C413.825 812.424 413.713 812.894 413.606 813.394V813.404C413.517 813.834 413.428 814.294 413.357 814.734V814.754C413.357 814.764 413.357 814.764 413.357 814.774C413.262 815.344 413.191 815.894 413.155 816.314C413.019 817.914 413.013 818.044 413.001 819.104C412.989 820.434 413.072 821.384 413.114 821.844C413.226 823.164 413.416 824.164 413.481 824.494C413.701 825.664 413.896 826.354 414.086 827.014C414.205 827.424 414.294 827.714 414.412 828.034C414.554 828.434 414.708 828.834 414.869 829.224C414.886 829.274 414.904 829.314 414.928 829.364C415.088 829.774 415.331 830.284 415.533 830.644C415.681 830.914 415.87 831.274 416.025 831.534C416.179 831.794 416.38 832.124 416.546 832.354C416.73 832.624 416.801 832.734 416.973 832.944C417.181 833.224 417.394 833.474 417.607 833.714C417.679 833.794 417.744 833.864 417.815 833.944C417.898 834.034 417.981 834.114 418.052 834.184C418.094 834.224 418.147 834.274 418.206 834.334C418.218 834.344 418.224 834.354 418.236 834.364C418.301 834.424 418.378 834.494 418.461 834.564C418.479 834.584 418.497 834.594 418.514 834.614C418.763 834.834 419.078 835.084 419.421 835.324C419.499 835.374 419.599 835.444 419.724 835.524C419.759 835.544 419.795 835.574 419.825 835.594L420.008 835.704C420.044 835.724 420.097 835.754 420.133 835.774L420.18 835.794C420.186 835.794 420.186 835.794 420.192 835.794L420.263 835.834C420.299 835.854 420.346 835.874 420.376 835.894L420.489 835.944C420.489 835.944 420.494 835.944 420.5 835.944C420.939 836.154 421.36 836.304 421.763 836.394L421.799 836.404C421.834 836.414 421.87 836.424 421.911 836.434C421.917 836.434 421.917 836.434 421.923 836.434C421.959 836.444 421.994 836.454 422.024 836.454L422.249 836.494C422.35 836.514 422.486 836.524 422.587 836.544C422.682 836.554 422.795 836.564 422.907 836.574C422.961 836.574 423.014 836.584 423.061 836.584C423.204 836.584 423.393 836.584 423.53 836.584C423.672 836.584 423.868 836.554 424.01 836.544C424.318 836.494 424.727 836.414 425.03 836.324C425.267 836.254 425.581 836.144 425.812 836.034C425.871 836.004 425.931 835.974 425.996 835.944C426.18 835.854 426.369 835.754 426.524 835.674L426.707 835.554C426.856 835.464 427.004 835.374 427.146 835.274L427.217 835.224C427.389 835.114 427.597 834.944 427.78 834.784C427.857 834.714 427.94 834.654 428.018 834.584C428.231 834.404 428.492 834.154 428.681 833.944C428.687 833.934 428.693 833.924 428.699 833.924C428.877 833.734 429.049 833.544 429.215 833.334C429.251 833.294 429.292 833.244 429.322 833.204L429.505 832.954C429.553 832.884 429.606 832.824 429.654 832.754L429.932 832.374C430.039 832.234 430.229 831.944 430.513 831.464C430.519 831.454 430.525 831.444 430.525 831.444L430.555 831.394C430.703 831.134 430.869 830.834 431.065 830.464C431.071 830.454 431.071 830.444 431.077 830.434C431.266 830.064 431.586 829.404 431.93 828.464C431.936 828.454 431.936 828.444 431.936 828.444C432.013 828.234 432.096 828.004 432.173 827.754C432.209 827.654 432.238 827.544 432.274 827.434C432.321 827.284 432.369 827.144 432.404 827.004C432.416 826.964 432.428 826.914 432.44 826.874C432.505 826.644 432.57 826.404 432.636 826.154C432.725 825.814 432.808 825.474 432.867 825.174C432.974 824.664 433.074 824.134 433.163 823.564C433.217 823.214 433.264 822.874 433.3 822.544C433.341 822.194 433.371 821.834 433.4 821.464C433.406 821.384 433.412 821.294 433.418 821.214C433.454 820.714 433.472 820.204 433.477 819.674C433.477 819.654 433.477 819.634 433.477 819.614V819.574C433.483 819.194 433.477 818.764 433.466 818.324Z" fill="url(#paint14_radial_18509_13859)"/>
</g>
<g opacity="0.5">
<path d="M145.443 7.93371C145.443 7.91123 145.443 7.88875 145.411 7.88875C145.38 7.82134 145.349 7.75393 145.318 7.68651C145.286 7.6191 145.255 7.55166 145.224 7.48424C145.193 7.41683 145.13 7.37191 145.099 7.3045C145.099 7.3045 145.099 7.30448 145.099 7.282C145.099 7.282 145.099 7.28202 145.099 7.25954C145.068 7.2146 145.037 7.16966 144.974 7.12472C144.912 7.07978 144.88 7.01234 144.818 6.9674C144.755 6.92246 144.693 6.87752 144.631 6.83258C144.599 6.8101 144.568 6.78763 144.537 6.76516L128.327 -4.38086C128.546 -4.24603 128.702 -4.06625 128.858 -3.88648C128.858 -3.88648 128.858 -3.88646 128.858 -3.86398C129.014 -3.66174 129.139 -3.45951 129.202 -3.21232L139.914 28.001L156.124 39.147L145.443 7.93371Z" fill="url(#paint15_linear_18509_13859)"/>
<path d="M66.737 115.191L8.33245 140.719C7.77027 140.967 7.23926 141.169 6.70831 141.326C6.67707 141.326 6.6772 141.349 6.64597 141.349C6.14625 141.506 5.64644 141.618 5.17795 141.708C3.36647 142.023 1.92989 141.82 0.99292 141.191L17.2025 152.337C18.1083 152.966 19.5761 153.169 21.3876 152.854C21.6686 152.809 21.9498 152.742 22.2622 152.674C22.4495 152.629 22.668 152.562 22.8866 152.495C22.9179 152.495 22.9179 152.472 22.9492 152.472C22.9804 152.472 22.9805 152.472 23.0117 152.45C23.1991 152.382 23.4177 152.315 23.6051 152.247C23.7925 152.18 23.9486 152.113 24.136 152.045C24.2922 151.978 24.4484 151.91 24.6046 151.843L83.0089 126.315L66.737 115.191Z" fill="url(#paint16_linear_18509_13859)"/>
<path d="M208.969 41.9098C208.969 41.8424 208.969 41.775 209 41.7076C209 41.5952 209 41.5053 209 41.4154C209 41.3256 209 41.2357 208.969 41.1458C208.969 41.1009 208.937 41.0559 208.937 41.0334C208.937 41.0109 208.937 41.011 208.937 40.9885C208.937 40.966 208.937 40.921 208.906 40.8986C208.875 40.8312 208.875 40.7413 208.844 40.6739C208.813 40.6065 208.781 40.539 208.75 40.4716C208.719 40.4042 208.688 40.3368 208.656 40.2919C208.656 40.2694 208.625 40.2469 208.625 40.2244V40.202C208.594 40.1795 208.594 40.1346 208.563 40.1121C208.531 40.0447 208.469 39.9997 208.438 39.9548C208.375 39.9099 208.344 39.8424 208.282 39.7975C208.219 39.7525 208.157 39.7076 208.094 39.6402C208.063 39.6177 208.032 39.5952 208.001 39.5727L191.791 28.4268C192.041 28.6065 192.259 28.8088 192.416 29.056V29.0784C192.572 29.3031 192.665 29.5728 192.728 29.8425C192.728 29.865 192.728 29.8649 192.728 29.8874C192.79 30.1571 192.79 30.4492 192.759 30.7638C192.759 30.7863 192.759 30.8087 192.759 30.8312C192.728 31.1234 192.634 31.438 192.54 31.7526C192.509 31.7975 192.509 31.8425 192.509 31.8874C192.447 32.0672 192.322 32.2694 192.228 32.4717C192.135 32.6515 192.072 32.8312 191.947 33.0335C191.822 33.2133 191.666 33.4155 191.541 33.6177C191.416 33.82 191.291 33.9997 191.104 34.202C190.792 34.5615 190.448 34.9211 190.073 35.2807C190.073 35.3031 190.042 35.3031 190.042 35.3256C189.636 35.7076 189.167 36.0896 188.668 36.4716L137.322 74.449L153.531 85.595L204.877 47.6177C204.909 47.5952 204.909 47.5952 204.94 47.5727C205.065 47.4828 205.19 47.3929 205.315 47.303C205.44 47.2132 205.533 47.1233 205.658 47.0334C205.783 46.921 205.908 46.8311 206.033 46.7188C206.127 46.6513 206.189 46.584 206.283 46.4941C206.283 46.4716 206.314 46.4716 206.314 46.4491C206.345 46.4266 206.376 46.4042 206.376 46.3817C206.501 46.2469 206.657 46.112 206.782 45.9772C206.97 45.7974 207.126 45.6177 207.282 45.4379C207.313 45.4154 207.313 45.393 207.345 45.3705C207.501 45.1683 207.626 44.9885 207.782 44.8087C207.938 44.6065 208.094 44.4267 208.188 44.2244C208.313 44.0446 208.375 43.8649 208.469 43.6626C208.563 43.5053 208.656 43.3255 208.719 43.1682C208.719 43.1458 208.75 43.1008 208.75 43.0783C208.781 43.0334 208.781 42.9885 208.781 42.9435C208.813 42.8087 208.875 42.6964 208.906 42.5615C208.937 42.4042 208.969 42.2694 209 42.1346C209 42.0896 209 42.0671 209 42.0222C208.969 41.9323 208.969 41.9098 208.969 41.9098Z" fill="url(#paint17_linear_18509_13859)"/>
<path d="M137.291 74.3818L122.362 115.348C122.237 115.685 122.049 116 121.862 116.314C121.8 116.426 121.768 116.539 121.706 116.651C121.456 117.056 121.144 117.46 120.8 117.865L120.769 117.887C120.425 118.292 120.051 118.674 119.613 119.033C119.176 119.415 118.739 119.775 118.27 120.112C117.802 120.449 117.302 120.764 116.771 121.056C116.271 121.348 115.741 121.618 115.21 121.842C115.21 121.842 115.21 121.842 115.178 121.842C114.648 122.067 114.117 122.292 113.586 122.449C113.055 122.629 112.524 122.741 111.993 122.853C111.025 123.033 110.088 123.056 109.244 122.898L66.7683 115.146L82.9779 126.292L125.454 134.044C126.297 134.202 127.203 134.157 128.202 133.999C128.483 133.955 128.765 133.887 129.046 133.82C129.296 133.752 129.545 133.685 129.795 133.617C129.983 133.55 130.17 133.483 130.357 133.415C130.545 133.348 130.701 133.28 130.888 133.213C131.044 133.146 131.201 133.078 131.357 133.011C131.357 133.011 131.388 133.011 131.388 132.988C131.388 132.988 131.388 132.988 131.419 132.988C131.544 132.943 131.669 132.876 131.794 132.808C131.919 132.741 132.075 132.674 132.2 132.606C132.325 132.539 132.481 132.471 132.606 132.404C132.731 132.337 132.856 132.269 132.981 132.202C133.106 132.134 133.231 132.044 133.356 131.977C133.481 131.91 133.606 131.82 133.731 131.752C133.855 131.685 133.98 131.595 134.105 131.528C134.23 131.438 134.355 131.37 134.449 131.28L134.48 131.258C134.574 131.191 134.699 131.101 134.792 131.033C134.917 130.943 135.011 130.853 135.136 130.764C135.261 130.674 135.355 130.584 135.48 130.494C135.604 130.404 135.698 130.292 135.823 130.202C135.823 130.202 135.823 130.202 135.823 130.179C135.823 130.179 135.823 130.179 135.823 130.157C135.948 130.067 136.042 129.955 136.135 129.865C136.26 129.73 136.385 129.617 136.51 129.483C136.666 129.325 136.791 129.168 136.947 129.011L136.979 128.988C136.979 128.988 136.979 128.966 137.01 128.966C137.353 128.584 137.634 128.179 137.884 127.775C137.947 127.662 138.009 127.55 138.072 127.438C138.228 127.168 138.384 126.876 138.509 126.606C138.54 126.561 138.54 126.516 138.571 126.471L153.5 85.5053L137.291 74.3818Z" fill="url(#paint18_linear_18509_13859)"/>
<path d="M189.137 27.7977L139.977 28.0224L129.264 -3.19087C128.702 -4.78637 126.672 -5.28073 124.173 -4.85376C121.675 -4.4268 118.77 -3.05604 116.427 -0.943695L71.1093 40.1572L13.142 58.8313C7.14541 60.7639 2.52318 66.2694 4.70944 68.8762L25.8849 94.067L0.774133 136.808C-1.31844 140.381 1.05517 142.471 5.20908 141.752C6.17728 141.572 7.23924 141.258 8.39484 140.763L66.7992 115.235L109.275 122.988C110.119 123.146 111.024 123.101 112.024 122.943C116.209 122.202 121.175 118.809 122.424 115.393L137.353 74.4267L188.699 36.4494C193.915 32.5168 194.196 27.7753 189.137 27.7977Z" fill="url(#paint19_linear_18509_13859)"/>
<path opacity="0.7" d="M189.137 27.7977L139.977 28.0224L129.264 -3.19087C128.702 -4.78637 126.672 -5.28073 124.173 -4.85376C121.675 -4.4268 118.77 -3.05604 116.427 -0.943695L71.1093 40.1572L13.142 58.8313C7.14541 60.7639 2.52318 66.2694 4.70944 68.8762L25.8849 94.067L0.774133 136.808C-1.31844 140.381 1.05517 142.471 5.20908 141.752C6.17728 141.572 7.23924 141.258 8.39484 140.763L66.7992 115.235L109.275 122.988C110.119 123.146 111.024 123.101 112.024 122.943C116.209 122.202 121.175 118.809 122.424 115.393L137.353 74.4267L188.699 36.4494C193.915 32.5168 194.196 27.7753 189.137 27.7977ZM187.918 35.9325L136.385 74.0447L121.394 115.191C120.269 118.224 115.772 121.505 111.711 122.224C111.243 122.314 110.774 122.359 110.368 122.359C110.056 122.359 109.744 122.337 109.463 122.292L66.5807 114.471L7.83268 140.157C6.80201 140.606 5.83364 140.921 4.9279 141.078C4.45942 141.168 4.02218 141.213 3.58493 141.213C2.89782 141.213 1.92977 141.078 1.39882 140.494C0.742939 139.775 0.836499 138.539 1.64854 137.123L26.9779 94.0221L5.55259 68.5166C5.05287 67.9099 5.02177 66.9885 5.49025 65.9099C6.58338 63.3481 9.98757 60.674 13.5481 59.5279L71.734 40.7864L117.208 -0.449313C119.27 -2.31447 121.956 -3.68523 124.392 -4.11219C124.891 -4.20208 125.36 -4.24705 125.797 -4.24705C127.14 -4.24705 127.984 -3.82006 128.265 -2.9886L139.165 28.764L189.105 28.5393C190.323 28.5393 191.135 28.8539 191.479 29.4831C192.291 30.764 191.323 33.4157 187.918 35.9325Z" fill="url(#paint20_linear_18509_13859)"/>
</g>
</g>
<defs>
<filter id="filter0_d_18509_13859" x="435.918" y="657" width="188.125" height="255.001" filterUnits="userSpaceOnUse" color-interpolation-filters="sRGB">
<feFlood flood-opacity="0" result="BackgroundImageFix"/>
<feColorMatrix in="SourceAlpha" type="matrix" values="0 0 0 0 0 0 0 0 0 0 0 0 0 0 0 0 0 0 127 0" result="hardAlpha"/>
<feOffset dy="4"/>
<feGaussianBlur stdDeviation="25"/>
<feColorMatrix type="matrix" values="0 0 0 0 0.0666666 0 0 0 0 0.0941176 0 0 0 0 0.286275 0 0 0 0.5 0"/>
<feBlend mode="normal" in2="BackgroundImageFix" result="effect1_dropShadow_18509_13859"/>
<feBlend mode="normal" in="SourceGraphic" in2="effect1_dropShadow_18509_13859" result="shape"/>
</filter>
<filter id="filter1_d_18509_13859" x="586.105" y="53" width="207.895" height="226.729" filterUnits="userSpaceOnUse" color-interpolation-filters="sRGB">
<feFlood flood-opacity="0" result="BackgroundImageFix"/>
<feColorMatrix in="SourceAlpha" type="matrix" values="0 0 0 0 0 0 0 0 0 0 0 0 0 0 0 0 0 0 127 0" result="hardAlpha"/>
<feOffset dy="4"/>
<feGaussianBlur stdDeviation="25"/>
<feColorMatrix type="matrix" values="0 0 0 0 0.0666666 0 0 0 0 0.0941176 0 0 0 0 0.286275 0 0 0 0.5 0"/>
<feBlend mode="normal" in2="BackgroundImageFix" result="effect1_dropShadow_18509_13859"/>
<feBlend mode="normal" in="SourceGraphic" in2="effect1_dropShadow_18509_13859" result="shape"/>
</filter>
<linearGradient id="paint0_linear_18509_13859" x1="495.528" y1="716.702" x2="600.962" y2="774.491" gradientUnits="userSpaceOnUse">
<stop offset="0.0317" stop-color="#FCE878"/>
<stop offset="0.0527" stop-color="#FCE676"/>
<stop offset="0.6976" stop-color="#FEB432"/>
<stop offset="1" stop-color="#FFA018"/>
</linearGradient>
<linearGradient id="paint1_linear_18509_13859" x1="557.138" y1="806.825" x2="473.808" y2="764.511" gradientUnits="userSpaceOnUse">
<stop stop-color="#FFE6B9" stop-opacity="0"/>
<stop offset="0.3821" stop-color="#FFF3DE" stop-opacity="0.4239"/>
<stop offset="0.7037" stop-color="#FFFCF6" stop-opacity="0.7807"/>
<stop offset="0.9014" stop-color="white"/>
</linearGradient>
<linearGradient id="paint2_linear_18509_13859" x1="497.558" y1="720.501" x2="599.991" y2="776.052" gradientUnits="userSpaceOnUse">
<stop offset="0.0431" stop-color="#FFA018"/>
<stop offset="0.9874" stop-color="#D36B18"/>
</linearGradient>
<linearGradient id="paint3_linear_18509_13859" x1="585.732" y1="837.612" x2="460.32" y2="780.871" gradientUnits="userSpaceOnUse">
<stop stop-color="#FFB817"/>
<stop offset="0.9893" stop-color="#FFFFBC"/>
</linearGradient>
<linearGradient id="paint4_linear_18509_13859" x1="585.732" y1="837.611" x2="460.32" y2="780.871" gradientUnits="userSpaceOnUse">
<stop stop-color="#FFE6B9" stop-opacity="0"/>
<stop offset="0.3821" stop-color="#FFF3DE" stop-opacity="0.4239"/>
<stop offset="0.7037" stop-color="#FFFCF6" stop-opacity="0.7807"/>
<stop offset="0.9014" stop-color="white"/>
</linearGradient>
<linearGradient id="paint5_linear_18509_13859" x1="482.812" y1="729.143" x2="595.381" y2="795.757" gradientUnits="userSpaceOnUse">
<stop offset="0.0394" stop-color="#FFC826"/>
<stop offset="0.1112" stop-color="#FFA018"/>
<stop offset="0.4264" stop-color="#F8771E"/>
<stop offset="0.5129" stop-color="#EC6D1A"/>
<stop offset="0.6677" stop-color="#CD510E"/>
<stop offset="0.721" stop-color="#C14609"/>
<stop offset="0.8348" stop-color="#C3480A"/>
<stop offset="0.8863" stop-color="#CA4E0D"/>
<stop offset="0.9252" stop-color="#D75A11"/>
<stop offset="0.9577" stop-color="#E96A18"/>
<stop offset="0.977" stop-color="#F8771E"/>
<stop offset="0.9864" stop-color="#F87A1E"/>
<stop offset="0.992" stop-color="#FA821C"/>
<stop offset="0.9967" stop-color="#FC901A"/>
<stop offset="1" stop-color="#FFA018"/>
</linearGradient>
<linearGradient id="paint6_linear_18509_13859" x1="548.138" y1="823.328" x2="466.644" y2="724.705" gradientUnits="userSpaceOnUse">
<stop stop-color="#FFE6B9" stop-opacity="0"/>
<stop offset="1" stop-color="white"/>
</linearGradient>
<linearGradient id="paint7_linear_18509_13859" x1="731.352" y1="138.381" x2="650.151" y2="152.655" gradientUnits="userSpaceOnUse">
<stop offset="0.0317" stop-color="#FCE878"/>
<stop offset="0.0527" stop-color="#FCE676"/>
<stop offset="0.6976" stop-color="#FEB432"/>
<stop offset="1" stop-color="#FFA018"/>
</linearGradient>
<linearGradient id="paint8_linear_18509_13859" x1="631.01" y1="156.599" x2="736.565" y2="155.161" gradientUnits="userSpaceOnUse">
<stop stop-color="#FFE6B9" stop-opacity="0"/>
<stop offset="0.3821" stop-color="#FFF3DE" stop-opacity="0.4239"/>
<stop offset="0.7037" stop-color="#FFFCF6" stop-opacity="0.7807"/>
<stop offset="0.9014" stop-color="white"/>
</linearGradient>
<linearGradient id="paint9_linear_18509_13859" x1="725.54" y1="149.901" x2="653.283" y2="154.188" gradientUnits="userSpaceOnUse">
<stop offset="0.0431" stop-color="#FFA018"/>
<stop offset="0.9874" stop-color="#D36B18"/>
</linearGradient>
<linearGradient id="paint10_linear_18509_13859" x1="638.067" y1="199.138" x2="728.565" y2="168.034" gradientUnits="userSpaceOnUse">
<stop stop-color="#FFB817"/>
<stop offset="0.9893" stop-color="#FFFFBC"/>
</linearGradient>
<linearGradient id="paint11_linear_18509_13859" x1="659.076" y1="155.647" x2="735.168" y2="154.12" gradientUnits="userSpaceOnUse">
<stop stop-color="#FFE6B9" stop-opacity="0"/>
<stop offset="0.3821" stop-color="#FFF3DE" stop-opacity="0.4239"/>
<stop offset="0.7037" stop-color="#FFFCF6" stop-opacity="0.7807"/>
<stop offset="0.9014" stop-color="white"/>
</linearGradient>
<linearGradient id="paint12_linear_18509_13859" x1="733.558" y1="221.376" x2="619.257" y2="181.71" gradientUnits="userSpaceOnUse">
<stop stop-color="#FFC826"/>
<stop offset="0.0945" stop-color="#FFA018"/>
<stop offset="0.2186" stop-color="#F8771E"/>
<stop offset="0.3662" stop-color="#EC6D1A"/>
<stop offset="0.6301" stop-color="#CD510E"/>
<stop offset="0.721" stop-color="#C14609"/>
<stop offset="0.7796" stop-color="#C64A0B"/>
<stop offset="0.8451" stop-color="#D35610"/>
<stop offset="0.9137" stop-color="#E96A18"/>
<stop offset="0.9495" stop-color="#F8771E"/>
<stop offset="0.9701" stop-color="#F87A1E"/>
<stop offset="0.9825" stop-color="#FA821C"/>
<stop offset="0.9927" stop-color="#FC901A"/>
<stop offset="1" stop-color="#FFA018"/>
</linearGradient>
<linearGradient id="paint13_linear_18509_13859" x1="649.615" y1="155.853" x2="754.367" y2="154.463" gradientUnits="userSpaceOnUse">
<stop stop-color="#FFE6B9" stop-opacity="0"/>
<stop offset="0.9014" stop-color="white"/>
</linearGradient>
<radialGradient id="paint14_radial_18509_13859" cx="0" cy="0" r="1" gradientUnits="userSpaceOnUse" gradientTransform="translate(422.934 821.398) rotate(-0.599196) scale(11.2775 19.0218)">
<stop offset="0.6517" stop-color="#FB9018"/>
<stop offset="0.7401" stop-color="#FB931B"/>
<stop offset="0.8094" stop-color="#FB9C25"/>
<stop offset="0.8723" stop-color="#FBAB36"/>
<stop offset="0.9313" stop-color="#FBC14D"/>
<stop offset="0.9872" stop-color="#FBDD6B"/>
<stop offset="1" stop-color="#FBE473"/>
</radialGradient>
<linearGradient id="paint15_linear_18509_13859" x1="152.039" y1="7.27458" x2="137.036" y2="37.2427" gradientUnits="userSpaceOnUse">
<stop offset="0.0394" stop-color="#FFC826"/>
<stop offset="0.1112" stop-color="#FFA018"/>
<stop offset="0.4264" stop-color="#F8771E"/>
<stop offset="0.5129" stop-color="#EC6D1A"/>
<stop offset="0.6677" stop-color="#CD510E"/>
<stop offset="0.721" stop-color="#C14609"/>
</linearGradient>
<linearGradient id="paint16_linear_18509_13859" x1="-24.2606" y1="171.944" x2="86.2173" y2="48.9096" gradientUnits="userSpaceOnUse">
<stop offset="0.2285" stop-color="#FFC826"/>
<stop offset="0.294" stop-color="#FFA018"/>
<stop offset="0.4264" stop-color="#F8771E"/>
<stop offset="0.5129" stop-color="#EC6D1A"/>
<stop offset="0.6677" stop-color="#CD510E"/>
<stop offset="0.721" stop-color="#C14609"/>
</linearGradient>
<linearGradient id="paint17_linear_18509_13859" x1="220.681" y1="19.2538" x2="167.152" y2="105.931" gradientUnits="userSpaceOnUse">
<stop offset="0.0394" stop-color="#FFC826"/>
<stop offset="0.2586" stop-color="#FFA018"/>
<stop offset="0.3314" stop-color="#F8771E"/>
<stop offset="0.4458" stop-color="#EC6D1A"/>
<stop offset="0.6505" stop-color="#CD510E"/>
<stop offset="0.721" stop-color="#C14609"/>
<stop offset="0.8348" stop-color="#C3480A"/>
<stop offset="0.8863" stop-color="#CA4E0D"/>
<stop offset="0.9252" stop-color="#D75A11"/>
<stop offset="0.9577" stop-color="#E96A18"/>
<stop offset="0.977" stop-color="#F8771E"/>
<stop offset="0.9864" stop-color="#F87A1E"/>
<stop offset="0.992" stop-color="#FA821C"/>
<stop offset="0.9967" stop-color="#FC901A"/>
<stop offset="1" stop-color="#FFA018"/>
</linearGradient>
<linearGradient id="paint18_linear_18509_13859" x1="179.081" y1="64.2136" x2="119.449" y2="150.826" gradientUnits="userSpaceOnUse">
<stop offset="0.0394" stop-color="#FFC826"/>
<stop offset="0.1112" stop-color="#FFA018"/>
<stop offset="0.272" stop-color="#F8771E"/>
<stop offset="0.3282" stop-color="#EF6F1B"/>
<stop offset="0.567" stop-color="#CE510E"/>
<stop offset="0.6973" stop-color="#C14609"/>
<stop offset="0.7136" stop-color="#C64E0A"/>
<stop offset="0.7382" stop-color="#D4620E"/>
<stop offset="0.768" stop-color="#EC8413"/>
<stop offset="0.7888" stop-color="#FFA018"/>
<stop offset="0.7904" stop-color="#FE9E18"/>
<stop offset="0.8278" stop-color="#E87F12"/>
<stop offset="0.8666" stop-color="#D7660E"/>
<stop offset="0.907" stop-color="#CB540B"/>
<stop offset="0.95" stop-color="#C3490A"/>
<stop offset="1" stop-color="#C14609"/>
</linearGradient>
<linearGradient id="paint19_linear_18509_13859" x1="34.996" y1="44.8664" x2="105.88" y2="134.002" gradientUnits="userSpaceOnUse">
<stop offset="0.0317" stop-color="#FCE878"/>
<stop offset="0.0527" stop-color="#FCE676"/>
<stop offset="0.6976" stop-color="#FEB432"/>
<stop offset="1" stop-color="#FFA018"/>
</linearGradient>
<linearGradient id="paint20_linear_18509_13859" x1="139.807" y1="115.573" x2="71.3637" y2="21.9693" gradientUnits="userSpaceOnUse">
<stop stop-color="#FFE6B9" stop-opacity="0"/>
<stop offset="0.3821" stop-color="#FFF3DE" stop-opacity="0.4239"/>
<stop offset="0.7037" stop-color="#FFFCF6" stop-opacity="0.7807"/>
<stop offset="0.9014" stop-color="white"/>
</linearGradient>
<clipPath id="clip0_18509_13859">
<rect width="744" height="861" fill="white"/>
</clipPath>
</defs>
</svg>
