<svg width="16" height="17" viewBox="0 0 16 17" fill="none" xmlns="http://www.w3.org/2000/svg">
<path d="M14.4713 8.17696L9.13799 2.84363C9.04476 2.75042 8.92598 2.68695 8.79668 2.66124C8.66738 2.63553 8.53336 2.64873 8.41156 2.69918C8.28976 2.74962 8.18565 2.83505 8.11239 2.94466C8.03914 3.05426 8.00002 3.18313 8 3.31496V5.6783C6.17886 5.84682 4.48615 6.68887 3.25312 8.03965C2.0201 9.39043 1.33551 11.1527 1.33333 12.9816V13.9816C1.33343 14.12 1.3766 14.2549 1.45684 14.3677C1.53709 14.4804 1.65043 14.5654 1.78115 14.6108C1.91186 14.6563 2.05348 14.6599 2.18635 14.6212C2.31922 14.5825 2.43676 14.5035 2.52266 14.395C3.17579 13.6183 3.97717 12.9795 4.87996 12.516C5.78275 12.0526 6.76886 11.7737 7.78066 11.6956C7.81399 11.6916 7.89733 11.685 8 11.6783V13.9816C8.00002 14.1135 8.03914 14.2423 8.11239 14.3519C8.18565 14.4615 8.28976 14.547 8.41156 14.5974C8.53336 14.6479 8.66738 14.6611 8.79668 14.6354C8.92598 14.6096 9.04476 14.5462 9.13799 14.453L14.4713 9.11963C14.5963 8.99461 14.6665 8.82507 14.6665 8.6483C14.6665 8.47152 14.5963 8.30198 14.4713 8.17696ZM9.33333 12.3723V10.9816C9.33333 10.8048 9.26309 10.6352 9.13807 10.5102C9.01304 10.3852 8.84347 10.315 8.66666 10.315C8.49666 10.315 7.80266 10.3483 7.62533 10.3716C5.82857 10.5372 4.11827 11.2198 2.70133 12.337C2.86216 10.8666 3.55969 9.50719 4.66036 8.51907C5.76104 7.53094 7.18752 6.98353 8.66666 6.98163C8.84347 6.98163 9.01304 6.91139 9.13807 6.78637C9.26309 6.66134 9.33333 6.49177 9.33333 6.31496V4.9243L13.0573 8.6483L9.33333 12.3723Z" fill="#007BFF"/>
</svg>
