<svg width="34" height="34" viewBox="0 0 34 34" fill="none" xmlns="http://www.w3.org/2000/svg">
<g clip-path="url(#clip0_19709_5094)">
<path d="M1.38525 16.9707L2.45553 18.041L25.5479 17.4148L4.08347 19.6689L6.03714 21.6226L26.1289 18.1185L22.6679 20.4176L24.5857 20.5513L22.3486 22.9878L32.6316 16.9875L22.2054 10.9035L24.7579 14.4737L22.8103 14.3358L25.3673 15.787L6.03724 12.3187L5.29578 13.0602L16.9369 15.2696L5.05627 14.7692L12.9291 16.0809L2.19016 16.1658L1.38525 16.9707ZM18.7929 5.67421L19 8.01813L27.7305 13.0901L21.0183 5.36449L18.7928 5.67414L18.7929 5.67421ZM21.9752 24.2281L21.9253 25.8339L23.5592 26.031L28.0817 20.6612L21.9751 24.2282L21.9752 24.2281Z" fill="white"/>
</g>
<defs>
<clipPath id="clip0_19709_5094">
<rect width="24" height="24" fill="white" transform="translate(0.0292969 17) rotate(-45)"/>
</clipPath>
</defs>
</svg>
