<svg width="327" height="64" viewBox="0 0 327 64" fill="none" xmlns="http://www.w3.org/2000/svg">
<path d="M31.5817 0.417969C14.1523 0.417969 -0.000488281 14.5707 -0.000488281 32.0001C-0.000488281 49.4295 14.1523 63.5823 31.5817 63.5823C49.011 63.5823 63.1638 49.4295 63.1638 32.0001C63.1638 14.5707 49.011 0.417969 31.5817 0.417969Z" fill="#2F67F4"/>
<path d="M75.0593 13.6367L85.1645 34.7282L83.9254 39.8772H78.3084L63.6875 13.6367H75.0317H75.0593ZM87.9179 34.1775V50.6156H77.5925V34.1775H87.9179ZM80.7314 34.5079L90.7815 13.6367H101.988L87.4223 39.8772H81.8603L80.7314 34.5079Z" fill="#2F67F4"/>
<path d="M117.986 51.4374C114.324 51.4374 111.103 50.6664 108.322 49.097C105.541 47.5275 103.366 45.3522 101.824 42.5162C100.282 39.6801 99.5107 36.376 99.5107 32.6037C99.5107 28.8315 100.282 25.4998 101.824 22.6638C103.366 19.8552 105.541 17.6525 108.322 16.0555C111.103 14.4585 114.324 13.6875 117.986 13.6875C121.649 13.6875 124.925 14.486 127.706 16.0555C130.487 17.6525 132.662 19.8277 134.204 22.6638C135.746 25.4723 136.517 28.7764 136.517 32.6037C136.517 36.431 135.746 39.6801 134.204 42.5162C132.662 45.3522 130.487 47.5275 127.706 49.097C124.925 50.6664 121.704 51.4374 117.986 51.4374ZM117.986 42.9292C119.556 42.9292 120.933 42.5162 122.117 41.6902C123.301 40.8641 124.209 39.6801 124.87 38.1657C125.531 36.6238 125.861 34.7514 125.861 32.5762C125.861 30.401 125.531 28.5286 124.87 27.0142C124.209 25.4998 123.301 24.3158 122.117 23.4898C120.933 22.6638 119.583 22.2508 117.986 22.2508C116.389 22.2508 115.068 22.6638 113.856 23.4898C112.672 24.3158 111.736 25.4998 111.075 27.0142C110.414 28.5562 110.112 30.4285 110.112 32.6037C110.112 34.779 110.442 36.6513 111.075 38.1933C111.736 39.7352 112.645 40.9192 113.829 41.7177C115.013 42.5437 116.389 42.9568 117.959 42.9568L117.986 42.9292Z" fill="#2F67F4"/>
<path d="M165.428 34.9502V14.5195H175.946V50.6173H165.483V44.2018H165.428C164.602 46.322 163.253 48.0566 161.353 49.3783C159.453 50.7 157.085 51.3883 154.304 51.3883C151.523 51.3883 149.458 50.8101 147.421 49.6536C145.383 48.4972 143.758 46.8726 142.574 44.7249C141.39 42.6048 140.785 40.0716 140.785 37.1529V14.5195H151.358V35.3081C151.358 37.6761 151.991 39.4934 153.23 40.76C154.469 42.0266 156.149 42.6599 158.242 42.6599C160.334 42.6599 160.857 42.3845 161.959 41.8063C163.033 41.2281 163.886 40.3745 164.519 39.218C165.153 38.0616 165.456 36.6573 165.456 34.9502H165.428Z" fill="#2F67F4"/>
<path d="M183.573 50.6174V14.5195H201.801C206.62 14.5195 210.365 15.6209 213.09 17.8237C215.816 20.0264 217.166 23.1103 217.166 27.1028C217.166 31.0953 215.761 33.7937 212.953 35.9139C210.144 38.034 206.289 39.0804 201.361 39.0804H189.356V31.6185H200.094C202.407 31.6185 204.087 31.2606 205.161 30.5722C206.234 29.8838 206.758 28.7549 206.758 27.213C206.758 25.671 206.234 24.487 205.188 23.7711C204.142 23.0828 202.517 22.7248 200.342 22.7248H193.568V50.6174H183.546H183.573ZM207.308 50.6174L196.735 34.785H207.914L218.708 50.6174H207.281H207.308Z" fill="#2F67F4"/>
<path d="M253.924 26.0304H244.204C244.204 24.6537 243.626 23.4972 242.524 22.5611C241.423 21.6249 240.019 21.1843 238.284 21.1843C236.549 21.1843 235.283 21.5148 234.319 22.2031C233.355 22.8915 232.887 23.7451 232.887 24.7914C232.887 25.8377 233.273 26.3884 234.016 26.9391C234.76 27.5173 235.806 27.9303 237.155 28.2056L244.121 29.5273C247.784 30.2432 250.482 31.4272 252.217 33.0242C253.951 34.6212 254.805 36.7414 254.805 39.4122C254.805 42.0831 254.116 43.983 252.74 45.7727C251.363 47.5624 249.463 48.9667 247.013 49.9855C244.562 50.9767 241.753 51.4999 238.532 51.4999C235.31 51.4999 232.557 51.0043 230.079 50.0406C227.601 49.0768 225.618 47.6726 224.131 45.8278C222.644 43.983 221.791 41.7802 221.598 39.2195H231.979C232.171 40.7339 232.805 41.8903 233.906 42.7439C235.007 43.5975 236.494 44.038 238.394 44.038C240.294 44.038 241.616 43.7076 242.635 43.0192C243.653 42.3584 244.176 41.4773 244.176 40.4035C244.176 39.3296 243.791 38.7514 242.993 38.2282C242.194 37.6775 241.065 37.2645 239.606 36.9616L233.218 35.7226C229.693 35.0618 226.995 33.8502 225.178 32.0605C223.36 30.2707 222.452 27.9854 222.452 25.2044C222.452 22.4234 223.085 20.8815 224.324 19.1743C225.563 17.4672 227.353 16.118 229.693 15.1818C232.006 14.2456 234.787 13.75 237.954 13.75C241.12 13.75 243.929 14.2456 246.297 15.2369C248.665 16.2281 250.509 17.6324 251.859 19.4772C253.18 21.322 253.869 23.4972 253.924 26.0304Z" fill="black"/>
<path d="M284.596 50.6174L274.932 25.258H274.794L267.029 50.6174H255.988L268.764 14.5195H280.521L295.445 50.6174H284.569H284.596Z" fill="black"/>
<path d="M300.071 13.6367L310.177 34.7282L308.938 39.8772H303.321L288.7 13.6367H300.044H300.071ZM312.93 34.1775V50.6156H302.605V34.1775H312.93ZM305.744 34.5079L315.794 13.6367H327L312.434 39.8772H306.873L305.744 34.5079Z" fill="black"/>
<path d="M41.6848 38C38.1879 38 35.3794 40.8361 35.3794 44.3054C35.3794 47.7748 38.2155 50.6108 41.6848 50.6108C45.1817 50.6108 47.9902 47.7748 47.9902 44.3054C47.9902 40.8361 45.1542 38 41.6848 38Z" fill="white"/>
<path d="M35.3818 25.3649L40.3931 20.3536C43.2016 17.5451 41.2191 12.7266 37.2266 12.7266C36.0426 12.7266 34.9137 13.1946 34.0602 14.0207L22.7434 25.3649L19.577 28.5314C17.8423 30.2661 17.8423 33.1021 19.577 34.8368L22.7434 38.0033L17.7322 43.0146C14.9236 45.8231 16.9061 50.6417 20.8986 50.6417C22.0826 50.6417 23.2115 50.1736 24.0651 49.3475L35.3818 38.0308L38.5483 34.8644C40.283 33.1297 40.283 30.2936 38.5483 28.5589L35.3818 25.3925V25.3649Z" fill="white"/>
<path d="M22.7436 18.7585C22.7436 15.2762 19.9206 12.4531 16.4382 12.4531C12.9558 12.4531 10.1328 15.2762 10.1328 18.7585C10.1328 22.2409 12.9558 25.064 16.4382 25.064C19.9206 25.064 22.7436 22.2409 22.7436 18.7585Z" fill="white"/>
</svg>
