<svg width="149" height="29" viewBox="0 0 149 29" fill="none" xmlns="http://www.w3.org/2000/svg">
<path d="M14.3906 0C6.4488 0 0 6.44881 0 14.3906C0 22.3324 6.4488 28.7812 14.3906 28.7812C22.3324 28.7812 28.7812 22.3324 28.7812 14.3906C28.7812 6.44881 22.3324 0 14.3906 0Z" fill="#2F67F4"/>
<path d="M34.2012 6.02148L38.8057 15.632L38.2411 17.9781H35.6816L29.0195 6.02148H34.1886H34.2012ZM40.0603 15.381V22.8712H35.3554V15.381H40.0603ZM36.7857 15.5316L41.3651 6.02148H46.4715L39.8345 17.9781H37.3001L36.7857 15.5316Z" fill="#2F67F4"/>
<path d="M53.7609 23.2479C52.0922 23.2479 50.6243 22.8966 49.3571 22.1814C48.0899 21.4663 47.0988 20.4751 46.3962 19.1829C45.6936 17.8906 45.3423 16.385 45.3423 14.6662C45.3423 12.9473 45.6936 11.4292 46.3962 10.137C47.0988 8.85725 48.0899 7.85354 49.3571 7.12586C50.6243 6.39817 52.0922 6.04688 53.7609 6.04688C55.4295 6.04688 56.9225 6.41072 58.1897 7.12586C59.4569 7.85354 60.448 8.8447 61.1506 10.137C61.8532 11.4167 62.2045 12.9223 62.2045 14.6662C62.2045 16.4101 61.8532 17.8906 61.1506 19.1829C60.448 20.4751 59.4569 21.4663 58.1897 22.1814C56.9225 22.8966 55.4546 23.2479 53.7609 23.2479ZM53.7609 19.3711C54.476 19.3711 55.1033 19.1829 55.6428 18.8065C56.1823 18.4301 56.5963 17.8906 56.8974 17.2005C57.1985 16.498 57.3491 15.6448 57.3491 14.6536C57.3491 13.6625 57.1985 12.8093 56.8974 12.1193C56.5963 11.4292 56.1823 10.8898 55.6428 10.5134C55.1033 10.137 54.4885 9.94878 53.7609 9.94878C53.0332 9.94878 52.4309 10.137 51.8789 10.5134C51.3394 10.8898 50.9128 11.4292 50.6117 12.1193C50.3106 12.8219 50.1726 13.675 50.1726 14.6662C50.1726 15.6573 50.3232 16.5105 50.6117 17.2131C50.9128 17.9157 51.3269 18.4552 51.8664 18.819C52.4059 19.1954 53.0332 19.3836 53.7483 19.3836L53.7609 19.3711Z" fill="#2F67F4"/>
<path d="M75.3784 15.7322V6.42285H80.1711V22.8711H75.4035V19.9478H75.3784C75.002 20.9138 74.3872 21.7043 73.5215 22.3065C72.6558 22.9087 71.5768 23.2224 70.3097 23.2224C69.0425 23.2224 68.1015 22.9589 67.1731 22.4319C66.2447 21.905 65.5044 21.1648 64.9649 20.1862C64.4254 19.2201 64.1494 18.0658 64.1494 16.7359V6.42285H68.9672V15.8953C68.9672 16.9743 69.2558 17.8024 69.8203 18.3795C70.3849 18.9566 71.1503 19.2452 72.1038 19.2452C73.0573 19.2452 73.2957 19.1197 73.7975 18.8562C74.2868 18.5928 74.6758 18.2038 74.9643 17.6769C75.2529 17.1499 75.3909 16.5101 75.3909 15.7322H75.3784Z" fill="#2F67F4"/>
<path d="M83.6463 22.8711V6.42285H91.952C94.1476 6.42285 95.8539 6.9247 97.096 7.92841C98.3381 8.93211 98.9528 10.3373 98.9528 12.1565C98.9528 13.9757 98.313 15.2053 97.0332 16.1713C95.7535 17.1374 93.997 17.6142 91.7512 17.6142H86.2811V14.2141H91.1741C92.228 14.2141 92.9933 14.051 93.4826 13.7374C93.972 13.4237 94.2103 12.9093 94.2103 12.2067C94.2103 11.5041 93.9719 10.9646 93.4952 10.6384C93.0184 10.3248 92.2782 10.1617 91.287 10.1617H88.2007V22.8711H83.6338H83.6463ZM94.4612 22.8711L89.6435 15.6569H94.7373L99.6554 22.8711H94.4487H94.4612Z" fill="#2F67F4"/>
<path d="M115.702 11.6669H111.273C111.273 11.0396 111.01 10.5127 110.508 10.0861C110.006 9.65953 109.366 9.45879 108.576 9.45879C107.785 9.45879 107.208 9.60935 106.769 9.92301C106.33 10.2367 106.117 10.6256 106.117 11.1024C106.117 11.5791 106.292 11.83 106.631 12.081C106.97 12.3444 107.447 12.5326 108.061 12.6581L111.236 13.2603C112.904 13.5865 114.134 14.126 114.924 14.8537C115.715 15.5814 116.104 16.5475 116.104 17.7645C116.104 18.9814 115.79 19.8471 115.163 20.6626C114.535 21.4782 113.67 22.118 112.553 22.5822C111.436 23.0339 110.157 23.2723 108.689 23.2723C107.221 23.2723 105.966 23.0464 104.837 22.6073C103.708 22.1682 102.804 21.5283 102.127 20.6877C101.449 19.8471 101.06 18.8434 100.973 17.6766H105.703C105.79 18.3667 106.079 18.8936 106.581 19.2826C107.083 19.6715 107.76 19.8722 108.626 19.8722C109.492 19.8722 110.094 19.7217 110.558 19.408C111.022 19.1069 111.261 18.7054 111.261 18.2161C111.261 17.7268 111.085 17.4633 110.721 17.225C110.357 16.974 109.843 16.7858 109.178 16.6478L106.267 16.0832C104.661 15.7821 103.432 15.2301 102.604 14.4146C101.776 13.5991 101.362 12.5577 101.362 11.2906C101.362 10.0234 101.65 9.32079 102.215 8.54291C102.779 7.76504 103.595 7.15027 104.661 6.7237C105.715 6.29712 106.982 6.07129 108.425 6.07129C109.868 6.07129 111.148 6.29713 112.227 6.74879C113.306 7.20046 114.146 7.84032 114.761 8.68092C115.363 9.52153 115.677 10.5127 115.702 11.6669Z" fill="black"/>
<path d="M129.679 22.8711L125.275 11.3159H125.212L121.674 22.8711H116.643L122.465 6.42285H127.822L134.622 22.8711H129.666H129.679Z" fill="black"/>
<path d="M136.729 6.02148L141.334 15.632L140.769 17.9781H138.21L131.548 6.02148H136.717H136.729ZM142.589 15.381V22.8712H137.884V15.381H142.589ZM139.314 15.5316L143.893 6.02148H149L142.363 17.9781H139.828L139.314 15.5316Z" fill="black"/>
<path d="M18.9952 17.126C17.4018 17.126 16.1221 18.4182 16.1221 19.9991C16.1221 21.5799 17.4143 22.8722 18.9952 22.8722C20.5886 22.8722 21.8683 21.5799 21.8683 19.9991C21.8683 18.4182 20.576 17.126 18.9952 17.126Z" fill="white"/>
<path d="M16.1221 11.3672L18.4056 9.08373C19.6853 7.804 18.782 5.6084 16.9627 5.6084C16.4233 5.6084 15.9089 5.82168 15.5199 6.19807L10.3634 11.3672L8.92056 12.81C8.13014 13.6004 8.13014 14.8927 8.92056 15.6831L10.3634 17.1259L8.07996 19.4093C6.80023 20.6891 7.70357 22.8847 9.52278 22.8847C10.0623 22.8847 10.5767 22.6714 10.9656 22.295L16.1221 17.1385L17.565 15.6956C18.3554 14.9052 18.3554 13.6129 17.565 12.8225L16.1221 11.3797V11.3672Z" fill="white"/>
<path d="M10.3634 8.35553C10.3634 6.76875 9.07707 5.48242 7.49029 5.48242C5.90352 5.48242 4.61719 6.76875 4.61719 8.35553C4.61719 9.9423 5.90352 11.2286 7.49029 11.2286C9.07707 11.2286 10.3634 9.9423 10.3634 8.35553Z" fill="white"/>
</svg>
